ISO-10303-21;
HEADER;
/* Generated by software containing ST-Developer
 * from STEP Tools, Inc. (www.steptools.com) 
 */

FILE_DESCRIPTION(
/* description */ (''),
/* implementation_level */ '2;1');

FILE_NAME(
/* name */ 'Bottom_Case.step',
/* time_stamp */ '2026-09-18T22:45:48+06:00',
/* author */ (''),
/* organization */ (''),
/* preprocessor_version */ 'ST-DEVELOPER v20.1',
/* originating_system */ 'Autodesk Translation Framework v15.8.0.0',
/* authorisation */ '');

FILE_SCHEMA (('AUTOMOTIVE_DESIGN { 1 0 10303 214 3 1 1 }'));
ENDSEC;

DATA;
#10=MECHANICAL_DESIGN_GEOMETRIC_PRESENTATION_REPRESENTATION('',(#13),#1957);
#11=SHAPE_REPRESENTATION_RELATIONSHIP('SRR','None',#1964,#12);
#12=ADVANCED_BREP_SHAPE_REPRESENTATION('',(#14),#1956);
#13=STYLED_ITEM('',(#1973),#14);
#14=MANIFOLD_SOLID_BREP('Body1',#1153);
#15=FACE_BOUND('',#131,.T.);
#16=FACE_BOUND('',#132,.T.);
#17=FACE_BOUND('',#133,.T.);
#18=FACE_BOUND('',#135,.T.);
#19=FACE_BOUND('',#136,.T.);
#20=FACE_BOUND('',#153,.T.);
#21=FACE_BOUND('',#157,.T.);
#22=FACE_BOUND('',#161,.T.);
#23=FACE_BOUND('',#165,.T.);
#24=FACE_BOUND('',#185,.T.);
#25=FACE_BOUND('',#186,.T.);
#26=FACE_BOUND('',#187,.T.);
#27=PLANE('',#1170);
#28=PLANE('',#1174);
#29=PLANE('',#1178);
#30=PLANE('',#1185);
#31=PLANE('',#1195);
#32=PLANE('',#1198);
#33=PLANE('',#1203);
#34=PLANE('',#1210);
#35=PLANE('',#1213);
#36=PLANE('',#1214);
#37=PLANE('',#1218);
#38=PLANE('',#1219);
#39=PLANE('',#1225);
#40=PLANE('',#1226);
#41=PLANE('',#1232);
#42=PLANE('',#1233);
#43=PLANE('',#1239);
#44=PLANE('',#1240);
#45=PLANE('',#1245);
#46=PLANE('',#1248);
#47=PLANE('',#1251);
#48=PLANE('',#1254);
#49=PLANE('',#1255);
#50=PLANE('',#1257);
#51=PLANE('',#1258);
#52=PLANE('',#1259);
#53=PLANE('',#1260);
#54=PLANE('',#1261);
#55=PLANE('',#1262);
#56=PLANE('',#1263);
#57=PLANE('',#1265);
#58=PLANE('',#1271);
#59=PLANE('',#1273);
#60=PLANE('',#1276);
#61=PLANE('',#1277);
#62=PLANE('',#1280);
#63=FACE_OUTER_BOUND('',#125,.T.);
#64=FACE_OUTER_BOUND('',#126,.T.);
#65=FACE_OUTER_BOUND('',#127,.T.);
#66=FACE_OUTER_BOUND('',#128,.T.);
#67=FACE_OUTER_BOUND('',#129,.T.);
#68=FACE_OUTER_BOUND('',#130,.T.);
#69=FACE_OUTER_BOUND('',#134,.T.);
#70=FACE_OUTER_BOUND('',#137,.T.);
#71=FACE_OUTER_BOUND('',#138,.T.);
#72=FACE_OUTER_BOUND('',#139,.T.);
#73=FACE_OUTER_BOUND('',#140,.T.);
#74=FACE_OUTER_BOUND('',#141,.T.);
#75=FACE_OUTER_BOUND('',#142,.T.);
#76=FACE_OUTER_BOUND('',#143,.T.);
#77=FACE_OUTER_BOUND('',#144,.T.);
#78=FACE_OUTER_BOUND('',#145,.T.);
#79=FACE_OUTER_BOUND('',#146,.T.);
#80=FACE_OUTER_BOUND('',#147,.T.);
#81=FACE_OUTER_BOUND('',#148,.T.);
#82=FACE_OUTER_BOUND('',#149,.T.);
#83=FACE_OUTER_BOUND('',#150,.T.);
#84=FACE_OUTER_BOUND('',#151,.T.);
#85=FACE_OUTER_BOUND('',#152,.T.);
#86=FACE_OUTER_BOUND('',#154,.T.);
#87=FACE_OUTER_BOUND('',#155,.T.);
#88=FACE_OUTER_BOUND('',#156,.T.);
#89=FACE_OUTER_BOUND('',#158,.T.);
#90=FACE_OUTER_BOUND('',#159,.T.);
#91=FACE_OUTER_BOUND('',#160,.T.);
#92=FACE_OUTER_BOUND('',#162,.T.);
#93=FACE_OUTER_BOUND('',#163,.T.);
#94=FACE_OUTER_BOUND('',#164,.T.);
#95=FACE_OUTER_BOUND('',#166,.T.);
#96=FACE_OUTER_BOUND('',#167,.T.);
#97=FACE_OUTER_BOUND('',#168,.T.);
#98=FACE_OUTER_BOUND('',#169,.T.);
#99=FACE_OUTER_BOUND('',#170,.T.);
#100=FACE_OUTER_BOUND('',#171,.T.);
#101=FACE_OUTER_BOUND('',#172,.T.);
#102=FACE_OUTER_BOUND('',#173,.T.);
#103=FACE_OUTER_BOUND('',#174,.T.);
#104=FACE_OUTER_BOUND('',#175,.T.);
#105=FACE_OUTER_BOUND('',#176,.T.);
#106=FACE_OUTER_BOUND('',#177,.T.);
#107=FACE_OUTER_BOUND('',#178,.T.);
#108=FACE_OUTER_BOUND('',#179,.T.);
#109=FACE_OUTER_BOUND('',#180,.T.);
#110=FACE_OUTER_BOUND('',#181,.T.);
#111=FACE_OUTER_BOUND('',#182,.T.);
#112=FACE_OUTER_BOUND('',#183,.T.);
#113=FACE_OUTER_BOUND('',#184,.T.);
#114=FACE_OUTER_BOUND('',#188,.T.);
#115=FACE_OUTER_BOUND('',#189,.T.);
#116=FACE_OUTER_BOUND('',#190,.T.);
#117=FACE_OUTER_BOUND('',#191,.T.);
#118=FACE_OUTER_BOUND('',#192,.T.);
#119=FACE_OUTER_BOUND('',#193,.T.);
#120=FACE_OUTER_BOUND('',#194,.T.);
#121=FACE_OUTER_BOUND('',#195,.T.);
#122=FACE_OUTER_BOUND('',#196,.T.);
#123=FACE_OUTER_BOUND('',#197,.T.);
#124=FACE_OUTER_BOUND('',#198,.T.);
#125=EDGE_LOOP('',(#741,#742,#743,#744));
#126=EDGE_LOOP('',(#745));
#127=EDGE_LOOP('',(#746,#747,#748,#749));
#128=EDGE_LOOP('',(#750));
#129=EDGE_LOOP('',(#751,#752,#753,#754));
#130=EDGE_LOOP('',(#755,#756,#757,#758));
#131=EDGE_LOOP('',(#759));
#132=EDGE_LOOP('',(#760));
#133=EDGE_LOOP('',(#761,#762,#763,#764,#765,#766,#767,#768));
#134=EDGE_LOOP('',(#769,#770,#771,#772,#773,#774,#775,#776,#777,#778,#779,
#780,#781,#782,#783,#784,#785,#786,#787,#788));
#135=EDGE_LOOP('',(#789));
#136=EDGE_LOOP('',(#790));
#137=EDGE_LOOP('',(#791,#792,#793,#794));
#138=EDGE_LOOP('',(#795,#796,#797,#798,#799,#800,#801,#802,#803,#804));
#139=EDGE_LOOP('',(#805,#806,#807,#808));
#140=EDGE_LOOP('',(#809,#810,#811,#812));
#141=EDGE_LOOP('',(#813,#814,#815,#816));
#142=EDGE_LOOP('',(#817,#818,#819,#820));
#143=EDGE_LOOP('',(#821,#822,#823,#824));
#144=EDGE_LOOP('',(#825,#826,#827,#828));
#145=EDGE_LOOP('',(#829,#830,#831,#832));
#146=EDGE_LOOP('',(#833,#834,#835,#836));
#147=EDGE_LOOP('',(#837,#838,#839,#840));
#148=EDGE_LOOP('',(#841,#842,#843,#844));
#149=EDGE_LOOP('',(#845,#846,#847,#848));
#150=EDGE_LOOP('',(#849,#850,#851,#852));
#151=EDGE_LOOP('',(#853,#854,#855,#856));
#152=EDGE_LOOP('',(#857,#858,#859,#860,#861,#862));
#153=EDGE_LOOP('',(#863));
#154=EDGE_LOOP('',(#864,#865,#866,#867));
#155=EDGE_LOOP('',(#868,#869,#870,#871));
#156=EDGE_LOOP('',(#872,#873,#874,#875,#876,#877));
#157=EDGE_LOOP('',(#878));
#158=EDGE_LOOP('',(#879,#880,#881,#882));
#159=EDGE_LOOP('',(#883,#884,#885,#886));
#160=EDGE_LOOP('',(#887,#888,#889,#890,#891,#892));
#161=EDGE_LOOP('',(#893));
#162=EDGE_LOOP('',(#894,#895,#896,#897));
#163=EDGE_LOOP('',(#898,#899,#900,#901));
#164=EDGE_LOOP('',(#902,#903,#904,#905,#906,#907));
#165=EDGE_LOOP('',(#908));
#166=EDGE_LOOP('',(#909,#910,#911,#912));
#167=EDGE_LOOP('',(#913));
#168=EDGE_LOOP('',(#914,#915,#916,#917));
#169=EDGE_LOOP('',(#918));
#170=EDGE_LOOP('',(#919,#920,#921,#922));
#171=EDGE_LOOP('',(#923));
#172=EDGE_LOOP('',(#924,#925,#926,#927));
#173=EDGE_LOOP('',(#928));
#174=EDGE_LOOP('',(#929,#930,#931,#932));
#175=EDGE_LOOP('',(#933,#934,#935,#936));
#176=EDGE_LOOP('',(#937,#938,#939,#940,#941,#942,#943,#944,#945,#946,#947,
#948,#949,#950));
#177=EDGE_LOOP('',(#951,#952,#953,#954));
#178=EDGE_LOOP('',(#955,#956,#957,#958,#959,#960,#961,#962));
#179=EDGE_LOOP('',(#963,#964,#965,#966,#967,#968,#969,#970,#971,#972,#973,
#974,#975,#976,#977,#978));
#180=EDGE_LOOP('',(#979,#980,#981,#982));
#181=EDGE_LOOP('',(#983,#984,#985,#986,#987,#988,#989,#990));
#182=EDGE_LOOP('',(#991,#992,#993,#994));
#183=EDGE_LOOP('',(#995,#996,#997,#998));
#184=EDGE_LOOP('',(#999,#1000,#1001,#1002,#1003,#1004,#1005,#1006));
#185=EDGE_LOOP('',(#1007));
#186=EDGE_LOOP('',(#1008));
#187=EDGE_LOOP('',(#1009,#1010,#1011,#1012,#1013,#1014,#1015,#1016));
#188=EDGE_LOOP('',(#1017,#1018,#1019,#1020));
#189=EDGE_LOOP('',(#1021,#1022,#1023,#1024));
#190=EDGE_LOOP('',(#1025,#1026,#1027,#1028));
#191=EDGE_LOOP('',(#1029,#1030,#1031,#1032));
#192=EDGE_LOOP('',(#1033,#1034,#1035,#1036));
#193=EDGE_LOOP('',(#1037,#1038,#1039,#1040));
#194=EDGE_LOOP('',(#1041,#1042,#1043,#1044));
#195=EDGE_LOOP('',(#1045,#1046,#1047,#1048));
#196=EDGE_LOOP('',(#1049,#1050,#1051,#1052));
#197=EDGE_LOOP('',(#1053,#1054,#1055,#1056));
#198=EDGE_LOOP('',(#1057,#1058,#1059,#1060,#1061,#1062,#1063,#1064));
#199=LINE('',#1626,#309);
#200=LINE('',#1633,#310);
#201=LINE('',#1641,#311);
#202=LINE('',#1644,#312);
#203=LINE('',#1647,#313);
#204=LINE('',#1649,#314);
#205=LINE('',#1650,#315);
#206=LINE('',#1657,#316);
#207=LINE('',#1661,#317);
#208=LINE('',#1665,#318);
#209=LINE('',#1669,#319);
#210=LINE('',#1673,#320);
#211=LINE('',#1677,#321);
#212=LINE('',#1679,#322);
#213=LINE('',#1681,#323);
#214=LINE('',#1685,#324);
#215=LINE('',#1689,#325);
#216=LINE('',#1693,#326);
#217=LINE('',#1697,#327);
#218=LINE('',#1699,#328);
#219=LINE('',#1701,#329);
#220=LINE('',#1705,#330);
#221=LINE('',#1711,#331);
#222=LINE('',#1712,#332);
#223=LINE('',#1715,#333);
#224=LINE('',#1716,#334);
#225=LINE('',#1718,#335);
#226=LINE('',#1722,#336);
#227=LINE('',#1725,#337);
#228=LINE('',#1727,#338);
#229=LINE('',#1731,#339);
#230=LINE('',#1735,#340);
#231=LINE('',#1737,#341);
#232=LINE('',#1741,#342);
#233=LINE('',#1745,#343);
#234=LINE('',#1750,#344);
#235=LINE('',#1751,#345);
#236=LINE('',#1754,#346);
#237=LINE('',#1755,#347);
#238=LINE('',#1759,#348);
#239=LINE('',#1761,#349);
#240=LINE('',#1763,#350);
#241=LINE('',#1769,#351);
#242=LINE('',#1772,#352);
#243=LINE('',#1775,#353);
#244=LINE('',#1777,#354);
#245=LINE('',#1778,#355);
#246=LINE('',#1781,#356);
#247=LINE('',#1783,#357);
#248=LINE('',#1786,#358);
#249=LINE('',#1794,#359);
#250=LINE('',#1797,#360);
#251=LINE('',#1800,#361);
#252=LINE('',#1802,#362);
#253=LINE('',#1803,#363);
#254=LINE('',#1806,#364);
#255=LINE('',#1808,#365);
#256=LINE('',#1811,#366);
#257=LINE('',#1819,#367);
#258=LINE('',#1822,#368);
#259=LINE('',#1825,#369);
#260=LINE('',#1827,#370);
#261=LINE('',#1828,#371);
#262=LINE('',#1831,#372);
#263=LINE('',#1833,#373);
#264=LINE('',#1836,#374);
#265=LINE('',#1844,#375);
#266=LINE('',#1847,#376);
#267=LINE('',#1850,#377);
#268=LINE('',#1852,#378);
#269=LINE('',#1853,#379);
#270=LINE('',#1856,#380);
#271=LINE('',#1858,#381);
#272=LINE('',#1861,#382);
#273=LINE('',#1866,#383);
#274=LINE('',#1871,#384);
#275=LINE('',#1876,#385);
#276=LINE('',#1881,#386);
#277=LINE('',#1886,#387);
#278=LINE('',#1887,#388);
#279=LINE('',#1889,#389);
#280=LINE('',#1890,#390);
#281=LINE('',#1892,#391);
#282=LINE('',#1893,#392);
#283=LINE('',#1896,#393);
#284=LINE('',#1897,#394);
#285=LINE('',#1899,#395);
#286=LINE('',#1900,#396);
#287=LINE('',#1901,#397);
#288=LINE('',#1904,#398);
#289=LINE('',#1905,#399);
#290=LINE('',#1907,#400);
#291=LINE('',#1908,#401);
#292=LINE('',#1910,#402);
#293=LINE('',#1912,#403);
#294=LINE('',#1914,#404);
#295=LINE('',#1916,#405);
#296=LINE('',#1918,#406);
#297=LINE('',#1921,#407);
#298=LINE('',#1925,#408);
#299=LINE('',#1929,#409);
#300=LINE('',#1933,#410);
#301=LINE('',#1936,#411);
#302=LINE('',#1937,#412);
#303=LINE('',#1939,#413);
#304=LINE('',#1941,#414);
#305=LINE('',#1942,#415);
#306=LINE('',#1944,#416);
#307=LINE('',#1946,#417);
#308=LINE('',#1948,#418);
#309=VECTOR('',#1287,2.);
#310=VECTOR('',#1296,2.);
#311=VECTOR('',#1305,10.);
#312=VECTOR('',#1308,10.);
#313=VECTOR('',#1311,10.);
#314=VECTOR('',#1312,10.);
#315=VECTOR('',#1313,10.);
#316=VECTOR('',#1318,10.);
#317=VECTOR('',#1321,10.);
#318=VECTOR('',#1324,10.);
#319=VECTOR('',#1327,10.);
#320=VECTOR('',#1332,10.);
#321=VECTOR('',#1335,10.);
#322=VECTOR('',#1336,10.);
#323=VECTOR('',#1337,10.);
#324=VECTOR('',#1340,10.);
#325=VECTOR('',#1343,10.);
#326=VECTOR('',#1346,10.);
#327=VECTOR('',#1349,10.);
#328=VECTOR('',#1350,10.);
#329=VECTOR('',#1351,10.);
#330=VECTOR('',#1354,10.);
#331=VECTOR('',#1361,10.);
#332=VECTOR('',#1362,10.);
#333=VECTOR('',#1365,10.);
#334=VECTOR('',#1366,10.);
#335=VECTOR('',#1367,10.);
#336=VECTOR('',#1370,10.);
#337=VECTOR('',#1373,10.);
#338=VECTOR('',#1376,10.);
#339=VECTOR('',#1381,10.);
#340=VECTOR('',#1386,10.);
#341=VECTOR('',#1389,10.);
#342=VECTOR('',#1394,1.5);
#343=VECTOR('',#1399,1.5);
#344=VECTOR('',#1404,10.);
#345=VECTOR('',#1405,10.);
#346=VECTOR('',#1408,10.);
#347=VECTOR('',#1409,10.);
#348=VECTOR('',#1414,10.);
#349=VECTOR('',#1417,10.);
#350=VECTOR('',#1420,10.);
#351=VECTOR('',#1425,10.);
#352=VECTOR('',#1428,10.);
#353=VECTOR('',#1431,10.);
#354=VECTOR('',#1432,10.);
#355=VECTOR('',#1433,10.);
#356=VECTOR('',#1436,10.);
#357=VECTOR('',#1437,10.);
#358=VECTOR('',#1440,10.);
#359=VECTOR('',#1447,10.);
#360=VECTOR('',#1450,10.);
#361=VECTOR('',#1453,10.);
#362=VECTOR('',#1454,10.);
#363=VECTOR('',#1455,10.);
#364=VECTOR('',#1458,10.);
#365=VECTOR('',#1459,10.);
#366=VECTOR('',#1462,10.);
#367=VECTOR('',#1469,10.);
#368=VECTOR('',#1472,10.);
#369=VECTOR('',#1475,10.);
#370=VECTOR('',#1476,10.);
#371=VECTOR('',#1477,10.);
#372=VECTOR('',#1480,10.);
#373=VECTOR('',#1481,10.);
#374=VECTOR('',#1484,10.);
#375=VECTOR('',#1491,10.);
#376=VECTOR('',#1494,10.);
#377=VECTOR('',#1497,10.);
#378=VECTOR('',#1498,10.);
#379=VECTOR('',#1499,10.);
#380=VECTOR('',#1502,10.);
#381=VECTOR('',#1503,10.);
#382=VECTOR('',#1506,10.);
#383=VECTOR('',#1511,2.);
#384=VECTOR('',#1518,2.);
#385=VECTOR('',#1525,2.);
#386=VECTOR('',#1532,2.);
#387=VECTOR('',#1539,10.);
#388=VECTOR('',#1540,10.);
#389=VECTOR('',#1543,10.);
#390=VECTOR('',#1544,10.);
#391=VECTOR('',#1547,10.);
#392=VECTOR('',#1548,10.);
#393=VECTOR('',#1551,10.);
#394=VECTOR('',#1552,10.);
#395=VECTOR('',#1555,10.);
#396=VECTOR('',#1556,10.);
#397=VECTOR('',#1557,10.);
#398=VECTOR('',#1560,10.);
#399=VECTOR('',#1561,10.);
#400=VECTOR('',#1562,10.);
#401=VECTOR('',#1563,10.);
#402=VECTOR('',#1566,10.);
#403=VECTOR('',#1569,10.);
#404=VECTOR('',#1572,10.);
#405=VECTOR('',#1575,10.);
#406=VECTOR('',#1578,10.);
#407=VECTOR('',#1579,10.);
#408=VECTOR('',#1582,10.);
#409=VECTOR('',#1585,10.);
#410=VECTOR('',#1588,10.);
#411=VECTOR('',#1593,10.);
#412=VECTOR('',#1594,10.);
#413=VECTOR('',#1597,10.);
#414=VECTOR('',#1600,10.);
#415=VECTOR('',#1601,10.);
#416=VECTOR('',#1604,10.);
#417=VECTOR('',#1607,10.);
#418=VECTOR('',#1610,10.);
#419=CIRCLE('',#1168,2.);
#420=CIRCLE('',#1169,2.);
#421=CIRCLE('',#1172,2.);
#422=CIRCLE('',#1173,2.);
#423=CIRCLE('',#1176,7.5);
#424=CIRCLE('',#1177,7.5);
#425=CIRCLE('',#1179,1.5);
#426=CIRCLE('',#1180,1.5);
#427=CIRCLE('',#1181,1.);
#428=CIRCLE('',#1182,1.);
#429=CIRCLE('',#1183,1.);
#430=CIRCLE('',#1184,1.);
#431=CIRCLE('',#1186,7.5);
#432=CIRCLE('',#1187,5.00000000000001);
#433=CIRCLE('',#1188,4.99999999999999);
#434=CIRCLE('',#1189,4.99999999999999);
#435=CIRCLE('',#1190,5.);
#436=CIRCLE('',#1191,7.49999999999999);
#437=CIRCLE('',#1192,7.50000000000001);
#438=CIRCLE('',#1194,7.5);
#439=CIRCLE('',#1196,1.);
#440=CIRCLE('',#1197,1.);
#441=CIRCLE('',#1200,7.49999999999999);
#442=CIRCLE('',#1202,7.50000000000001);
#443=CIRCLE('',#1205,1.5);
#444=CIRCLE('',#1207,1.5);
#445=CIRCLE('',#1209,1.);
#446=CIRCLE('',#1212,1.);
#447=CIRCLE('',#1216,2.);
#448=CIRCLE('',#1217,2.);
#449=CIRCLE('',#1220,5.);
#450=CIRCLE('',#1221,2.);
#451=CIRCLE('',#1223,2.);
#452=CIRCLE('',#1224,2.);
#453=CIRCLE('',#1227,4.99999999999999);
#454=CIRCLE('',#1228,2.);
#455=CIRCLE('',#1230,2.);
#456=CIRCLE('',#1231,2.);
#457=CIRCLE('',#1234,4.99999999999999);
#458=CIRCLE('',#1235,2.);
#459=CIRCLE('',#1237,2.);
#460=CIRCLE('',#1238,2.);
#461=CIRCLE('',#1241,5.00000000000001);
#462=CIRCLE('',#1242,2.);
#463=CIRCLE('',#1244,2.);
#464=CIRCLE('',#1247,2.);
#465=CIRCLE('',#1250,2.);
#466=CIRCLE('',#1253,2.);
#467=CIRCLE('',#1266,1.);
#468=CIRCLE('',#1267,1.);
#469=CIRCLE('',#1268,1.);
#470=CIRCLE('',#1269,1.);
#471=VERTEX_POINT('',#1623);
#472=VERTEX_POINT('',#1625);
#473=VERTEX_POINT('',#1630);
#474=VERTEX_POINT('',#1632);
#475=VERTEX_POINT('',#1637);
#476=VERTEX_POINT('',#1638);
#477=VERTEX_POINT('',#1640);
#478=VERTEX_POINT('',#1642);
#479=VERTEX_POINT('',#1646);
#480=VERTEX_POINT('',#1648);
#481=VERTEX_POINT('',#1651);
#482=VERTEX_POINT('',#1653);
#483=VERTEX_POINT('',#1655);
#484=VERTEX_POINT('',#1656);
#485=VERTEX_POINT('',#1658);
#486=VERTEX_POINT('',#1660);
#487=VERTEX_POINT('',#1662);
#488=VERTEX_POINT('',#1664);
#489=VERTEX_POINT('',#1666);
#490=VERTEX_POINT('',#1668);
#491=VERTEX_POINT('',#1672);
#492=VERTEX_POINT('',#1674);
#493=VERTEX_POINT('',#1676);
#494=VERTEX_POINT('',#1678);
#495=VERTEX_POINT('',#1680);
#496=VERTEX_POINT('',#1682);
#497=VERTEX_POINT('',#1684);
#498=VERTEX_POINT('',#1686);
#499=VERTEX_POINT('',#1688);
#500=VERTEX_POINT('',#1690);
#501=VERTEX_POINT('',#1692);
#502=VERTEX_POINT('',#1694);
#503=VERTEX_POINT('',#1696);
#504=VERTEX_POINT('',#1698);
#505=VERTEX_POINT('',#1700);
#506=VERTEX_POINT('',#1702);
#507=VERTEX_POINT('',#1704);
#508=VERTEX_POINT('',#1708);
#509=VERTEX_POINT('',#1709);
#510=VERTEX_POINT('',#1714);
#511=VERTEX_POINT('',#1717);
#512=VERTEX_POINT('',#1719);
#513=VERTEX_POINT('',#1721);
#514=VERTEX_POINT('',#1723);
#515=VERTEX_POINT('',#1729);
#516=VERTEX_POINT('',#1733);
#517=VERTEX_POINT('',#1739);
#518=VERTEX_POINT('',#1743);
#519=VERTEX_POINT('',#1747);
#520=VERTEX_POINT('',#1748);
#521=VERTEX_POINT('',#1753);
#522=VERTEX_POINT('',#1757);
#523=VERTEX_POINT('',#1765);
#524=VERTEX_POINT('',#1766);
#525=VERTEX_POINT('',#1768);
#526=VERTEX_POINT('',#1770);
#527=VERTEX_POINT('',#1774);
#528=VERTEX_POINT('',#1776);
#529=VERTEX_POINT('',#1780);
#530=VERTEX_POINT('',#1782);
#531=VERTEX_POINT('',#1784);
#532=VERTEX_POINT('',#1787);
#533=VERTEX_POINT('',#1790);
#534=VERTEX_POINT('',#1791);
#535=VERTEX_POINT('',#1793);
#536=VERTEX_POINT('',#1795);
#537=VERTEX_POINT('',#1799);
#538=VERTEX_POINT('',#1801);
#539=VERTEX_POINT('',#1805);
#540=VERTEX_POINT('',#1807);
#541=VERTEX_POINT('',#1809);
#542=VERTEX_POINT('',#1812);
#543=VERTEX_POINT('',#1815);
#544=VERTEX_POINT('',#1816);
#545=VERTEX_POINT('',#1818);
#546=VERTEX_POINT('',#1820);
#547=VERTEX_POINT('',#1824);
#548=VERTEX_POINT('',#1826);
#549=VERTEX_POINT('',#1830);
#550=VERTEX_POINT('',#1832);
#551=VERTEX_POINT('',#1834);
#552=VERTEX_POINT('',#1837);
#553=VERTEX_POINT('',#1840);
#554=VERTEX_POINT('',#1841);
#555=VERTEX_POINT('',#1843);
#556=VERTEX_POINT('',#1845);
#557=VERTEX_POINT('',#1849);
#558=VERTEX_POINT('',#1851);
#559=VERTEX_POINT('',#1855);
#560=VERTEX_POINT('',#1857);
#561=VERTEX_POINT('',#1859);
#562=VERTEX_POINT('',#1862);
#563=VERTEX_POINT('',#1865);
#564=VERTEX_POINT('',#1870);
#565=VERTEX_POINT('',#1875);
#566=VERTEX_POINT('',#1880);
#567=VERTEX_POINT('',#1885);
#568=VERTEX_POINT('',#1895);
#569=VERTEX_POINT('',#1903);
#570=VERTEX_POINT('',#1906);
#571=VERTEX_POINT('',#1919);
#572=VERTEX_POINT('',#1920);
#573=VERTEX_POINT('',#1922);
#574=VERTEX_POINT('',#1924);
#575=VERTEX_POINT('',#1926);
#576=VERTEX_POINT('',#1928);
#577=VERTEX_POINT('',#1930);
#578=VERTEX_POINT('',#1932);
#579=EDGE_CURVE('',#471,#471,#419,.T.);
#580=EDGE_CURVE('',#471,#472,#199,.T.);
#581=EDGE_CURVE('',#472,#472,#420,.T.);
#582=EDGE_CURVE('',#473,#473,#421,.T.);
#583=EDGE_CURVE('',#473,#474,#200,.T.);
#584=EDGE_CURVE('',#474,#474,#422,.T.);
#585=EDGE_CURVE('',#475,#476,#423,.T.);
#586=EDGE_CURVE('',#476,#477,#201,.T.);
#587=EDGE_CURVE('',#477,#478,#424,.T.);
#588=EDGE_CURVE('',#478,#475,#202,.T.);
#589=EDGE_CURVE('',#479,#478,#203,.T.);
#590=EDGE_CURVE('',#480,#479,#204,.T.);
#591=EDGE_CURVE('',#475,#480,#205,.T.);
#592=EDGE_CURVE('',#481,#481,#425,.T.);
#593=EDGE_CURVE('',#482,#482,#426,.T.);
#594=EDGE_CURVE('',#483,#484,#206,.T.);
#595=EDGE_CURVE('',#485,#484,#427,.T.);
#596=EDGE_CURVE('',#485,#486,#207,.T.);
#597=EDGE_CURVE('',#487,#486,#428,.T.);
#598=EDGE_CURVE('',#487,#488,#208,.T.);
#599=EDGE_CURVE('',#489,#488,#429,.T.);
#600=EDGE_CURVE('',#489,#490,#209,.T.);
#601=EDGE_CURVE('',#483,#490,#430,.T.);
#602=EDGE_CURVE('',#477,#491,#210,.T.);
#603=EDGE_CURVE('',#492,#491,#431,.T.);
#604=EDGE_CURVE('',#492,#493,#211,.T.);
#605=EDGE_CURVE('',#493,#494,#212,.T.);
#606=EDGE_CURVE('',#494,#495,#213,.T.);
#607=EDGE_CURVE('',#495,#496,#432,.T.);
#608=EDGE_CURVE('',#496,#497,#214,.T.);
#609=EDGE_CURVE('',#497,#498,#433,.T.);
#610=EDGE_CURVE('',#498,#499,#215,.T.);
#611=EDGE_CURVE('',#499,#500,#434,.T.);
#612=EDGE_CURVE('',#500,#501,#216,.T.);
#613=EDGE_CURVE('',#501,#502,#435,.T.);
#614=EDGE_CURVE('',#502,#503,#217,.T.);
#615=EDGE_CURVE('',#503,#504,#218,.T.);
#616=EDGE_CURVE('',#504,#505,#219,.T.);
#617=EDGE_CURVE('',#506,#505,#436,.T.);
#618=EDGE_CURVE('',#506,#507,#220,.T.);
#619=EDGE_CURVE('',#479,#507,#437,.T.);
#620=EDGE_CURVE('',#508,#509,#438,.T.);
#621=EDGE_CURVE('',#509,#492,#221,.T.);
#622=EDGE_CURVE('',#491,#508,#222,.T.);
#623=EDGE_CURVE('',#510,#509,#223,.T.);
#624=EDGE_CURVE('',#505,#510,#224,.T.);
#625=EDGE_CURVE('',#504,#511,#225,.T.);
#626=EDGE_CURVE('',#512,#511,#439,.T.);
#627=EDGE_CURVE('',#512,#513,#226,.T.);
#628=EDGE_CURVE('',#514,#513,#440,.T.);
#629=EDGE_CURVE('',#514,#493,#227,.T.);
#630=EDGE_CURVE('',#508,#476,#228,.T.);
#631=EDGE_CURVE('',#510,#515,#441,.T.);
#632=EDGE_CURVE('',#515,#506,#229,.T.);
#633=EDGE_CURVE('',#516,#480,#442,.T.);
#634=EDGE_CURVE('',#507,#516,#230,.T.);
#635=EDGE_CURVE('',#516,#515,#231,.T.);
#636=EDGE_CURVE('',#517,#517,#443,.T.);
#637=EDGE_CURVE('',#517,#481,#232,.T.);
#638=EDGE_CURVE('',#518,#518,#444,.T.);
#639=EDGE_CURVE('',#518,#482,#233,.T.);
#640=EDGE_CURVE('',#519,#520,#445,.T.);
#641=EDGE_CURVE('',#520,#512,#234,.T.);
#642=EDGE_CURVE('',#511,#519,#235,.T.);
#643=EDGE_CURVE('',#521,#520,#236,.T.);
#644=EDGE_CURVE('',#513,#521,#237,.T.);
#645=EDGE_CURVE('',#521,#522,#446,.T.);
#646=EDGE_CURVE('',#522,#514,#238,.T.);
#647=EDGE_CURVE('',#494,#522,#239,.T.);
#648=EDGE_CURVE('',#519,#503,#240,.T.);
#649=EDGE_CURVE('',#523,#524,#447,.T.);
#650=EDGE_CURVE('',#524,#525,#241,.T.);
#651=EDGE_CURVE('',#525,#526,#448,.F.);
#652=EDGE_CURVE('',#526,#523,#242,.T.);
#653=EDGE_CURVE('',#527,#524,#243,.T.);
#654=EDGE_CURVE('',#528,#527,#244,.T.);
#655=EDGE_CURVE('',#525,#528,#245,.T.);
#656=EDGE_CURVE('',#523,#529,#246,.T.);
#657=EDGE_CURVE('',#530,#529,#247,.T.);
#658=EDGE_CURVE('',#531,#530,#449,.T.);
#659=EDGE_CURVE('',#527,#531,#248,.T.);
#660=EDGE_CURVE('',#532,#532,#450,.T.);
#661=EDGE_CURVE('',#533,#534,#451,.T.);
#662=EDGE_CURVE('',#534,#535,#249,.T.);
#663=EDGE_CURVE('',#535,#536,#452,.F.);
#664=EDGE_CURVE('',#536,#533,#250,.T.);
#665=EDGE_CURVE('',#537,#534,#251,.T.);
#666=EDGE_CURVE('',#538,#537,#252,.T.);
#667=EDGE_CURVE('',#535,#538,#253,.T.);
#668=EDGE_CURVE('',#533,#539,#254,.T.);
#669=EDGE_CURVE('',#540,#539,#255,.T.);
#670=EDGE_CURVE('',#541,#540,#453,.T.);
#671=EDGE_CURVE('',#537,#541,#256,.T.);
#672=EDGE_CURVE('',#542,#542,#454,.T.);
#673=EDGE_CURVE('',#543,#544,#455,.T.);
#674=EDGE_CURVE('',#544,#545,#257,.T.);
#675=EDGE_CURVE('',#545,#546,#456,.F.);
#676=EDGE_CURVE('',#546,#543,#258,.T.);
#677=EDGE_CURVE('',#547,#544,#259,.T.);
#678=EDGE_CURVE('',#548,#547,#260,.T.);
#679=EDGE_CURVE('',#545,#548,#261,.T.);
#680=EDGE_CURVE('',#543,#549,#262,.T.);
#681=EDGE_CURVE('',#550,#549,#263,.T.);
#682=EDGE_CURVE('',#551,#550,#457,.T.);
#683=EDGE_CURVE('',#547,#551,#264,.T.);
#684=EDGE_CURVE('',#552,#552,#458,.T.);
#685=EDGE_CURVE('',#553,#554,#459,.T.);
#686=EDGE_CURVE('',#554,#555,#265,.T.);
#687=EDGE_CURVE('',#555,#556,#460,.F.);
#688=EDGE_CURVE('',#556,#553,#266,.T.);
#689=EDGE_CURVE('',#557,#554,#267,.T.);
#690=EDGE_CURVE('',#558,#557,#268,.T.);
#691=EDGE_CURVE('',#555,#558,#269,.T.);
#692=EDGE_CURVE('',#553,#559,#270,.T.);
#693=EDGE_CURVE('',#560,#559,#271,.T.);
#694=EDGE_CURVE('',#561,#560,#461,.T.);
#695=EDGE_CURVE('',#557,#561,#272,.T.);
#696=EDGE_CURVE('',#562,#562,#462,.T.);
#697=EDGE_CURVE('',#562,#563,#273,.T.);
#698=EDGE_CURVE('',#563,#563,#463,.T.);
#699=EDGE_CURVE('',#532,#564,#274,.T.);
#700=EDGE_CURVE('',#564,#564,#464,.T.);
#701=EDGE_CURVE('',#542,#565,#275,.T.);
#702=EDGE_CURVE('',#565,#565,#465,.T.);
#703=EDGE_CURVE('',#552,#566,#276,.T.);
#704=EDGE_CURVE('',#566,#566,#466,.T.);
#705=EDGE_CURVE('',#567,#526,#277,.T.);
#706=EDGE_CURVE('',#529,#567,#278,.T.);
#707=EDGE_CURVE('',#530,#502,#279,.T.);
#708=EDGE_CURVE('',#531,#501,#280,.T.);
#709=EDGE_CURVE('',#558,#567,#281,.T.);
#710=EDGE_CURVE('',#561,#495,#282,.T.);
#711=EDGE_CURVE('',#568,#556,#283,.T.);
#712=EDGE_CURVE('',#559,#568,#284,.T.);
#713=EDGE_CURVE('',#548,#568,#285,.T.);
#714=EDGE_CURVE('',#551,#497,#286,.T.);
#715=EDGE_CURVE('',#560,#496,#287,.T.);
#716=EDGE_CURVE('',#528,#569,#288,.T.);
#717=EDGE_CURVE('',#569,#536,#289,.T.);
#718=EDGE_CURVE('',#538,#570,#290,.T.);
#719=EDGE_CURVE('',#570,#546,#291,.T.);
#720=EDGE_CURVE('',#539,#569,#292,.T.);
#721=EDGE_CURVE('',#540,#500,#293,.T.);
#722=EDGE_CURVE('',#549,#570,#294,.T.);
#723=EDGE_CURVE('',#550,#498,#295,.T.);
#724=EDGE_CURVE('',#541,#499,#296,.T.);
#725=EDGE_CURVE('',#571,#572,#297,.T.);
#726=EDGE_CURVE('',#573,#572,#467,.T.);
#727=EDGE_CURVE('',#573,#574,#298,.T.);
#728=EDGE_CURVE('',#575,#574,#468,.T.);
#729=EDGE_CURVE('',#575,#576,#299,.T.);
#730=EDGE_CURVE('',#577,#576,#469,.T.);
#731=EDGE_CURVE('',#577,#578,#300,.T.);
#732=EDGE_CURVE('',#571,#578,#470,.T.);
#733=EDGE_CURVE('',#576,#487,#301,.T.);
#734=EDGE_CURVE('',#486,#577,#302,.T.);
#735=EDGE_CURVE('',#488,#575,#303,.T.);
#736=EDGE_CURVE('',#484,#571,#304,.T.);
#737=EDGE_CURVE('',#578,#485,#305,.T.);
#738=EDGE_CURVE('',#572,#483,#306,.T.);
#739=EDGE_CURVE('',#574,#489,#307,.T.);
#740=EDGE_CURVE('',#490,#573,#308,.T.);
#741=ORIENTED_EDGE('',*,*,#579,.F.);
#742=ORIENTED_EDGE('',*,*,#580,.T.);
#743=ORIENTED_EDGE('',*,*,#581,.T.);
#744=ORIENTED_EDGE('',*,*,#580,.F.);
#745=ORIENTED_EDGE('',*,*,#581,.F.);
#746=ORIENTED_EDGE('',*,*,#582,.F.);
#747=ORIENTED_EDGE('',*,*,#583,.T.);
#748=ORIENTED_EDGE('',*,*,#584,.T.);
#749=ORIENTED_EDGE('',*,*,#583,.F.);
#750=ORIENTED_EDGE('',*,*,#584,.F.);
#751=ORIENTED_EDGE('',*,*,#585,.T.);
#752=ORIENTED_EDGE('',*,*,#586,.T.);
#753=ORIENTED_EDGE('',*,*,#587,.T.);
#754=ORIENTED_EDGE('',*,*,#588,.T.);
#755=ORIENTED_EDGE('',*,*,#588,.F.);
#756=ORIENTED_EDGE('',*,*,#589,.F.);
#757=ORIENTED_EDGE('',*,*,#590,.F.);
#758=ORIENTED_EDGE('',*,*,#591,.F.);
#759=ORIENTED_EDGE('',*,*,#592,.T.);
#760=ORIENTED_EDGE('',*,*,#593,.T.);
#761=ORIENTED_EDGE('',*,*,#594,.T.);
#762=ORIENTED_EDGE('',*,*,#595,.F.);
#763=ORIENTED_EDGE('',*,*,#596,.T.);
#764=ORIENTED_EDGE('',*,*,#597,.F.);
#765=ORIENTED_EDGE('',*,*,#598,.T.);
#766=ORIENTED_EDGE('',*,*,#599,.F.);
#767=ORIENTED_EDGE('',*,*,#600,.T.);
#768=ORIENTED_EDGE('',*,*,#601,.F.);
#769=ORIENTED_EDGE('',*,*,#587,.F.);
#770=ORIENTED_EDGE('',*,*,#602,.T.);
#771=ORIENTED_EDGE('',*,*,#603,.F.);
#772=ORIENTED_EDGE('',*,*,#604,.T.);
#773=ORIENTED_EDGE('',*,*,#605,.T.);
#774=ORIENTED_EDGE('',*,*,#606,.T.);
#775=ORIENTED_EDGE('',*,*,#607,.T.);
#776=ORIENTED_EDGE('',*,*,#608,.T.);
#777=ORIENTED_EDGE('',*,*,#609,.T.);
#778=ORIENTED_EDGE('',*,*,#610,.T.);
#779=ORIENTED_EDGE('',*,*,#611,.T.);
#780=ORIENTED_EDGE('',*,*,#612,.T.);
#781=ORIENTED_EDGE('',*,*,#613,.T.);
#782=ORIENTED_EDGE('',*,*,#614,.T.);
#783=ORIENTED_EDGE('',*,*,#615,.T.);
#784=ORIENTED_EDGE('',*,*,#616,.T.);
#785=ORIENTED_EDGE('',*,*,#617,.F.);
#786=ORIENTED_EDGE('',*,*,#618,.T.);
#787=ORIENTED_EDGE('',*,*,#619,.F.);
#788=ORIENTED_EDGE('',*,*,#589,.T.);
#789=ORIENTED_EDGE('',*,*,#579,.T.);
#790=ORIENTED_EDGE('',*,*,#582,.T.);
#791=ORIENTED_EDGE('',*,*,#620,.T.);
#792=ORIENTED_EDGE('',*,*,#621,.T.);
#793=ORIENTED_EDGE('',*,*,#603,.T.);
#794=ORIENTED_EDGE('',*,*,#622,.T.);
#795=ORIENTED_EDGE('',*,*,#621,.F.);
#796=ORIENTED_EDGE('',*,*,#623,.F.);
#797=ORIENTED_EDGE('',*,*,#624,.F.);
#798=ORIENTED_EDGE('',*,*,#616,.F.);
#799=ORIENTED_EDGE('',*,*,#625,.T.);
#800=ORIENTED_EDGE('',*,*,#626,.F.);
#801=ORIENTED_EDGE('',*,*,#627,.T.);
#802=ORIENTED_EDGE('',*,*,#628,.F.);
#803=ORIENTED_EDGE('',*,*,#629,.T.);
#804=ORIENTED_EDGE('',*,*,#604,.F.);
#805=ORIENTED_EDGE('',*,*,#586,.F.);
#806=ORIENTED_EDGE('',*,*,#630,.F.);
#807=ORIENTED_EDGE('',*,*,#622,.F.);
#808=ORIENTED_EDGE('',*,*,#602,.F.);
#809=ORIENTED_EDGE('',*,*,#631,.T.);
#810=ORIENTED_EDGE('',*,*,#632,.T.);
#811=ORIENTED_EDGE('',*,*,#617,.T.);
#812=ORIENTED_EDGE('',*,*,#624,.T.);
#813=ORIENTED_EDGE('',*,*,#633,.T.);
#814=ORIENTED_EDGE('',*,*,#590,.T.);
#815=ORIENTED_EDGE('',*,*,#619,.T.);
#816=ORIENTED_EDGE('',*,*,#634,.T.);
#817=ORIENTED_EDGE('',*,*,#632,.F.);
#818=ORIENTED_EDGE('',*,*,#635,.F.);
#819=ORIENTED_EDGE('',*,*,#634,.F.);
#820=ORIENTED_EDGE('',*,*,#618,.F.);
#821=ORIENTED_EDGE('',*,*,#636,.F.);
#822=ORIENTED_EDGE('',*,*,#637,.T.);
#823=ORIENTED_EDGE('',*,*,#592,.F.);
#824=ORIENTED_EDGE('',*,*,#637,.F.);
#825=ORIENTED_EDGE('',*,*,#638,.F.);
#826=ORIENTED_EDGE('',*,*,#639,.T.);
#827=ORIENTED_EDGE('',*,*,#593,.F.);
#828=ORIENTED_EDGE('',*,*,#639,.F.);
#829=ORIENTED_EDGE('',*,*,#640,.T.);
#830=ORIENTED_EDGE('',*,*,#641,.T.);
#831=ORIENTED_EDGE('',*,*,#626,.T.);
#832=ORIENTED_EDGE('',*,*,#642,.T.);
#833=ORIENTED_EDGE('',*,*,#641,.F.);
#834=ORIENTED_EDGE('',*,*,#643,.F.);
#835=ORIENTED_EDGE('',*,*,#644,.F.);
#836=ORIENTED_EDGE('',*,*,#627,.F.);
#837=ORIENTED_EDGE('',*,*,#645,.T.);
#838=ORIENTED_EDGE('',*,*,#646,.T.);
#839=ORIENTED_EDGE('',*,*,#628,.T.);
#840=ORIENTED_EDGE('',*,*,#644,.T.);
#841=ORIENTED_EDGE('',*,*,#646,.F.);
#842=ORIENTED_EDGE('',*,*,#647,.F.);
#843=ORIENTED_EDGE('',*,*,#605,.F.);
#844=ORIENTED_EDGE('',*,*,#629,.F.);
#845=ORIENTED_EDGE('',*,*,#642,.F.);
#846=ORIENTED_EDGE('',*,*,#625,.F.);
#847=ORIENTED_EDGE('',*,*,#615,.F.);
#848=ORIENTED_EDGE('',*,*,#648,.F.);
#849=ORIENTED_EDGE('',*,*,#649,.T.);
#850=ORIENTED_EDGE('',*,*,#650,.T.);
#851=ORIENTED_EDGE('',*,*,#651,.T.);
#852=ORIENTED_EDGE('',*,*,#652,.T.);
#853=ORIENTED_EDGE('',*,*,#650,.F.);
#854=ORIENTED_EDGE('',*,*,#653,.F.);
#855=ORIENTED_EDGE('',*,*,#654,.F.);
#856=ORIENTED_EDGE('',*,*,#655,.F.);
#857=ORIENTED_EDGE('',*,*,#649,.F.);
#858=ORIENTED_EDGE('',*,*,#656,.T.);
#859=ORIENTED_EDGE('',*,*,#657,.F.);
#860=ORIENTED_EDGE('',*,*,#658,.F.);
#861=ORIENTED_EDGE('',*,*,#659,.F.);
#862=ORIENTED_EDGE('',*,*,#653,.T.);
#863=ORIENTED_EDGE('',*,*,#660,.T.);
#864=ORIENTED_EDGE('',*,*,#661,.T.);
#865=ORIENTED_EDGE('',*,*,#662,.T.);
#866=ORIENTED_EDGE('',*,*,#663,.T.);
#867=ORIENTED_EDGE('',*,*,#664,.T.);
#868=ORIENTED_EDGE('',*,*,#662,.F.);
#869=ORIENTED_EDGE('',*,*,#665,.F.);
#870=ORIENTED_EDGE('',*,*,#666,.F.);
#871=ORIENTED_EDGE('',*,*,#667,.F.);
#872=ORIENTED_EDGE('',*,*,#661,.F.);
#873=ORIENTED_EDGE('',*,*,#668,.T.);
#874=ORIENTED_EDGE('',*,*,#669,.F.);
#875=ORIENTED_EDGE('',*,*,#670,.F.);
#876=ORIENTED_EDGE('',*,*,#671,.F.);
#877=ORIENTED_EDGE('',*,*,#665,.T.);
#878=ORIENTED_EDGE('',*,*,#672,.T.);
#879=ORIENTED_EDGE('',*,*,#673,.T.);
#880=ORIENTED_EDGE('',*,*,#674,.T.);
#881=ORIENTED_EDGE('',*,*,#675,.T.);
#882=ORIENTED_EDGE('',*,*,#676,.T.);
#883=ORIENTED_EDGE('',*,*,#674,.F.);
#884=ORIENTED_EDGE('',*,*,#677,.F.);
#885=ORIENTED_EDGE('',*,*,#678,.F.);
#886=ORIENTED_EDGE('',*,*,#679,.F.);
#887=ORIENTED_EDGE('',*,*,#673,.F.);
#888=ORIENTED_EDGE('',*,*,#680,.T.);
#889=ORIENTED_EDGE('',*,*,#681,.F.);
#890=ORIENTED_EDGE('',*,*,#682,.F.);
#891=ORIENTED_EDGE('',*,*,#683,.F.);
#892=ORIENTED_EDGE('',*,*,#677,.T.);
#893=ORIENTED_EDGE('',*,*,#684,.T.);
#894=ORIENTED_EDGE('',*,*,#685,.T.);
#895=ORIENTED_EDGE('',*,*,#686,.T.);
#896=ORIENTED_EDGE('',*,*,#687,.T.);
#897=ORIENTED_EDGE('',*,*,#688,.T.);
#898=ORIENTED_EDGE('',*,*,#686,.F.);
#899=ORIENTED_EDGE('',*,*,#689,.F.);
#900=ORIENTED_EDGE('',*,*,#690,.F.);
#901=ORIENTED_EDGE('',*,*,#691,.F.);
#902=ORIENTED_EDGE('',*,*,#685,.F.);
#903=ORIENTED_EDGE('',*,*,#692,.T.);
#904=ORIENTED_EDGE('',*,*,#693,.F.);
#905=ORIENTED_EDGE('',*,*,#694,.F.);
#906=ORIENTED_EDGE('',*,*,#695,.F.);
#907=ORIENTED_EDGE('',*,*,#689,.T.);
#908=ORIENTED_EDGE('',*,*,#696,.T.);
#909=ORIENTED_EDGE('',*,*,#696,.F.);
#910=ORIENTED_EDGE('',*,*,#697,.T.);
#911=ORIENTED_EDGE('',*,*,#698,.T.);
#912=ORIENTED_EDGE('',*,*,#697,.F.);
#913=ORIENTED_EDGE('',*,*,#698,.F.);
#914=ORIENTED_EDGE('',*,*,#660,.F.);
#915=ORIENTED_EDGE('',*,*,#699,.T.);
#916=ORIENTED_EDGE('',*,*,#700,.T.);
#917=ORIENTED_EDGE('',*,*,#699,.F.);
#918=ORIENTED_EDGE('',*,*,#700,.F.);
#919=ORIENTED_EDGE('',*,*,#672,.F.);
#920=ORIENTED_EDGE('',*,*,#701,.T.);
#921=ORIENTED_EDGE('',*,*,#702,.T.);
#922=ORIENTED_EDGE('',*,*,#701,.F.);
#923=ORIENTED_EDGE('',*,*,#702,.F.);
#924=ORIENTED_EDGE('',*,*,#684,.F.);
#925=ORIENTED_EDGE('',*,*,#703,.T.);
#926=ORIENTED_EDGE('',*,*,#704,.T.);
#927=ORIENTED_EDGE('',*,*,#703,.F.);
#928=ORIENTED_EDGE('',*,*,#704,.F.);
#929=ORIENTED_EDGE('',*,*,#652,.F.);
#930=ORIENTED_EDGE('',*,*,#705,.F.);
#931=ORIENTED_EDGE('',*,*,#706,.F.);
#932=ORIENTED_EDGE('',*,*,#656,.F.);
#933=ORIENTED_EDGE('',*,*,#658,.T.);
#934=ORIENTED_EDGE('',*,*,#707,.T.);
#935=ORIENTED_EDGE('',*,*,#613,.F.);
#936=ORIENTED_EDGE('',*,*,#708,.F.);
#937=ORIENTED_EDGE('',*,*,#648,.T.);
#938=ORIENTED_EDGE('',*,*,#614,.F.);
#939=ORIENTED_EDGE('',*,*,#707,.F.);
#940=ORIENTED_EDGE('',*,*,#657,.T.);
#941=ORIENTED_EDGE('',*,*,#706,.T.);
#942=ORIENTED_EDGE('',*,*,#709,.F.);
#943=ORIENTED_EDGE('',*,*,#690,.T.);
#944=ORIENTED_EDGE('',*,*,#695,.T.);
#945=ORIENTED_EDGE('',*,*,#710,.T.);
#946=ORIENTED_EDGE('',*,*,#606,.F.);
#947=ORIENTED_EDGE('',*,*,#647,.T.);
#948=ORIENTED_EDGE('',*,*,#645,.F.);
#949=ORIENTED_EDGE('',*,*,#643,.T.);
#950=ORIENTED_EDGE('',*,*,#640,.F.);
#951=ORIENTED_EDGE('',*,*,#688,.F.);
#952=ORIENTED_EDGE('',*,*,#711,.F.);
#953=ORIENTED_EDGE('',*,*,#712,.F.);
#954=ORIENTED_EDGE('',*,*,#692,.F.);
#955=ORIENTED_EDGE('',*,*,#693,.T.);
#956=ORIENTED_EDGE('',*,*,#712,.T.);
#957=ORIENTED_EDGE('',*,*,#713,.F.);
#958=ORIENTED_EDGE('',*,*,#678,.T.);
#959=ORIENTED_EDGE('',*,*,#683,.T.);
#960=ORIENTED_EDGE('',*,*,#714,.T.);
#961=ORIENTED_EDGE('',*,*,#608,.F.);
#962=ORIENTED_EDGE('',*,*,#715,.F.);
#963=ORIENTED_EDGE('',*,*,#655,.T.);
#964=ORIENTED_EDGE('',*,*,#716,.T.);
#965=ORIENTED_EDGE('',*,*,#717,.T.);
#966=ORIENTED_EDGE('',*,*,#663,.F.);
#967=ORIENTED_EDGE('',*,*,#667,.T.);
#968=ORIENTED_EDGE('',*,*,#718,.T.);
#969=ORIENTED_EDGE('',*,*,#719,.T.);
#970=ORIENTED_EDGE('',*,*,#675,.F.);
#971=ORIENTED_EDGE('',*,*,#679,.T.);
#972=ORIENTED_EDGE('',*,*,#713,.T.);
#973=ORIENTED_EDGE('',*,*,#711,.T.);
#974=ORIENTED_EDGE('',*,*,#687,.F.);
#975=ORIENTED_EDGE('',*,*,#691,.T.);
#976=ORIENTED_EDGE('',*,*,#709,.T.);
#977=ORIENTED_EDGE('',*,*,#705,.T.);
#978=ORIENTED_EDGE('',*,*,#651,.F.);
#979=ORIENTED_EDGE('',*,*,#664,.F.);
#980=ORIENTED_EDGE('',*,*,#717,.F.);
#981=ORIENTED_EDGE('',*,*,#720,.F.);
#982=ORIENTED_EDGE('',*,*,#668,.F.);
#983=ORIENTED_EDGE('',*,*,#659,.T.);
#984=ORIENTED_EDGE('',*,*,#708,.T.);
#985=ORIENTED_EDGE('',*,*,#612,.F.);
#986=ORIENTED_EDGE('',*,*,#721,.F.);
#987=ORIENTED_EDGE('',*,*,#669,.T.);
#988=ORIENTED_EDGE('',*,*,#720,.T.);
#989=ORIENTED_EDGE('',*,*,#716,.F.);
#990=ORIENTED_EDGE('',*,*,#654,.T.);
#991=ORIENTED_EDGE('',*,*,#676,.F.);
#992=ORIENTED_EDGE('',*,*,#719,.F.);
#993=ORIENTED_EDGE('',*,*,#722,.F.);
#994=ORIENTED_EDGE('',*,*,#680,.F.);
#995=ORIENTED_EDGE('',*,*,#682,.T.);
#996=ORIENTED_EDGE('',*,*,#723,.T.);
#997=ORIENTED_EDGE('',*,*,#609,.F.);
#998=ORIENTED_EDGE('',*,*,#714,.F.);
#999=ORIENTED_EDGE('',*,*,#671,.T.);
#1000=ORIENTED_EDGE('',*,*,#724,.T.);
#1001=ORIENTED_EDGE('',*,*,#610,.F.);
#1002=ORIENTED_EDGE('',*,*,#723,.F.);
#1003=ORIENTED_EDGE('',*,*,#681,.T.);
#1004=ORIENTED_EDGE('',*,*,#722,.T.);
#1005=ORIENTED_EDGE('',*,*,#718,.F.);
#1006=ORIENTED_EDGE('',*,*,#666,.T.);
#1007=ORIENTED_EDGE('',*,*,#636,.T.);
#1008=ORIENTED_EDGE('',*,*,#638,.T.);
#1009=ORIENTED_EDGE('',*,*,#725,.T.);
#1010=ORIENTED_EDGE('',*,*,#726,.F.);
#1011=ORIENTED_EDGE('',*,*,#727,.T.);
#1012=ORIENTED_EDGE('',*,*,#728,.F.);
#1013=ORIENTED_EDGE('',*,*,#729,.T.);
#1014=ORIENTED_EDGE('',*,*,#730,.F.);
#1015=ORIENTED_EDGE('',*,*,#731,.T.);
#1016=ORIENTED_EDGE('',*,*,#732,.F.);
#1017=ORIENTED_EDGE('',*,*,#730,.T.);
#1018=ORIENTED_EDGE('',*,*,#733,.T.);
#1019=ORIENTED_EDGE('',*,*,#597,.T.);
#1020=ORIENTED_EDGE('',*,*,#734,.T.);
#1021=ORIENTED_EDGE('',*,*,#733,.F.);
#1022=ORIENTED_EDGE('',*,*,#729,.F.);
#1023=ORIENTED_EDGE('',*,*,#735,.F.);
#1024=ORIENTED_EDGE('',*,*,#598,.F.);
#1025=ORIENTED_EDGE('',*,*,#595,.T.);
#1026=ORIENTED_EDGE('',*,*,#736,.T.);
#1027=ORIENTED_EDGE('',*,*,#732,.T.);
#1028=ORIENTED_EDGE('',*,*,#737,.T.);
#1029=ORIENTED_EDGE('',*,*,#736,.F.);
#1030=ORIENTED_EDGE('',*,*,#594,.F.);
#1031=ORIENTED_EDGE('',*,*,#738,.F.);
#1032=ORIENTED_EDGE('',*,*,#725,.F.);
#1033=ORIENTED_EDGE('',*,*,#599,.T.);
#1034=ORIENTED_EDGE('',*,*,#735,.T.);
#1035=ORIENTED_EDGE('',*,*,#728,.T.);
#1036=ORIENTED_EDGE('',*,*,#739,.T.);
#1037=ORIENTED_EDGE('',*,*,#726,.T.);
#1038=ORIENTED_EDGE('',*,*,#738,.T.);
#1039=ORIENTED_EDGE('',*,*,#601,.T.);
#1040=ORIENTED_EDGE('',*,*,#740,.T.);
#1041=ORIENTED_EDGE('',*,*,#734,.F.);
#1042=ORIENTED_EDGE('',*,*,#596,.F.);
#1043=ORIENTED_EDGE('',*,*,#737,.F.);
#1044=ORIENTED_EDGE('',*,*,#731,.F.);
#1045=ORIENTED_EDGE('',*,*,#739,.F.);
#1046=ORIENTED_EDGE('',*,*,#727,.F.);
#1047=ORIENTED_EDGE('',*,*,#740,.F.);
#1048=ORIENTED_EDGE('',*,*,#600,.F.);
#1049=ORIENTED_EDGE('',*,*,#694,.T.);
#1050=ORIENTED_EDGE('',*,*,#715,.T.);
#1051=ORIENTED_EDGE('',*,*,#607,.F.);
#1052=ORIENTED_EDGE('',*,*,#710,.F.);
#1053=ORIENTED_EDGE('',*,*,#670,.T.);
#1054=ORIENTED_EDGE('',*,*,#721,.T.);
#1055=ORIENTED_EDGE('',*,*,#611,.F.);
#1056=ORIENTED_EDGE('',*,*,#724,.F.);
#1057=ORIENTED_EDGE('',*,*,#585,.F.);
#1058=ORIENTED_EDGE('',*,*,#591,.T.);
#1059=ORIENTED_EDGE('',*,*,#633,.F.);
#1060=ORIENTED_EDGE('',*,*,#635,.T.);
#1061=ORIENTED_EDGE('',*,*,#631,.F.);
#1062=ORIENTED_EDGE('',*,*,#623,.T.);
#1063=ORIENTED_EDGE('',*,*,#620,.F.);
#1064=ORIENTED_EDGE('',*,*,#630,.T.);
#1065=CYLINDRICAL_SURFACE('',#1167,2.);
#1066=CYLINDRICAL_SURFACE('',#1171,2.);
#1067=CYLINDRICAL_SURFACE('',#1175,7.5);
#1068=CYLINDRICAL_SURFACE('',#1193,7.5);
#1069=CYLINDRICAL_SURFACE('',#1199,7.49999999999999);
#1070=CYLINDRICAL_SURFACE('',#1201,7.50000000000001);
#1071=CYLINDRICAL_SURFACE('',#1204,1.5);
#1072=CYLINDRICAL_SURFACE('',#1206,1.5);
#1073=CYLINDRICAL_SURFACE('',#1208,1.);
#1074=CYLINDRICAL_SURFACE('',#1211,1.);
#1075=CYLINDRICAL_SURFACE('',#1215,2.);
#1076=CYLINDRICAL_SURFACE('',#1222,2.);
#1077=CYLINDRICAL_SURFACE('',#1229,2.);
#1078=CYLINDRICAL_SURFACE('',#1236,2.);
#1079=CYLINDRICAL_SURFACE('',#1243,2.);
#1080=CYLINDRICAL_SURFACE('',#1246,2.);
#1081=CYLINDRICAL_SURFACE('',#1249,2.);
#1082=CYLINDRICAL_SURFACE('',#1252,2.);
#1083=CYLINDRICAL_SURFACE('',#1256,5.);
#1084=CYLINDRICAL_SURFACE('',#1264,4.99999999999999);
#1085=CYLINDRICAL_SURFACE('',#1270,1.);
#1086=CYLINDRICAL_SURFACE('',#1272,1.);
#1087=CYLINDRICAL_SURFACE('',#1274,1.);
#1088=CYLINDRICAL_SURFACE('',#1275,1.);
#1089=CYLINDRICAL_SURFACE('',#1278,5.00000000000001);
#1090=CYLINDRICAL_SURFACE('',#1279,4.99999999999999);
#1091=ADVANCED_FACE('',(#63),#1065,.F.);
#1092=ADVANCED_FACE('',(#64),#27,.F.);
#1093=ADVANCED_FACE('',(#65),#1066,.F.);
#1094=ADVANCED_FACE('',(#66),#28,.F.);
#1095=ADVANCED_FACE('',(#67),#1067,.T.);
#1096=ADVANCED_FACE('',(#68,#15,#16,#17),#29,.T.);
#1097=ADVANCED_FACE('',(#69,#18,#19),#30,.T.);
#1098=ADVANCED_FACE('',(#70),#1068,.T.);
#1099=ADVANCED_FACE('',(#71),#31,.T.);
#1100=ADVANCED_FACE('',(#72),#32,.T.);
#1101=ADVANCED_FACE('',(#73),#1069,.T.);
#1102=ADVANCED_FACE('',(#74),#1070,.T.);
#1103=ADVANCED_FACE('',(#75),#33,.T.);
#1104=ADVANCED_FACE('',(#76),#1071,.F.);
#1105=ADVANCED_FACE('',(#77),#1072,.F.);
#1106=ADVANCED_FACE('',(#78),#1073,.F.);
#1107=ADVANCED_FACE('',(#79),#34,.T.);
#1108=ADVANCED_FACE('',(#80),#1074,.F.);
#1109=ADVANCED_FACE('',(#81),#35,.T.);
#1110=ADVANCED_FACE('',(#82),#36,.T.);
#1111=ADVANCED_FACE('',(#83),#1075,.T.);
#1112=ADVANCED_FACE('',(#84),#37,.F.);
#1113=ADVANCED_FACE('',(#85,#20),#38,.T.);
#1114=ADVANCED_FACE('',(#86),#1076,.T.);
#1115=ADVANCED_FACE('',(#87),#39,.F.);
#1116=ADVANCED_FACE('',(#88,#21),#40,.T.);
#1117=ADVANCED_FACE('',(#89),#1077,.T.);
#1118=ADVANCED_FACE('',(#90),#41,.F.);
#1119=ADVANCED_FACE('',(#91,#22),#42,.T.);
#1120=ADVANCED_FACE('',(#92),#1078,.T.);
#1121=ADVANCED_FACE('',(#93),#43,.F.);
#1122=ADVANCED_FACE('',(#94,#23),#44,.T.);
#1123=ADVANCED_FACE('',(#95),#1079,.F.);
#1124=ADVANCED_FACE('',(#96),#45,.F.);
#1125=ADVANCED_FACE('',(#97),#1080,.F.);
#1126=ADVANCED_FACE('',(#98),#46,.F.);
#1127=ADVANCED_FACE('',(#99),#1081,.F.);
#1128=ADVANCED_FACE('',(#100),#47,.F.);
#1129=ADVANCED_FACE('',(#101),#1082,.F.);
#1130=ADVANCED_FACE('',(#102),#48,.F.);
#1131=ADVANCED_FACE('',(#103),#49,.F.);
#1132=ADVANCED_FACE('',(#104),#1083,.F.);
#1133=ADVANCED_FACE('',(#105),#50,.T.);
#1134=ADVANCED_FACE('',(#106),#51,.F.);
#1135=ADVANCED_FACE('',(#107),#52,.T.);
#1136=ADVANCED_FACE('',(#108),#53,.T.);
#1137=ADVANCED_FACE('',(#109),#54,.F.);
#1138=ADVANCED_FACE('',(#110),#55,.T.);
#1139=ADVANCED_FACE('',(#111),#56,.F.);
#1140=ADVANCED_FACE('',(#112),#1084,.F.);
#1141=ADVANCED_FACE('',(#113,#24,#25,#26),#57,.T.);
#1142=ADVANCED_FACE('',(#114),#1085,.F.);
#1143=ADVANCED_FACE('',(#115),#58,.F.);
#1144=ADVANCED_FACE('',(#116),#1086,.F.);
#1145=ADVANCED_FACE('',(#117),#59,.T.);
#1146=ADVANCED_FACE('',(#118),#1087,.F.);
#1147=ADVANCED_FACE('',(#119),#1088,.F.);
#1148=ADVANCED_FACE('',(#120),#60,.T.);
#1149=ADVANCED_FACE('',(#121),#61,.T.);
#1150=ADVANCED_FACE('',(#122),#1089,.F.);
#1151=ADVANCED_FACE('',(#123),#1090,.F.);
#1152=ADVANCED_FACE('',(#124),#62,.F.);
#1153=CLOSED_SHELL('',(#1091,#1092,#1093,#1094,#1095,#1096,#1097,#1098,
#1099,#1100,#1101,#1102,#1103,#1104,#1105,#1106,#1107,#1108,#1109,#1110,
#1111,#1112,#1113,#1114,#1115,#1116,#1117,#1118,#1119,#1120,#1121,#1122,
#1123,#1124,#1125,#1126,#1127,#1128,#1129,#1130,#1131,#1132,#1133,#1134,
#1135,#1136,#1137,#1138,#1139,#1140,#1141,#1142,#1143,#1144,#1145,#1146,
#1147,#1148,#1149,#1150,#1151,#1152));
#1154=DERIVED_UNIT_ELEMENT(#1156,1.);
#1155=DERIVED_UNIT_ELEMENT(#1959,-3.);
#1156=(
MASS_UNIT()
NAMED_UNIT(*)
SI_UNIT(.KILO.,.GRAM.)
);
#1157=DERIVED_UNIT((#1154,#1155));
#1158=MEASURE_REPRESENTATION_ITEM('density measure',
POSITIVE_RATIO_MEASURE(7850.),#1157);
#1159=PROPERTY_DEFINITION_REPRESENTATION(#1164,#1161);
#1160=PROPERTY_DEFINITION_REPRESENTATION(#1165,#1162);
#1161=REPRESENTATION('material name',(#1163),#1956);
#1162=REPRESENTATION('density',(#1158),#1956);
#1163=DESCRIPTIVE_REPRESENTATION_ITEM('Steel','Steel');
#1164=PROPERTY_DEFINITION('material property','material name',#1966);
#1165=PROPERTY_DEFINITION('material property','density of part',#1966);
#1166=AXIS2_PLACEMENT_3D('',#1621,#1281,#1282);
#1167=AXIS2_PLACEMENT_3D('',#1622,#1283,#1284);
#1168=AXIS2_PLACEMENT_3D('',#1624,#1285,#1286);
#1169=AXIS2_PLACEMENT_3D('',#1627,#1288,#1289);
#1170=AXIS2_PLACEMENT_3D('',#1628,#1290,#1291);
#1171=AXIS2_PLACEMENT_3D('',#1629,#1292,#1293);
#1172=AXIS2_PLACEMENT_3D('',#1631,#1294,#1295);
#1173=AXIS2_PLACEMENT_3D('',#1634,#1297,#1298);
#1174=AXIS2_PLACEMENT_3D('',#1635,#1299,#1300);
#1175=AXIS2_PLACEMENT_3D('',#1636,#1301,#1302);
#1176=AXIS2_PLACEMENT_3D('',#1639,#1303,#1304);
#1177=AXIS2_PLACEMENT_3D('',#1643,#1306,#1307);
#1178=AXIS2_PLACEMENT_3D('',#1645,#1309,#1310);
#1179=AXIS2_PLACEMENT_3D('',#1652,#1314,#1315);
#1180=AXIS2_PLACEMENT_3D('',#1654,#1316,#1317);
#1181=AXIS2_PLACEMENT_3D('',#1659,#1319,#1320);
#1182=AXIS2_PLACEMENT_3D('',#1663,#1322,#1323);
#1183=AXIS2_PLACEMENT_3D('',#1667,#1325,#1326);
#1184=AXIS2_PLACEMENT_3D('',#1670,#1328,#1329);
#1185=AXIS2_PLACEMENT_3D('',#1671,#1330,#1331);
#1186=AXIS2_PLACEMENT_3D('',#1675,#1333,#1334);
#1187=AXIS2_PLACEMENT_3D('',#1683,#1338,#1339);
#1188=AXIS2_PLACEMENT_3D('',#1687,#1341,#1342);
#1189=AXIS2_PLACEMENT_3D('',#1691,#1344,#1345);
#1190=AXIS2_PLACEMENT_3D('',#1695,#1347,#1348);
#1191=AXIS2_PLACEMENT_3D('',#1703,#1352,#1353);
#1192=AXIS2_PLACEMENT_3D('',#1706,#1355,#1356);
#1193=AXIS2_PLACEMENT_3D('',#1707,#1357,#1358);
#1194=AXIS2_PLACEMENT_3D('',#1710,#1359,#1360);
#1195=AXIS2_PLACEMENT_3D('',#1713,#1363,#1364);
#1196=AXIS2_PLACEMENT_3D('',#1720,#1368,#1369);
#1197=AXIS2_PLACEMENT_3D('',#1724,#1371,#1372);
#1198=AXIS2_PLACEMENT_3D('',#1726,#1374,#1375);
#1199=AXIS2_PLACEMENT_3D('',#1728,#1377,#1378);
#1200=AXIS2_PLACEMENT_3D('',#1730,#1379,#1380);
#1201=AXIS2_PLACEMENT_3D('',#1732,#1382,#1383);
#1202=AXIS2_PLACEMENT_3D('',#1734,#1384,#1385);
#1203=AXIS2_PLACEMENT_3D('',#1736,#1387,#1388);
#1204=AXIS2_PLACEMENT_3D('',#1738,#1390,#1391);
#1205=AXIS2_PLACEMENT_3D('',#1740,#1392,#1393);
#1206=AXIS2_PLACEMENT_3D('',#1742,#1395,#1396);
#1207=AXIS2_PLACEMENT_3D('',#1744,#1397,#1398);
#1208=AXIS2_PLACEMENT_3D('',#1746,#1400,#1401);
#1209=AXIS2_PLACEMENT_3D('',#1749,#1402,#1403);
#1210=AXIS2_PLACEMENT_3D('',#1752,#1406,#1407);
#1211=AXIS2_PLACEMENT_3D('',#1756,#1410,#1411);
#1212=AXIS2_PLACEMENT_3D('',#1758,#1412,#1413);
#1213=AXIS2_PLACEMENT_3D('',#1760,#1415,#1416);
#1214=AXIS2_PLACEMENT_3D('',#1762,#1418,#1419);
#1215=AXIS2_PLACEMENT_3D('',#1764,#1421,#1422);
#1216=AXIS2_PLACEMENT_3D('',#1767,#1423,#1424);
#1217=AXIS2_PLACEMENT_3D('',#1771,#1426,#1427);
#1218=AXIS2_PLACEMENT_3D('',#1773,#1429,#1430);
#1219=AXIS2_PLACEMENT_3D('',#1779,#1434,#1435);
#1220=AXIS2_PLACEMENT_3D('',#1785,#1438,#1439);
#1221=AXIS2_PLACEMENT_3D('',#1788,#1441,#1442);
#1222=AXIS2_PLACEMENT_3D('',#1789,#1443,#1444);
#1223=AXIS2_PLACEMENT_3D('',#1792,#1445,#1446);
#1224=AXIS2_PLACEMENT_3D('',#1796,#1448,#1449);
#1225=AXIS2_PLACEMENT_3D('',#1798,#1451,#1452);
#1226=AXIS2_PLACEMENT_3D('',#1804,#1456,#1457);
#1227=AXIS2_PLACEMENT_3D('',#1810,#1460,#1461);
#1228=AXIS2_PLACEMENT_3D('',#1813,#1463,#1464);
#1229=AXIS2_PLACEMENT_3D('',#1814,#1465,#1466);
#1230=AXIS2_PLACEMENT_3D('',#1817,#1467,#1468);
#1231=AXIS2_PLACEMENT_3D('',#1821,#1470,#1471);
#1232=AXIS2_PLACEMENT_3D('',#1823,#1473,#1474);
#1233=AXIS2_PLACEMENT_3D('',#1829,#1478,#1479);
#1234=AXIS2_PLACEMENT_3D('',#1835,#1482,#1483);
#1235=AXIS2_PLACEMENT_3D('',#1838,#1485,#1486);
#1236=AXIS2_PLACEMENT_3D('',#1839,#1487,#1488);
#1237=AXIS2_PLACEMENT_3D('',#1842,#1489,#1490);
#1238=AXIS2_PLACEMENT_3D('',#1846,#1492,#1493);
#1239=AXIS2_PLACEMENT_3D('',#1848,#1495,#1496);
#1240=AXIS2_PLACEMENT_3D('',#1854,#1500,#1501);
#1241=AXIS2_PLACEMENT_3D('',#1860,#1504,#1505);
#1242=AXIS2_PLACEMENT_3D('',#1863,#1507,#1508);
#1243=AXIS2_PLACEMENT_3D('',#1864,#1509,#1510);
#1244=AXIS2_PLACEMENT_3D('',#1867,#1512,#1513);
#1245=AXIS2_PLACEMENT_3D('',#1868,#1514,#1515);
#1246=AXIS2_PLACEMENT_3D('',#1869,#1516,#1517);
#1247=AXIS2_PLACEMENT_3D('',#1872,#1519,#1520);
#1248=AXIS2_PLACEMENT_3D('',#1873,#1521,#1522);
#1249=AXIS2_PLACEMENT_3D('',#1874,#1523,#1524);
#1250=AXIS2_PLACEMENT_3D('',#1877,#1526,#1527);
#1251=AXIS2_PLACEMENT_3D('',#1878,#1528,#1529);
#1252=AXIS2_PLACEMENT_3D('',#1879,#1530,#1531);
#1253=AXIS2_PLACEMENT_3D('',#1882,#1533,#1534);
#1254=AXIS2_PLACEMENT_3D('',#1883,#1535,#1536);
#1255=AXIS2_PLACEMENT_3D('',#1884,#1537,#1538);
#1256=AXIS2_PLACEMENT_3D('',#1888,#1541,#1542);
#1257=AXIS2_PLACEMENT_3D('',#1891,#1545,#1546);
#1258=AXIS2_PLACEMENT_3D('',#1894,#1549,#1550);
#1259=AXIS2_PLACEMENT_3D('',#1898,#1553,#1554);
#1260=AXIS2_PLACEMENT_3D('',#1902,#1558,#1559);
#1261=AXIS2_PLACEMENT_3D('',#1909,#1564,#1565);
#1262=AXIS2_PLACEMENT_3D('',#1911,#1567,#1568);
#1263=AXIS2_PLACEMENT_3D('',#1913,#1570,#1571);
#1264=AXIS2_PLACEMENT_3D('',#1915,#1573,#1574);
#1265=AXIS2_PLACEMENT_3D('',#1917,#1576,#1577);
#1266=AXIS2_PLACEMENT_3D('',#1923,#1580,#1581);
#1267=AXIS2_PLACEMENT_3D('',#1927,#1583,#1584);
#1268=AXIS2_PLACEMENT_3D('',#1931,#1586,#1587);
#1269=AXIS2_PLACEMENT_3D('',#1934,#1589,#1590);
#1270=AXIS2_PLACEMENT_3D('',#1935,#1591,#1592);
#1271=AXIS2_PLACEMENT_3D('',#1938,#1595,#1596);
#1272=AXIS2_PLACEMENT_3D('',#1940,#1598,#1599);
#1273=AXIS2_PLACEMENT_3D('',#1943,#1602,#1603);
#1274=AXIS2_PLACEMENT_3D('',#1945,#1605,#1606);
#1275=AXIS2_PLACEMENT_3D('',#1947,#1608,#1609);
#1276=AXIS2_PLACEMENT_3D('',#1949,#1611,#1612);
#1277=AXIS2_PLACEMENT_3D('',#1950,#1613,#1614);
#1278=AXIS2_PLACEMENT_3D('',#1951,#1615,#1616);
#1279=AXIS2_PLACEMENT_3D('',#1952,#1617,#1618);
#1280=AXIS2_PLACEMENT_3D('',#1953,#1619,#1620);
#1281=DIRECTION('axis',(0.,0.,1.));
#1282=DIRECTION('refdir',(1.,0.,0.));
#1283=DIRECTION('center_axis',(0.,-1.,3.81525412355817E-16));
#1284=DIRECTION('ref_axis',(0.,3.81525412355817E-16,1.));
#1285=DIRECTION('center_axis',(0.,-1.,3.81525412355817E-16));
#1286=DIRECTION('ref_axis',(0.,3.81525412355817E-16,1.));
#1287=DIRECTION('',(0.,-1.,3.81525412355817E-16));
#1288=DIRECTION('center_axis',(0.,-1.,3.81525412355817E-16));
#1289=DIRECTION('ref_axis',(0.,3.81525412355817E-16,1.));
#1290=DIRECTION('center_axis',(0.,-1.,3.81525412355817E-16));
#1291=DIRECTION('ref_axis',(0.,3.81525412355817E-16,1.));
#1292=DIRECTION('center_axis',(0.,-1.,3.81525412355817E-16));
#1293=DIRECTION('ref_axis',(0.,3.81525412355817E-16,1.));
#1294=DIRECTION('center_axis',(0.,-1.,3.81525412355817E-16));
#1295=DIRECTION('ref_axis',(0.,3.81525412355817E-16,1.));
#1296=DIRECTION('',(0.,-1.,3.81525412355817E-16));
#1297=DIRECTION('center_axis',(0.,-1.,3.81525412355817E-16));
#1298=DIRECTION('ref_axis',(0.,3.81525412355817E-16,1.));
#1299=DIRECTION('center_axis',(0.,-1.,3.81525412355817E-16));
#1300=DIRECTION('ref_axis',(0.,3.81525412355817E-16,1.));
#1301=DIRECTION('center_axis',(0.,-1.,4.03717463500057E-16));
#1302=DIRECTION('ref_axis',(0.707106781186547,0.,0.707106781186547));
#1303=DIRECTION('center_axis',(0.,1.,-3.81525412355817E-16));
#1304=DIRECTION('ref_axis',(0.707106781186547,0.,0.707106781186547));
#1305=DIRECTION('',(0.,1.,-4.03717463500057E-16));
#1306=DIRECTION('center_axis',(0.,-1.,3.81525412355817E-16));
#1307=DIRECTION('ref_axis',(0.707106781186547,0.,0.707106781186547));
#1308=DIRECTION('',(0.,-1.,4.03717463500057E-16));
#1309=DIRECTION('center_axis',(0.,4.03717463500057E-16,1.));
#1310=DIRECTION('ref_axis',(1.,0.,0.));
#1311=DIRECTION('',(1.,0.,0.));
#1312=DIRECTION('',(0.,1.,-4.03717463500057E-16));
#1313=DIRECTION('',(-1.,0.,0.));
#1314=DIRECTION('center_axis',(0.,-4.03717463500057E-16,-1.));
#1315=DIRECTION('ref_axis',(-1.,0.,-9.73121267097905E-17));
#1316=DIRECTION('center_axis',(0.,-4.03717463500057E-16,-1.));
#1317=DIRECTION('ref_axis',(-1.,0.,-9.73121267097905E-17));
#1318=DIRECTION('',(-1.,0.,0.));
#1319=DIRECTION('center_axis',(0.,4.03717463500057E-16,1.));
#1320=DIRECTION('ref_axis',(-0.707106781186548,-0.707106781186548,0.));
#1321=DIRECTION('',(-8.96432846842059E-32,1.,-4.03717463500057E-16));
#1322=DIRECTION('center_axis',(0.,4.03717463500057E-16,1.));
#1323=DIRECTION('ref_axis',(-0.707106781186549,0.707106781186546,0.));
#1324=DIRECTION('',(1.,0.,0.));
#1325=DIRECTION('center_axis',(0.,4.03717463500057E-16,1.));
#1326=DIRECTION('ref_axis',(0.707106781186546,0.707106781186549,0.));
#1327=DIRECTION('',(8.96432846842059E-32,-1.,4.03717463500057E-16));
#1328=DIRECTION('center_axis',(0.,4.03717463500057E-16,1.));
#1329=DIRECTION('ref_axis',(0.707106781186544,-0.707106781186551,0.));
#1330=DIRECTION('center_axis',(0.,1.,-3.81525412355817E-16));
#1331=DIRECTION('ref_axis',(-1.,0.,0.));
#1332=DIRECTION('',(-1.45603019622971E-16,-2.35922392732846E-16,-1.));
#1333=DIRECTION('center_axis',(0.,-1.,3.81525412355817E-16));
#1334=DIRECTION('ref_axis',(0.707106781186547,0.,-0.707106781186547));
#1335=DIRECTION('',(-1.,9.34924652315921E-17,-2.20569660999296E-32));
#1336=DIRECTION('',(-2.38590476828141E-33,3.81525412355817E-16,1.));
#1337=DIRECTION('',(1.,-1.14790548876478E-32,-4.86560633548952E-17));
#1338=DIRECTION('center_axis',(0.,-1.,2.35922392732846E-16));
#1339=DIRECTION('ref_axis',(1.,0.,0.));
#1340=DIRECTION('',(-4.52551760481212E-16,-1.41204074334831E-16,1.));
#1341=DIRECTION('center_axis',(3.15544362088406E-30,-1.,1.12410081243297E-15));
#1342=DIRECTION('ref_axis',(0.,1.12410081243297E-15,1.));
#1343=DIRECTION('',(-1.,9.73121267097905E-17,-9.73121267097905E-17));
#1344=DIRECTION('center_axis',(0.,-1.,2.35922392732844E-16));
#1345=DIRECTION('ref_axis',(-1.,0.,0.));
#1346=DIRECTION('',(-3.01701173654141E-16,-8.5071805905775E-17,-1.));
#1347=DIRECTION('center_axis',(0.,-1.,2.35922392732846E-16));
#1348=DIRECTION('ref_axis',(0.,-2.35922392732846E-16,-1.));
#1349=DIRECTION('',(1.,-1.14790548876478E-32,-4.86560633548952E-17));
#1350=DIRECTION('',(2.38590476828141E-33,-3.81525412355817E-16,-1.));
#1351=DIRECTION('',(-1.,9.34924652315921E-17,-2.20569660999296E-32));
#1352=DIRECTION('center_axis',(0.,-1.,3.81525412355817E-16));
#1353=DIRECTION('ref_axis',(-0.707106781186548,0.,-0.707106781186547));
#1354=DIRECTION('',(-1.45603019622971E-16,3.81525412355817E-16,1.));
#1355=DIRECTION('center_axis',(0.,-1.,3.81525412355817E-16));
#1356=DIRECTION('ref_axis',(-0.707106781186547,0.,0.707106781186548));
#1357=DIRECTION('center_axis',(0.,-1.,4.03717463500057E-16));
#1358=DIRECTION('ref_axis',(0.707106781186547,0.,-0.707106781186547));
#1359=DIRECTION('center_axis',(0.,1.,-3.81525412355817E-16));
#1360=DIRECTION('ref_axis',(0.707106781186547,0.,-0.707106781186547));
#1361=DIRECTION('',(0.,1.,-4.03717463500057E-16));
#1362=DIRECTION('',(0.,-1.,4.03717463500057E-16));
#1363=DIRECTION('center_axis',(-1.5687574819736E-32,-4.03717463500057E-16,
-1.));
#1364=DIRECTION('ref_axis',(-1.,9.34924652315921E-17,-2.20569660999296E-32));
#1365=DIRECTION('',(1.,-9.34924652315921E-17,2.20569660999296E-32));
#1366=DIRECTION('',(0.,-1.,4.03717463500057E-16));
#1367=DIRECTION('',(-9.63231421203262E-49,-1.,4.03717463500057E-16));
#1368=DIRECTION('center_axis',(-1.5687574819736E-32,-4.03717463500057E-16,
-1.));
#1369=DIRECTION('ref_axis',(-0.707106781186547,-0.707106781186548,0.));
#1370=DIRECTION('',(1.,0.,-1.5687574819736E-32));
#1371=DIRECTION('center_axis',(-1.5687574819736E-32,-4.03717463500057E-16,
-1.));
#1372=DIRECTION('ref_axis',(0.707106781186547,-0.707106781186548,0.));
#1373=DIRECTION('',(9.63231421203262E-49,1.,-4.03717463500057E-16));
#1374=DIRECTION('center_axis',(1.,-5.8782481760135E-32,-1.45603019622971E-16));
#1375=DIRECTION('ref_axis',(-1.45603019622971E-16,-2.35922392732846E-16,
-1.));
#1376=DIRECTION('',(1.45603019622971E-16,2.35922392732846E-16,1.));
#1377=DIRECTION('center_axis',(0.,-1.,4.03717463500057E-16));
#1378=DIRECTION('ref_axis',(-0.707106781186548,0.,-0.707106781186547));
#1379=DIRECTION('center_axis',(0.,1.,-3.81525412355817E-16));
#1380=DIRECTION('ref_axis',(-0.707106781186548,0.,-0.707106781186547));
#1381=DIRECTION('',(0.,1.,-4.03717463500057E-16));
#1382=DIRECTION('center_axis',(0.,-1.,4.03717463500057E-16));
#1383=DIRECTION('ref_axis',(-0.707106781186547,0.,0.707106781186548));
#1384=DIRECTION('center_axis',(0.,1.,-3.81525412355817E-16));
#1385=DIRECTION('ref_axis',(-0.707106781186547,0.,0.707106781186548));
#1386=DIRECTION('',(0.,-1.,4.03717463500057E-16));
#1387=DIRECTION('center_axis',(-1.,-5.8782481760135E-32,-1.45603019622971E-16));
#1388=DIRECTION('ref_axis',(-1.45603019622971E-16,3.81525412355817E-16,
1.));
#1389=DIRECTION('',(1.45603019622971E-16,-3.81525412355817E-16,-1.));
#1390=DIRECTION('center_axis',(-9.73121267097905E-17,4.03717463500057E-16,
1.));
#1391=DIRECTION('ref_axis',(-1.,0.,-9.73121267097905E-17));
#1392=DIRECTION('center_axis',(-9.73121267097905E-17,4.03717463500057E-16,
1.));
#1393=DIRECTION('ref_axis',(-1.,0.,-9.73121267097905E-17));
#1394=DIRECTION('',(-9.73121267097905E-17,4.03717463500057E-16,1.));
#1395=DIRECTION('center_axis',(-9.73121267097905E-17,4.03717463500057E-16,
1.));
#1396=DIRECTION('ref_axis',(-1.,0.,-9.73121267097905E-17));
#1397=DIRECTION('center_axis',(-9.73121267097905E-17,4.03717463500057E-16,
1.));
#1398=DIRECTION('ref_axis',(-1.,0.,-9.73121267097905E-17));
#1399=DIRECTION('',(-9.73121267097905E-17,4.03717463500057E-16,1.));
#1400=DIRECTION('center_axis',(2.38590476828141E-33,0.,-1.));
#1401=DIRECTION('ref_axis',(-0.707106781186547,-0.707106781186548,0.));
#1402=DIRECTION('center_axis',(4.86560633548952E-17,4.03717463500057E-16,
1.));
#1403=DIRECTION('ref_axis',(-0.707106781186547,-0.707106781186548,0.));
#1404=DIRECTION('',(2.38590476828141E-33,0.,-1.));
#1405=DIRECTION('',(-2.38590476828141E-33,0.,1.));
#1406=DIRECTION('center_axis',(0.,1.,0.));
#1407=DIRECTION('ref_axis',(-2.38590476828141E-33,0.,1.));
#1408=DIRECTION('',(-1.,0.,4.86560633548952E-17));
#1409=DIRECTION('',(-2.38590476828141E-33,0.,1.));
#1410=DIRECTION('center_axis',(2.38590476828141E-33,0.,-1.));
#1411=DIRECTION('ref_axis',(0.707106781186547,-0.707106781186548,0.));
#1412=DIRECTION('center_axis',(4.86560633548952E-17,4.03717463500057E-16,
1.));
#1413=DIRECTION('ref_axis',(0.707106781186547,-0.707106781186548,0.));
#1414=DIRECTION('',(2.38590476828141E-33,0.,-1.));
#1415=DIRECTION('center_axis',(-1.,0.,-2.38590476828141E-33));
#1416=DIRECTION('ref_axis',(2.38590476828141E-33,0.,-1.));
#1417=DIRECTION('',(-9.63231421203262E-49,-1.,4.03717463500057E-16));
#1418=DIRECTION('center_axis',(1.,0.,2.38590476828141E-33));
#1419=DIRECTION('ref_axis',(-2.38590476828141E-33,0.,1.));
#1420=DIRECTION('',(9.63231421203262E-49,1.,-4.03717463500057E-16));
#1421=DIRECTION('center_axis',(0.,-1.,0.));
#1422=DIRECTION('ref_axis',(0.707106781186546,0.,0.707106781186549));
#1423=DIRECTION('center_axis',(0.,-1.,0.));
#1424=DIRECTION('ref_axis',(0.707106781186546,0.,0.707106781186549));
#1425=DIRECTION('',(0.,-1.,0.));
#1426=DIRECTION('center_axis',(0.,-1.,3.81525412355817E-16));
#1427=DIRECTION('ref_axis',(0.707106781186546,0.,0.707106781186549));
#1428=DIRECTION('',(0.,1.,0.));
#1429=DIRECTION('center_axis',(0.,0.,-1.));
#1430=DIRECTION('ref_axis',(0.,1.,0.));
#1431=DIRECTION('',(1.,0.,0.));
#1432=DIRECTION('',(1.2180203256264E-31,1.,0.));
#1433=DIRECTION('',(-1.,0.,0.));
#1434=DIRECTION('center_axis',(0.,1.,0.));
#1435=DIRECTION('ref_axis',(0.,0.,1.));
#1436=DIRECTION('',(0.,0.,-1.));
#1437=DIRECTION('',(1.,0.,-4.86560633548952E-17));
#1438=DIRECTION('center_axis',(0.,-1.,0.));
#1439=DIRECTION('ref_axis',(0.,-4.03717463500057E-16,-1.));
#1440=DIRECTION('',(-3.01701173654141E-16,0.,-1.));
#1441=DIRECTION('center_axis',(0.,-1.,0.));
#1442=DIRECTION('ref_axis',(0.,0.,1.));
#1443=DIRECTION('center_axis',(0.,-1.,0.));
#1444=DIRECTION('ref_axis',(0.707106781186546,0.,-0.707106781186549));
#1445=DIRECTION('center_axis',(0.,-1.,0.));
#1446=DIRECTION('ref_axis',(0.707106781186546,0.,-0.707106781186549));
#1447=DIRECTION('',(0.,-1.,0.));
#1448=DIRECTION('center_axis',(0.,-1.,3.81525412355817E-16));
#1449=DIRECTION('ref_axis',(0.707106781186546,0.,-0.707106781186549));
#1450=DIRECTION('',(0.,1.,0.));
#1451=DIRECTION('center_axis',(-1.,0.,0.));
#1452=DIRECTION('ref_axis',(0.,-1.,0.));
#1453=DIRECTION('',(0.,0.,-1.));
#1454=DIRECTION('',(0.,1.,-4.03717463500057E-16));
#1455=DIRECTION('',(0.,3.81525412355817E-16,1.));
#1456=DIRECTION('center_axis',(0.,1.,0.));
#1457=DIRECTION('ref_axis',(0.,0.,1.));
#1458=DIRECTION('',(-1.,0.,0.));
#1459=DIRECTION('',(-3.01701173654141E-16,0.,-1.));
#1460=DIRECTION('center_axis',(0.,-1.,0.));
#1461=DIRECTION('ref_axis',(-1.,0.,0.));
#1462=DIRECTION('',(-1.,0.,-9.73121267097905E-17));
#1463=DIRECTION('center_axis',(0.,-1.,0.));
#1464=DIRECTION('ref_axis',(0.,0.,1.));
#1465=DIRECTION('center_axis',(0.,-1.,0.));
#1466=DIRECTION('ref_axis',(-0.707106781186546,0.,-0.707106781186549));
#1467=DIRECTION('center_axis',(0.,-1.,0.));
#1468=DIRECTION('ref_axis',(-0.707106781186546,0.,-0.707106781186549));
#1469=DIRECTION('',(0.,-1.,0.));
#1470=DIRECTION('center_axis',(0.,-1.,3.81525412355817E-16));
#1471=DIRECTION('ref_axis',(-0.707106781186546,0.,-0.707106781186549));
#1472=DIRECTION('',(0.,1.,0.));
#1473=DIRECTION('center_axis',(0.,0.,1.));
#1474=DIRECTION('ref_axis',(0.,1.,0.));
#1475=DIRECTION('',(-1.,0.,0.));
#1476=DIRECTION('',(-1.8270304884396E-31,1.,0.));
#1477=DIRECTION('',(1.,0.,0.));
#1478=DIRECTION('center_axis',(0.,1.,0.));
#1479=DIRECTION('ref_axis',(0.,0.,-1.));
#1480=DIRECTION('',(0.,0.,1.));
#1481=DIRECTION('',(-1.,0.,-9.73121267097905E-17));
#1482=DIRECTION('center_axis',(0.,-1.,0.));
#1483=DIRECTION('ref_axis',(0.,4.03717463500057E-16,1.));
#1484=DIRECTION('',(-4.52551760481212E-16,0.,1.));
#1485=DIRECTION('center_axis',(0.,-1.,0.));
#1486=DIRECTION('ref_axis',(0.,0.,1.));
#1487=DIRECTION('center_axis',(0.,-1.,0.));
#1488=DIRECTION('ref_axis',(-0.707106781186546,0.,0.707106781186549));
#1489=DIRECTION('center_axis',(0.,-1.,0.));
#1490=DIRECTION('ref_axis',(-0.707106781186546,0.,0.707106781186549));
#1491=DIRECTION('',(0.,-1.,0.));
#1492=DIRECTION('center_axis',(0.,-1.,3.81525412355817E-16));
#1493=DIRECTION('ref_axis',(-0.707106781186546,0.,0.707106781186549));
#1494=DIRECTION('',(0.,1.,0.));
#1495=DIRECTION('center_axis',(1.,0.,0.));
#1496=DIRECTION('ref_axis',(0.,1.,0.));
#1497=DIRECTION('',(0.,0.,1.));
#1498=DIRECTION('',(0.,1.,-4.03717463500057E-16));
#1499=DIRECTION('',(0.,-3.81525412355817E-16,-1.));
#1500=DIRECTION('center_axis',(0.,1.,0.));
#1501=DIRECTION('ref_axis',(0.,0.,1.));
#1502=DIRECTION('',(1.,0.,0.));
#1503=DIRECTION('',(-4.52551760481212E-16,0.,1.));
#1504=DIRECTION('center_axis',(0.,-1.,0.));
#1505=DIRECTION('ref_axis',(1.,0.,0.));
#1506=DIRECTION('',(1.,0.,-4.86560633548952E-17));
#1507=DIRECTION('center_axis',(0.,-1.,0.));
#1508=DIRECTION('ref_axis',(0.,0.,1.));
#1509=DIRECTION('center_axis',(0.,-1.,0.));
#1510=DIRECTION('ref_axis',(0.,0.,1.));
#1511=DIRECTION('',(0.,-1.,0.));
#1512=DIRECTION('center_axis',(0.,-1.,0.));
#1513=DIRECTION('ref_axis',(0.,0.,1.));
#1514=DIRECTION('center_axis',(0.,-1.,0.));
#1515=DIRECTION('ref_axis',(0.,0.,1.));
#1516=DIRECTION('center_axis',(0.,-1.,0.));
#1517=DIRECTION('ref_axis',(0.,0.,1.));
#1518=DIRECTION('',(0.,-1.,0.));
#1519=DIRECTION('center_axis',(0.,-1.,0.));
#1520=DIRECTION('ref_axis',(0.,0.,1.));
#1521=DIRECTION('center_axis',(0.,-1.,0.));
#1522=DIRECTION('ref_axis',(0.,0.,1.));
#1523=DIRECTION('center_axis',(0.,-1.,0.));
#1524=DIRECTION('ref_axis',(0.,0.,1.));
#1525=DIRECTION('',(0.,-1.,0.));
#1526=DIRECTION('center_axis',(0.,-1.,0.));
#1527=DIRECTION('ref_axis',(0.,0.,1.));
#1528=DIRECTION('center_axis',(0.,-1.,0.));
#1529=DIRECTION('ref_axis',(0.,0.,1.));
#1530=DIRECTION('center_axis',(0.,-1.,0.));
#1531=DIRECTION('ref_axis',(0.,0.,1.));
#1532=DIRECTION('',(0.,-1.,0.));
#1533=DIRECTION('center_axis',(0.,-1.,0.));
#1534=DIRECTION('ref_axis',(0.,0.,1.));
#1535=DIRECTION('center_axis',(0.,-1.,0.));
#1536=DIRECTION('ref_axis',(0.,0.,1.));
#1537=DIRECTION('center_axis',(-1.,0.,0.));
#1538=DIRECTION('ref_axis',(0.,-1.,0.));
#1539=DIRECTION('',(0.,3.81525412355817E-16,1.));
#1540=DIRECTION('',(0.,-1.,4.03717463500057E-16));
#1541=DIRECTION('center_axis',(0.,1.,-4.03717463500057E-16));
#1542=DIRECTION('ref_axis',(0.,-4.03717463500057E-16,-1.));
#1543=DIRECTION('',(0.,1.,-4.03717463500057E-16));
#1544=DIRECTION('',(0.,1.,-4.03717463500057E-16));
#1545=DIRECTION('center_axis',(4.86560633548952E-17,4.03717463500057E-16,
1.));
#1546=DIRECTION('ref_axis',(1.,-1.14790548876478E-32,-4.86560633548952E-17));
#1547=DIRECTION('',(-1.,1.85635246350872E-32,4.86560633548952E-17));
#1548=DIRECTION('',(0.,1.,-4.03717463500057E-16));
#1549=DIRECTION('center_axis',(0.,0.,-1.));
#1550=DIRECTION('ref_axis',(0.,1.,0.));
#1551=DIRECTION('',(-1.,0.,0.));
#1552=DIRECTION('',(1.8270304884396E-31,-1.,0.));
#1553=DIRECTION('center_axis',(-1.,-1.8270304884396E-31,-4.52551760481212E-16));
#1554=DIRECTION('ref_axis',(-4.52551760481212E-16,-1.41204074334831E-16,
1.));
#1555=DIRECTION('',(4.52551760481212E-16,-3.81525412355817E-16,-1.));
#1556=DIRECTION('',(0.,1.,-4.03717463500057E-16));
#1557=DIRECTION('',(0.,1.,-4.03717463500057E-16));
#1558=DIRECTION('center_axis',(0.,1.,-3.81525412355817E-16));
#1559=DIRECTION('ref_axis',(-1.,0.,0.));
#1560=DIRECTION('',(3.01701173654141E-16,3.81525412355817E-16,1.));
#1561=DIRECTION('',(1.,0.,0.));
#1562=DIRECTION('',(1.,3.71270492701743E-32,9.73121267097905E-17));
#1563=DIRECTION('',(0.,-3.81525412355817E-16,-1.));
#1564=DIRECTION('center_axis',(0.,0.,1.));
#1565=DIRECTION('ref_axis',(0.,-1.,0.));
#1566=DIRECTION('',(-1.2180203256264E-31,-1.,0.));
#1567=DIRECTION('center_axis',(1.,-1.2180203256264E-31,-3.01701173654141E-16));
#1568=DIRECTION('ref_axis',(-3.01701173654141E-16,-8.5071805905775E-17,
-1.));
#1569=DIRECTION('',(0.,1.,-4.03717463500057E-16));
#1570=DIRECTION('center_axis',(1.,0.,0.));
#1571=DIRECTION('ref_axis',(0.,-1.,0.));
#1572=DIRECTION('',(0.,-1.,4.03717463500057E-16));
#1573=DIRECTION('center_axis',(0.,1.,-4.03717463500057E-16));
#1574=DIRECTION('ref_axis',(0.,4.03717463500057E-16,1.));
#1575=DIRECTION('',(0.,1.,-4.03717463500057E-16));
#1576=DIRECTION('center_axis',(9.73121267097905E-17,-4.03717463500057E-16,
-1.));
#1577=DIRECTION('ref_axis',(-1.,9.73121267097905E-17,-9.73121267097905E-17));
#1578=DIRECTION('',(0.,1.,-4.03717463500057E-16));
#1579=DIRECTION('',(1.,0.,9.73121267097905E-17));
#1580=DIRECTION('center_axis',(9.73121267097905E-17,-4.03717463500057E-16,
-1.));
#1581=DIRECTION('ref_axis',(0.707106781186544,-0.707106781186551,0.));
#1582=DIRECTION('',(-8.96432846842059E-32,1.,-4.03717463500057E-16));
#1583=DIRECTION('center_axis',(9.73121267097905E-17,-4.03717463500057E-16,
-1.));
#1584=DIRECTION('ref_axis',(0.707106781186546,0.707106781186549,0.));
#1585=DIRECTION('',(-1.,0.,-9.73121267097905E-17));
#1586=DIRECTION('center_axis',(9.73121267097905E-17,-4.03717463500057E-16,
-1.));
#1587=DIRECTION('ref_axis',(-0.707106781186549,0.707106781186546,0.));
#1588=DIRECTION('',(8.96432846842059E-32,-1.,4.03717463500057E-16));
#1589=DIRECTION('center_axis',(9.73121267097905E-17,-4.03717463500057E-16,
-1.));
#1590=DIRECTION('ref_axis',(-0.707106781186548,-0.707106781186548,0.));
#1591=DIRECTION('center_axis',(2.22044604925031E-16,0.,1.));
#1592=DIRECTION('ref_axis',(-0.707106781186549,0.707106781186546,0.));
#1593=DIRECTION('',(2.22044604925031E-16,0.,1.));
#1594=DIRECTION('',(-2.22044604925031E-16,0.,-1.));
#1595=DIRECTION('center_axis',(0.,1.,0.));
#1596=DIRECTION('ref_axis',(-1.,0.,2.22044604925031E-16));
#1597=DIRECTION('',(-2.22044604925031E-16,0.,-1.));
#1598=DIRECTION('center_axis',(-2.22044604925031E-16,0.,-1.));
#1599=DIRECTION('ref_axis',(-0.707106781186548,-0.707106781186548,0.));
#1600=DIRECTION('',(-2.22044604925031E-16,0.,-1.));
#1601=DIRECTION('',(2.22044604925031E-16,0.,1.));
#1602=DIRECTION('center_axis',(0.,1.,0.));
#1603=DIRECTION('ref_axis',(-1.,0.,2.22044604925031E-16));
#1604=DIRECTION('',(2.22044604925031E-16,0.,1.));
#1605=DIRECTION('center_axis',(-2.22044604925031E-16,0.,-1.));
#1606=DIRECTION('ref_axis',(0.707106781186546,0.707106781186549,0.));
#1607=DIRECTION('',(2.22044604925031E-16,0.,1.));
#1608=DIRECTION('center_axis',(2.22044604925031E-16,0.,1.));
#1609=DIRECTION('ref_axis',(0.707106781186544,-0.707106781186551,0.));
#1610=DIRECTION('',(-2.22044604925031E-16,0.,-1.));
#1611=DIRECTION('center_axis',(1.,0.,-2.22044604925031E-16));
#1612=DIRECTION('ref_axis',(0.,1.,0.));
#1613=DIRECTION('center_axis',(-1.,0.,2.22044604925031E-16));
#1614=DIRECTION('ref_axis',(0.,-1.,0.));
#1615=DIRECTION('center_axis',(0.,1.,-4.03717463500057E-16));
#1616=DIRECTION('ref_axis',(1.,0.,0.));
#1617=DIRECTION('center_axis',(0.,1.,-4.03717463500057E-16));
#1618=DIRECTION('ref_axis',(-1.,0.,0.));
#1619=DIRECTION('center_axis',(0.,1.,-3.81525412355817E-16));
#1620=DIRECTION('ref_axis',(-1.,0.,0.));
#1621=CARTESIAN_POINT('',(0.,0.,0.));
#1622=CARTESIAN_POINT('Origin',(-54.3641784847797,0.510197999999992,5.14596984242821));
#1623=CARTESIAN_POINT('',(-54.3641784847797,4.51019799999999,3.14596984242821));
#1624=CARTESIAN_POINT('Origin',(-54.3641784847797,4.51019799999999,5.14596984242821));
#1625=CARTESIAN_POINT('',(-54.3641784847797,-3.48980200000001,3.14596984242822));
#1626=CARTESIAN_POINT('',(-54.3641784847797,0.510197999999991,3.14596984242821));
#1627=CARTESIAN_POINT('Origin',(-54.3641784847797,-3.48980200000001,5.14596984242822));
#1628=CARTESIAN_POINT('Origin',(-54.3641784847797,-3.48980200000001,5.14596984242822));
#1629=CARTESIAN_POINT('Origin',(54.4315000615764,0.510197999999992,5.06825001852571));
#1630=CARTESIAN_POINT('',(54.4315000615764,4.51019799999999,3.06825001852571));
#1631=CARTESIAN_POINT('Origin',(54.4315000615764,4.51019799999999,5.06825001852571));
#1632=CARTESIAN_POINT('',(54.4315000615764,-3.48980200000001,3.06825001852571));
#1633=CARTESIAN_POINT('',(54.4315000615764,0.510197999999991,3.06825001852571));
#1634=CARTESIAN_POINT('Origin',(54.4315000615764,-3.48980200000001,5.06825001852571));
#1635=CARTESIAN_POINT('Origin',(54.4315000615764,-3.48980200000001,5.06825001852571));
#1636=CARTESIAN_POINT('Origin',(50.8002693898915,-28.489802,35.7007242366784));
#1637=CARTESIAN_POINT('',(50.8002693898915,-28.489802,43.2007242366784));
#1638=CARTESIAN_POINT('',(58.3002693898915,-28.489802,35.7007242366784));
#1639=CARTESIAN_POINT('Origin',(50.8002693898915,-28.489802,35.7007242366784));
#1640=CARTESIAN_POINT('',(58.3002693898915,4.51019800000001,35.7007242366784));
#1641=CARTESIAN_POINT('',(58.3002693898915,-28.489802,35.7007242366784));
#1642=CARTESIAN_POINT('',(50.8002693898915,4.51019800000001,43.2007242366784));
#1643=CARTESIAN_POINT('Origin',(50.8002693898915,4.51019800000001,35.7007242366784));
#1644=CARTESIAN_POINT('',(50.8002693898915,-28.489802,43.2007242366784));
#1645=CARTESIAN_POINT('Origin',(-47.1997306101085,-28.489802,43.2007242366784));
#1646=CARTESIAN_POINT('',(-50.1997306101085,4.51019800000001,43.2007242366784));
#1647=CARTESIAN_POINT('',(47.8002693898915,4.51019800000001,43.2007242366784));
#1648=CARTESIAN_POINT('',(-50.1997306101085,-28.489802,43.2007242366784));
#1649=CARTESIAN_POINT('',(-50.1997306101085,-28.489802,43.2007242366784));
#1650=CARTESIAN_POINT('',(47.8002693898915,-28.489802,43.2007242366784));
#1651=CARTESIAN_POINT('',(-34.5261069544531,-20.8199322773941,43.2007242366784));
#1652=CARTESIAN_POINT('Origin',(-36.0261069544531,-20.8199322773941,43.2007242366784));
#1653=CARTESIAN_POINT('',(-34.5322071371897,-4.56710198956903,43.2007242366784));
#1654=CARTESIAN_POINT('Origin',(-36.0322071371897,-4.56710198956903,43.2007242366784));
#1655=CARTESIAN_POINT('',(30.0000006556511,-21.5,43.2007242366784));
#1656=CARTESIAN_POINT('',(-29.9999993443489,-21.5,43.2007242366784));
#1657=CARTESIAN_POINT('',(-6.8498649772287,-21.5,43.2007242366784));
#1658=CARTESIAN_POINT('',(-30.9999993443489,-20.5,43.2007242366784));
#1659=CARTESIAN_POINT('Origin',(-29.9999993443489,-20.5,43.2007242366784));
#1660=CARTESIAN_POINT('',(-30.9999993443489,-4.7,43.2007242366784));
#1661=CARTESIAN_POINT('',(-30.9999993443489,-13.244901,43.2007242366784));
#1662=CARTESIAN_POINT('',(-29.9999993443489,-3.7,43.2007242366784));
#1663=CARTESIAN_POINT('Origin',(-29.9999993443489,-4.7,43.2007242366784));
#1664=CARTESIAN_POINT('',(30.0000006556511,-3.7,43.2007242366784));
#1665=CARTESIAN_POINT('',(-6.8498649772287,-3.7,43.2007242366784));
#1666=CARTESIAN_POINT('',(31.0000006556511,-4.7,43.2007242366784));
#1667=CARTESIAN_POINT('Origin',(30.0000006556511,-4.7,43.2007242366784));
#1668=CARTESIAN_POINT('',(31.0000006556511,-20.5,43.2007242366784));
#1669=CARTESIAN_POINT('',(31.0000006556511,-13.244901,43.2007242366784));
#1670=CARTESIAN_POINT('Origin',(30.0000006556511,-20.5,43.2007242366784));
#1671=CARTESIAN_POINT('Origin',(0.300269389891534,4.51019799999999,5.20072423667838));
#1672=CARTESIAN_POINT('',(58.3002693898915,4.51019799999999,-25.2992757633216));
#1673=CARTESIAN_POINT('',(58.3002693898915,4.51019799999999,-25.2992757633216));
#1674=CARTESIAN_POINT('',(50.8002693898915,4.51019799999999,-32.7992757633216));
#1675=CARTESIAN_POINT('Origin',(50.8002693898915,4.51019799999998,-25.2992757633216));
#1676=CARTESIAN_POINT('',(6.741,4.51019799999998,-32.7992757633216));
#1677=CARTESIAN_POINT('',(-47.1997306101085,4.510198,-32.7992757633216));
#1678=CARTESIAN_POINT('',(6.741,4.51019799999999,-29.4181727870477));
#1679=CARTESIAN_POINT('',(6.741,4.51019799999998,-12.5492757633216));
#1680=CARTESIAN_POINT('',(45.5710944419737,4.51019799999999,-29.4181727870477));
#1681=CARTESIAN_POINT('',(45.5710944419737,4.51019799999999,-29.4181727870477));
#1682=CARTESIAN_POINT('',(50.5710944419737,4.51019799999999,-24.4181727870477));
#1683=CARTESIAN_POINT('Origin',(45.5710944419737,4.51019799999999,-24.4181727870477));
#1684=CARTESIAN_POINT('',(50.5710944419737,4.51019799999998,34.4598493924947));
#1685=CARTESIAN_POINT('',(50.5710944419737,4.51019799999998,34.4598493924947));
#1686=CARTESIAN_POINT('',(45.5710944419737,4.51019799999999,39.4598493924947));
#1687=CARTESIAN_POINT('Origin',(45.5710944419737,4.51019799999998,34.4598493924947));
#1688=CARTESIAN_POINT('',(-45.6999988667667,4.510198,39.4598493924946));
#1689=CARTESIAN_POINT('',(-45.6999988667667,4.510198,39.4598493924946));
#1690=CARTESIAN_POINT('',(-50.6999988667667,4.510198,34.4598493924947));
#1691=CARTESIAN_POINT('Origin',(-45.6999988667667,4.510198,34.4598493924947));
#1692=CARTESIAN_POINT('',(-50.6999988667667,4.51019799999999,-24.4181727870477));
#1693=CARTESIAN_POINT('',(-50.6999988667667,4.51019799999999,-24.4181727870477));
#1694=CARTESIAN_POINT('',(-45.6999988667667,4.51019799999999,-29.4181727870477));
#1695=CARTESIAN_POINT('Origin',(-45.6999988667667,4.51019799999999,-24.4181727870477));
#1696=CARTESIAN_POINT('',(-7.,4.51019799999999,-29.4181727870477));
#1697=CARTESIAN_POINT('',(45.5710944419737,4.51019799999999,-29.4181727870477));
#1698=CARTESIAN_POINT('',(-7.,4.51019799999998,-32.7992757633216));
#1699=CARTESIAN_POINT('',(-7.,4.51019799999998,-12.5492757633216));
#1700=CARTESIAN_POINT('',(-50.1997306101085,4.510198,-32.7992757633216));
#1701=CARTESIAN_POINT('',(-47.1997306101085,4.510198,-32.7992757633216));
#1702=CARTESIAN_POINT('',(-57.6997306101085,4.51019799999998,-25.2992757633216));
#1703=CARTESIAN_POINT('Origin',(-50.1997306101085,4.51019799999998,-25.2992757633216));
#1704=CARTESIAN_POINT('',(-57.6997306101085,4.51019800000001,35.7007242366784));
#1705=CARTESIAN_POINT('',(-57.6997306101085,4.51019800000001,35.7007242366784));
#1706=CARTESIAN_POINT('Origin',(-50.1997306101085,4.51019800000001,35.7007242366784));
#1707=CARTESIAN_POINT('Origin',(50.8002693898915,-28.489802,-25.2992757633216));
#1708=CARTESIAN_POINT('',(58.3002693898915,-28.489802,-25.2992757633216));
#1709=CARTESIAN_POINT('',(50.8002693898915,-28.489802,-32.7992757633216));
#1710=CARTESIAN_POINT('Origin',(50.8002693898915,-28.489802,-25.2992757633216));
#1711=CARTESIAN_POINT('',(50.8002693898915,-28.489802,-32.7992757633216));
#1712=CARTESIAN_POINT('',(58.3002693898915,-28.489802,-25.2992757633216));
#1713=CARTESIAN_POINT('Origin',(47.8002693898915,-28.489802,-32.7992757633216));
#1714=CARTESIAN_POINT('',(-50.1997306101085,-28.489802,-32.7992757633216));
#1715=CARTESIAN_POINT('',(-47.1997306101085,-28.489802,-32.7992757633216));
#1716=CARTESIAN_POINT('',(-50.1997306101085,-28.489802,-32.7992757633216));
#1717=CARTESIAN_POINT('',(-7.,-1.,-32.7992757633216));
#1718=CARTESIAN_POINT('',(-7.,-12.994901,-32.7992757633216));
#1719=CARTESIAN_POINT('',(-6.,-2.,-32.7992757633216));
#1720=CARTESIAN_POINT('Origin',(-6.,-1.,-32.7992757633216));
#1721=CARTESIAN_POINT('',(5.741,-2.,-32.7992757633216));
#1722=CARTESIAN_POINT('',(24.3353846949458,-2.,-32.7992757633216));
#1723=CARTESIAN_POINT('',(6.741,-1.,-32.7992757633216));
#1724=CARTESIAN_POINT('Origin',(5.741,-1.,-32.7992757633216));
#1725=CARTESIAN_POINT('',(6.741,-12.994901,-32.7992757633216));
#1726=CARTESIAN_POINT('Origin',(58.3002693898915,-28.489802,35.7007242366784));
#1727=CARTESIAN_POINT('',(58.3002693898915,-28.489802,-25.2992757633216));
#1728=CARTESIAN_POINT('Origin',(-50.1997306101085,-28.489802,-25.2992757633216));
#1729=CARTESIAN_POINT('',(-57.6997306101085,-28.489802,-25.2992757633216));
#1730=CARTESIAN_POINT('Origin',(-50.1997306101085,-28.489802,-25.2992757633216));
#1731=CARTESIAN_POINT('',(-57.6997306101085,-28.489802,-25.2992757633216));
#1732=CARTESIAN_POINT('Origin',(-50.1997306101085,-28.489802,35.7007242366784));
#1733=CARTESIAN_POINT('',(-57.6997306101085,-28.489802,35.7007242366784));
#1734=CARTESIAN_POINT('Origin',(-50.1997306101085,-28.489802,35.7007242366784));
#1735=CARTESIAN_POINT('',(-57.6997306101085,-28.489802,35.7007242366784));
#1736=CARTESIAN_POINT('Origin',(-57.6997306101085,-28.489802,-25.2992757633216));
#1737=CARTESIAN_POINT('',(-57.6997306101085,-28.489802,35.7007242366784));
#1738=CARTESIAN_POINT('Origin',(-36.0261069544531,-20.8199322773941,42.4598493924947));
#1739=CARTESIAN_POINT('',(-34.5261069544531,-20.8199322773941,39.4598493924947));
#1740=CARTESIAN_POINT('Origin',(-36.0261069544531,-20.8199322773941,39.4598493924947));
#1741=CARTESIAN_POINT('',(-34.5261069544531,-20.8199322773941,42.4598493924947));
#1742=CARTESIAN_POINT('Origin',(-36.0322071371897,-4.56710198956903,42.4598493924947));
#1743=CARTESIAN_POINT('',(-34.5322071371897,-4.56710198956903,39.4598493924947));
#1744=CARTESIAN_POINT('Origin',(-36.0322071371897,-4.56710198956903,39.4598493924947));
#1745=CARTESIAN_POINT('',(-34.5322071371897,-4.56710198956903,42.4598493924947));
#1746=CARTESIAN_POINT('Origin',(-6.,-1.,-30.2992757633216));
#1747=CARTESIAN_POINT('',(-7.,-1.,-29.4181727870477));
#1748=CARTESIAN_POINT('',(-6.,-2.,-29.4181727870477));
#1749=CARTESIAN_POINT('Origin',(-6.,-1.,-29.4181727870477));
#1750=CARTESIAN_POINT('',(-6.,-2.,-30.2992757633216));
#1751=CARTESIAN_POINT('',(-7.,-1.,-30.2992757633216));
#1752=CARTESIAN_POINT('Origin',(0.8705,-2.,-30.2992757633216));
#1753=CARTESIAN_POINT('',(5.741,-2.,-29.4181727870477));
#1754=CARTESIAN_POINT('',(-22.4147494333833,-2.,-29.4181727870477));
#1755=CARTESIAN_POINT('',(5.741,-2.,-30.2992757633216));
#1756=CARTESIAN_POINT('Origin',(5.741,-1.,-30.2992757633216));
#1757=CARTESIAN_POINT('',(6.741,-1.,-29.4181727870477));
#1758=CARTESIAN_POINT('Origin',(5.741,-1.,-29.4181727870477));
#1759=CARTESIAN_POINT('',(6.741,-1.,-30.2992757633216));
#1760=CARTESIAN_POINT('Origin',(6.741,2.5,-30.2992757633216));
#1761=CARTESIAN_POINT('',(6.741,-12.994901,-29.4181727870477));
#1762=CARTESIAN_POINT('Origin',(-7.,2.5,-30.2992757633216));
#1763=CARTESIAN_POINT('',(-7.,-12.994901,-29.4181727870477));
#1764=CARTESIAN_POINT('Origin',(-44.8899988667667,-25.989802,-21.9311727870477));
#1765=CARTESIAN_POINT('',(-42.8899988667667,-1.48980200000001,-21.9311727870477));
#1766=CARTESIAN_POINT('',(-44.8899988667667,-1.48980200000001,-19.9311727870477));
#1767=CARTESIAN_POINT('Origin',(-44.8899988667667,-1.48980200000001,-21.9311727870477));
#1768=CARTESIAN_POINT('',(-44.8899988667667,-26.489802,-19.9311727870477));
#1769=CARTESIAN_POINT('',(-44.8899988667667,-25.989802,-19.9311727870477));
#1770=CARTESIAN_POINT('',(-42.8899988667667,-26.489802,-21.9311727870477));
#1771=CARTESIAN_POINT('Origin',(-44.8899988667667,-26.489802,-21.9311727870477));
#1772=CARTESIAN_POINT('',(-42.8899988667667,-25.989802,-21.9311727870477));
#1773=CARTESIAN_POINT('Origin',(-46.7949988667667,-25.989802,-19.9311727870477));
#1774=CARTESIAN_POINT('',(-50.6999988667667,-1.48980200000001,-19.9311727870477));
#1775=CARTESIAN_POINT('',(-46.7949988667667,-1.48980200000001,-19.9311727870477));
#1776=CARTESIAN_POINT('',(-50.6999988667667,-26.489802,-19.9311727870477));
#1777=CARTESIAN_POINT('',(-50.6999988667667,-27.239802,-19.9311727870477));
#1778=CARTESIAN_POINT('',(-23.2473647384376,-26.489802,-19.9311727870477));
#1779=CARTESIAN_POINT('Origin',(-46.7949988667667,-1.48980200000001,-24.6746727870477));
#1780=CARTESIAN_POINT('',(-42.8899988667667,-1.48980200000001,-29.4181727870477));
#1781=CARTESIAN_POINT('',(-42.8899988667667,-1.48980200000001,-24.6746727870477));
#1782=CARTESIAN_POINT('',(-45.6999988667667,-1.48980200000001,-29.4181727870477));
#1783=CARTESIAN_POINT('',(-46.2474988667667,-1.48980200000001,-29.4181727870477));
#1784=CARTESIAN_POINT('',(-50.6999988667667,-1.48980200000001,-24.4181727870477));
#1785=CARTESIAN_POINT('Origin',(-45.6999988667667,-1.48980200000001,-24.4181727870477));
#1786=CARTESIAN_POINT('',(-50.6999988667667,-1.48980200000001,4.89258830272348));
#1787=CARTESIAN_POINT('',(-46.1970369337692,-1.48980200000001,-26.4553003797844));
#1788=CARTESIAN_POINT('Origin',(-46.1970369337692,-1.48980200000001,-24.4553003797844));
#1789=CARTESIAN_POINT('Origin',(-44.8903828698296,-25.989802,32.4598493924946));
#1790=CARTESIAN_POINT('',(-44.8903828698296,-1.48980200000001,30.4598493924946));
#1791=CARTESIAN_POINT('',(-42.8903828698296,-1.48980200000001,32.4598493924946));
#1792=CARTESIAN_POINT('Origin',(-44.8903828698296,-1.48980200000001,32.4598493924946));
#1793=CARTESIAN_POINT('',(-42.8903828698296,-26.489802,32.4598493924946));
#1794=CARTESIAN_POINT('',(-42.8903828698296,-25.989802,32.4598493924946));
#1795=CARTESIAN_POINT('',(-44.8903828698296,-26.489802,30.4598493924946));
#1796=CARTESIAN_POINT('Origin',(-44.8903828698296,-26.489802,32.4598493924946));
#1797=CARTESIAN_POINT('',(-44.8903828698296,-25.989802,30.4598493924946));
#1798=CARTESIAN_POINT('Origin',(-42.8903828698296,-25.989802,34.9598493924946));
#1799=CARTESIAN_POINT('',(-42.8903828698296,-1.48980200000001,39.4598493924946));
#1800=CARTESIAN_POINT('',(-42.8903828698296,-1.48980200000001,34.9598493924946));
#1801=CARTESIAN_POINT('',(-42.8903828698296,-26.489802,39.4598493924946));
#1802=CARTESIAN_POINT('',(-42.8903828698296,-27.239802,39.4598493924947));
#1803=CARTESIAN_POINT('',(-42.8903828698296,-26.489802,20.0802868145865));
#1804=CARTESIAN_POINT('Origin',(-47.3903828698296,-1.48980200000001,34.9598493924946));
#1805=CARTESIAN_POINT('',(-50.6999988667667,-1.48980200000001,30.4598493924946));
#1806=CARTESIAN_POINT('',(-47.3903828698296,-1.48980200000001,30.4598493924946));
#1807=CARTESIAN_POINT('',(-50.6999988667667,-1.48980200000001,34.4598493924947));
#1808=CARTESIAN_POINT('',(-50.6999988667667,-1.48980200000001,34.7098493924947));
#1809=CARTESIAN_POINT('',(-45.6999988667667,-1.48980200000001,39.4598493924947));
#1810=CARTESIAN_POINT('Origin',(-45.6999988667667,-1.48980200000001,34.4598493924947));
#1811=CARTESIAN_POINT('',(-0.909644213927967,-1.48980200000001,39.4598493924947));
#1812=CARTESIAN_POINT('',(-46.2507642575036,-1.48980200000001,32.9830244365476));
#1813=CARTESIAN_POINT('Origin',(-46.2507642575036,-1.48980200000001,34.9830244365476));
#1814=CARTESIAN_POINT('Origin',(45.0362729785168,-25.989802,32.4598493924947));
#1815=CARTESIAN_POINT('',(43.0362729785168,-1.48980200000001,32.4598493924947));
#1816=CARTESIAN_POINT('',(45.0362729785168,-1.48980200000001,30.4598493924947));
#1817=CARTESIAN_POINT('Origin',(45.0362729785168,-1.48980200000001,32.4598493924947));
#1818=CARTESIAN_POINT('',(45.0362729785168,-26.489802,30.4598493924947));
#1819=CARTESIAN_POINT('',(45.0362729785168,-25.989802,30.4598493924947));
#1820=CARTESIAN_POINT('',(43.0362729785168,-26.489802,32.4598493924947));
#1821=CARTESIAN_POINT('Origin',(45.0362729785168,-26.489802,32.4598493924947));
#1822=CARTESIAN_POINT('',(43.0362729785168,-25.989802,32.4598493924947));
#1823=CARTESIAN_POINT('Origin',(47.5362729785168,-25.989802,30.4598493924947));
#1824=CARTESIAN_POINT('',(50.5710944419737,-1.48980200000001,30.4598493924947));
#1825=CARTESIAN_POINT('',(47.5362729785168,-1.48980200000001,30.4598493924947));
#1826=CARTESIAN_POINT('',(50.5710944419737,-26.489802,30.4598493924947));
#1827=CARTESIAN_POINT('',(50.5710944419737,-27.239802,30.4598493924947));
#1828=CARTESIAN_POINT('',(23.9182711842042,-26.489802,30.4598493924947));
#1829=CARTESIAN_POINT('Origin',(47.5362729785168,-1.48980200000001,34.9598493924947));
#1830=CARTESIAN_POINT('',(43.0362729785168,-1.48980200000001,39.4598493924947));
#1831=CARTESIAN_POINT('',(43.0362729785168,-1.48980200000001,34.9598493924947));
#1832=CARTESIAN_POINT('',(45.5710944419737,-1.48980200000001,39.4598493924947));
#1833=CARTESIAN_POINT('',(46.5536837102453,-1.48980200000001,39.4598493924947));
#1834=CARTESIAN_POINT('',(50.5710944419737,-1.48980200000001,34.4598493924947));
#1835=CARTESIAN_POINT('Origin',(45.5710944419737,-1.48980200000001,34.4598493924947));
#1836=CARTESIAN_POINT('',(50.5710944419737,-1.48980200000001,5.27083830272347));
#1837=CARTESIAN_POINT('',(45.8090296799883,-1.48980200000001,32.9759111632604));
#1838=CARTESIAN_POINT('Origin',(45.8090296799883,-1.48980200000001,34.9759111632604));
#1839=CARTESIAN_POINT('Origin',(45.0362729785168,-25.989802,-21.9311727870477));
#1840=CARTESIAN_POINT('',(45.0362729785168,-1.48980200000001,-19.9311727870477));
#1841=CARTESIAN_POINT('',(43.0362729785168,-1.48980200000001,-21.9311727870477));
#1842=CARTESIAN_POINT('Origin',(45.0362729785168,-1.48980200000001,-21.9311727870477));
#1843=CARTESIAN_POINT('',(43.0362729785168,-26.489802,-21.9311727870477));
#1844=CARTESIAN_POINT('',(43.0362729785168,-25.989802,-21.9311727870477));
#1845=CARTESIAN_POINT('',(45.0362729785168,-26.489802,-19.9311727870477));
#1846=CARTESIAN_POINT('Origin',(45.0362729785168,-26.489802,-21.9311727870477));
#1847=CARTESIAN_POINT('',(45.0362729785168,-25.989802,-19.9311727870477));
#1848=CARTESIAN_POINT('Origin',(43.0362729785168,-25.989802,-24.6746727870477));
#1849=CARTESIAN_POINT('',(43.0362729785168,-1.48980200000001,-29.4181727870477));
#1850=CARTESIAN_POINT('',(43.0362729785168,-1.48980200000001,-24.6746727870477));
#1851=CARTESIAN_POINT('',(43.0362729785168,-26.489802,-29.4181727870477));
#1852=CARTESIAN_POINT('',(43.0362729785168,-27.239802,-29.4181727870477));
#1853=CARTESIAN_POINT('',(43.0362729785168,-26.489802,-9.73697427518467));
#1854=CARTESIAN_POINT('Origin',(46.8037729785168,-1.48980200000001,-24.6746727870477));
#1855=CARTESIAN_POINT('',(50.5710944419737,-1.48980200000001,-19.9311727870477));
#1856=CARTESIAN_POINT('',(46.8037729785168,-1.48980200000001,-19.9311727870477));
#1857=CARTESIAN_POINT('',(50.5710944419737,-1.48980200000001,-24.4181727870477));
#1858=CARTESIAN_POINT('',(50.5710944419737,-1.48980200000001,-24.5464227870477));
#1859=CARTESIAN_POINT('',(45.5710944419737,-1.48980200000001,-29.4181727870477));
#1860=CARTESIAN_POINT('Origin',(45.5710944419737,-1.48980200000001,-24.4181727870477));
#1861=CARTESIAN_POINT('',(0.551887055875078,-1.48980200000001,-29.4181727870477));
#1862=CARTESIAN_POINT('',(45.7871097520518,-1.48980200000001,-26.4181727870477));
#1863=CARTESIAN_POINT('Origin',(45.7871097520518,-1.48980200000001,-24.4181727870477));
#1864=CARTESIAN_POINT('Origin',(45.7871097520518,-3.98980200000001,-24.4181727870477));
#1865=CARTESIAN_POINT('',(45.7871097520518,-6.48980200000001,-26.4181727870477));
#1866=CARTESIAN_POINT('',(45.7871097520518,-3.98980200000001,-26.4181727870477));
#1867=CARTESIAN_POINT('Origin',(45.7871097520518,-6.48980200000001,-24.4181727870477));
#1868=CARTESIAN_POINT('Origin',(45.7871097520518,-6.48980200000001,-24.4181727870477));
#1869=CARTESIAN_POINT('Origin',(-46.1970369337692,-3.98980200000001,-24.4553003797844));
#1870=CARTESIAN_POINT('',(-46.1970369337692,-6.48980200000001,-26.4553003797844));
#1871=CARTESIAN_POINT('',(-46.1970369337692,-3.98980200000001,-26.4553003797844));
#1872=CARTESIAN_POINT('Origin',(-46.1970369337692,-6.48980200000001,-24.4553003797844));
#1873=CARTESIAN_POINT('Origin',(-46.1970369337692,-6.48980200000001,-24.4553003797844));
#1874=CARTESIAN_POINT('Origin',(-46.2507642575036,-3.98980200000001,34.9830244365476));
#1875=CARTESIAN_POINT('',(-46.2507642575036,-6.48980200000001,32.9830244365476));
#1876=CARTESIAN_POINT('',(-46.2507642575036,-3.98980200000001,32.9830244365476));
#1877=CARTESIAN_POINT('Origin',(-46.2507642575036,-6.48980200000001,34.9830244365476));
#1878=CARTESIAN_POINT('Origin',(-46.2507642575036,-6.48980200000001,34.9830244365476));
#1879=CARTESIAN_POINT('Origin',(45.8090296799883,-3.98980200000001,34.9759111632604));
#1880=CARTESIAN_POINT('',(45.8090296799883,-6.48980200000001,32.9759111632604));
#1881=CARTESIAN_POINT('',(45.8090296799883,-3.98980200000001,32.9759111632604));
#1882=CARTESIAN_POINT('Origin',(45.8090296799883,-6.48980200000001,34.9759111632604));
#1883=CARTESIAN_POINT('Origin',(45.8090296799883,-6.48980200000001,34.9759111632604));
#1884=CARTESIAN_POINT('Origin',(-42.8899988667667,-25.989802,-24.6746727870477));
#1885=CARTESIAN_POINT('',(-42.8899988667667,-26.489802,-29.4181727870477));
#1886=CARTESIAN_POINT('',(-42.8899988667667,-26.489802,-9.73697427518466));
#1887=CARTESIAN_POINT('',(-42.8899988667667,-27.239802,-29.4181727870477));
#1888=CARTESIAN_POINT('Origin',(-45.6999988667667,-28.489802,-24.4181727870477));
#1889=CARTESIAN_POINT('',(-45.6999988667667,-28.489802,-29.4181727870477));
#1890=CARTESIAN_POINT('',(-50.6999988667667,-28.489802,-24.4181727870477));
#1891=CARTESIAN_POINT('Origin',(-45.6999988667667,-28.489802,-29.4181727870477));
#1892=CARTESIAN_POINT('',(-22.6998647384376,-26.489802,-29.4181727870477));
#1893=CARTESIAN_POINT('',(45.5710944419737,-28.489802,-29.4181727870477));
#1894=CARTESIAN_POINT('Origin',(46.8037729785168,-25.989802,-19.9311727870477));
#1895=CARTESIAN_POINT('',(50.5710944419737,-26.489802,-19.9311727870477));
#1896=CARTESIAN_POINT('',(23.5520211842042,-26.489802,-19.9311727870477));
#1897=CARTESIAN_POINT('',(50.5710944419737,-27.239802,-19.9311727870477));
#1898=CARTESIAN_POINT('Origin',(50.5710944419737,-28.489802,-24.4181727870477));
#1899=CARTESIAN_POINT('',(50.5710944419737,-26.489802,-9.60872427518465));
#1900=CARTESIAN_POINT('',(50.5710944419737,-28.489802,34.4598493924947));
#1901=CARTESIAN_POINT('',(50.5710944419737,-28.489802,-24.4181727870477));
#1902=CARTESIAN_POINT('Origin',(0.300269389891534,-26.489802,5.2007242366784));
#1903=CARTESIAN_POINT('',(-50.6999988667667,-26.489802,30.4598493924946));
#1904=CARTESIAN_POINT('',(-50.6999988667667,-26.489802,19.8302868145865));
#1905=CARTESIAN_POINT('',(-23.545056739969,-26.489802,30.4598493924946));
#1906=CARTESIAN_POINT('',(43.0362729785168,-26.489802,39.4598493924947));
#1907=CARTESIAN_POINT('',(22.9356819159326,-26.489802,39.4598493924947));
#1908=CARTESIAN_POINT('',(43.0362729785168,-26.489802,20.0802868145865));
#1909=CARTESIAN_POINT('Origin',(-47.3903828698296,-25.989802,30.4598493924946));
#1910=CARTESIAN_POINT('',(-50.6999988667667,-27.239802,30.4598493924946));
#1911=CARTESIAN_POINT('Origin',(-50.6999988667667,-28.489802,34.4598493924947));
#1912=CARTESIAN_POINT('',(-50.6999988667667,-28.489802,34.4598493924947));
#1913=CARTESIAN_POINT('Origin',(43.0362729785168,-25.989802,34.9598493924947));
#1914=CARTESIAN_POINT('',(43.0362729785168,-27.239802,39.4598493924947));
#1915=CARTESIAN_POINT('Origin',(45.5710944419737,-28.489802,34.4598493924947));
#1916=CARTESIAN_POINT('',(45.5710944419737,-28.489802,39.4598493924947));
#1917=CARTESIAN_POINT('Origin',(45.5710944419737,-28.489802,39.4598493924947));
#1918=CARTESIAN_POINT('',(-45.6999988667667,-28.489802,39.4598493924947));
#1919=CARTESIAN_POINT('',(-29.9999993443489,-21.5,39.4598493924946));
#1920=CARTESIAN_POINT('',(30.0000006556511,-21.5,39.4598493924947));
#1921=CARTESIAN_POINT('',(39.5355475488124,-21.5,39.4598493924947));
#1922=CARTESIAN_POINT('',(31.0000006556511,-20.5,39.4598493924947));
#1923=CARTESIAN_POINT('Origin',(30.0000006556511,-20.5,39.4598493924947));
#1924=CARTESIAN_POINT('',(31.0000006556511,-4.7,39.4598493924947));
#1925=CARTESIAN_POINT('',(31.0000006556511,-13.244901,39.4598493924947));
#1926=CARTESIAN_POINT('',(30.0000006556511,-3.7,39.4598493924947));
#1927=CARTESIAN_POINT('Origin',(30.0000006556511,-4.7,39.4598493924947));
#1928=CARTESIAN_POINT('',(-29.9999993443489,-3.7,39.4598493924946));
#1929=CARTESIAN_POINT('',(39.5355475488124,-3.7,39.4598493924947));
#1930=CARTESIAN_POINT('',(-30.9999993443489,-4.7,39.4598493924947));
#1931=CARTESIAN_POINT('Origin',(-29.9999993443489,-4.7,39.4598493924947));
#1932=CARTESIAN_POINT('',(-30.9999993443489,-20.5,39.4598493924947));
#1933=CARTESIAN_POINT('',(-30.9999993443489,-13.244901,39.4598493924947));
#1934=CARTESIAN_POINT('Origin',(-29.9999993443489,-20.5,39.4598493924947));
#1935=CARTESIAN_POINT('Origin',(-29.9999993443489,-4.7,42.5000014007092));
#1936=CARTESIAN_POINT('',(-29.9999993443489,-3.7,42.5000014007092));
#1937=CARTESIAN_POINT('',(-30.9999993443489,-4.7,42.5000014007092));
#1938=CARTESIAN_POINT('Origin',(33.5000006556511,-3.7,42.5000014007092));
#1939=CARTESIAN_POINT('',(30.0000006556511,-3.7,42.5000014007092));
#1940=CARTESIAN_POINT('Origin',(-29.9999993443489,-20.5,42.5000014007092));
#1941=CARTESIAN_POINT('',(-29.9999993443489,-21.5,42.5000014007092));
#1942=CARTESIAN_POINT('',(-30.9999993443489,-20.5,42.5000014007092));
#1943=CARTESIAN_POINT('Origin',(33.5000006556511,-21.5,42.5000014007092));
#1944=CARTESIAN_POINT('',(30.0000006556511,-21.5,42.5000014007092));
#1945=CARTESIAN_POINT('Origin',(30.0000006556511,-4.7,42.5000014007092));
#1946=CARTESIAN_POINT('',(31.0000006556511,-4.7,42.5000014007092));
#1947=CARTESIAN_POINT('Origin',(30.0000006556511,-20.5,42.5000014007092));
#1948=CARTESIAN_POINT('',(31.0000006556511,-20.5,42.5000014007092));
#1949=CARTESIAN_POINT('Origin',(-30.9999993443489,2.,42.5000014007092));
#1950=CARTESIAN_POINT('Origin',(31.0000006556511,2.,42.5000014007092));
#1951=CARTESIAN_POINT('Origin',(45.5710944419737,-28.489802,-24.4181727870477));
#1952=CARTESIAN_POINT('Origin',(-45.6999988667667,-28.489802,34.4598493924947));
#1953=CARTESIAN_POINT('Origin',(0.300269389891534,-28.489802,5.2007242366784));
#1954=UNCERTAINTY_MEASURE_WITH_UNIT(LENGTH_MEASURE(0.01),#1958,
'DISTANCE_ACCURACY_VALUE',
'Maximum model space distance between geometric entities at asserted c
onnectivities');
#1955=UNCERTAINTY_MEASURE_WITH_UNIT(LENGTH_MEASURE(0.01),#1958,
'DISTANCE_ACCURACY_VALUE',
'Maximum model space distance between geometric entities at asserted c
onnectivities');
#1956=(
GEOMETRIC_REPRESENTATION_CONTEXT(3)
GLOBAL_UNCERTAINTY_ASSIGNED_CONTEXT((#1954))
GLOBAL_UNIT_ASSIGNED_CONTEXT((#1958,#1960,#1961))
REPRESENTATION_CONTEXT('','3D')
);
#1957=(
GEOMETRIC_REPRESENTATION_CONTEXT(3)
GLOBAL_UNCERTAINTY_ASSIGNED_CONTEXT((#1955))
GLOBAL_UNIT_ASSIGNED_CONTEXT((#1958,#1960,#1961))
REPRESENTATION_CONTEXT('','3D')
);
#1958=(
LENGTH_UNIT()
NAMED_UNIT(*)
SI_UNIT(.MILLI.,.METRE.)
);
#1959=(
LENGTH_UNIT()
NAMED_UNIT(*)
SI_UNIT($,.METRE.)
);
#1960=(
NAMED_UNIT(*)
PLANE_ANGLE_UNIT()
SI_UNIT($,.RADIAN.)
);
#1961=(
NAMED_UNIT(*)
SI_UNIT($,.STERADIAN.)
SOLID_ANGLE_UNIT()
);
#1962=SHAPE_DEFINITION_REPRESENTATION(#1963,#1964);
#1963=PRODUCT_DEFINITION_SHAPE('',$,#1966);
#1964=SHAPE_REPRESENTATION('',(#1166),#1956);
#1965=PRODUCT_DEFINITION_CONTEXT('part definition',#1970,'design');
#1966=PRODUCT_DEFINITION('2026-09-13-15-33-22-235','Bottom_Case',#1967,
#1965);
#1967=PRODUCT_DEFINITION_FORMATION('',$,#1972);
#1968=PRODUCT_RELATED_PRODUCT_CATEGORY('Bottom_Case','Bottom_Case',(#1972));
#1969=APPLICATION_PROTOCOL_DEFINITION('international standard',
'automotive_design',2009,#1970);
#1970=APPLICATION_CONTEXT(
'Core Data for Automotive Mechanical Design Process');
#1971=PRODUCT_CONTEXT('part definition',#1970,'mechanical');
#1972=PRODUCT('2026-09-13-15-33-22-235','Bottom_Case',$,(#1971));
#1973=PRESENTATION_STYLE_ASSIGNMENT((#1974));
#1974=SURFACE_STYLE_USAGE(.BOTH.,#1975);
#1975=SURFACE_SIDE_STYLE('',(#1976));
#1976=SURFACE_STYLE_FILL_AREA(#1977);
#1977=FILL_AREA_STYLE('Steel - Satin',(#1978));
#1978=FILL_AREA_STYLE_COLOUR('Steel - Satin',#1979);
#1979=COLOUR_RGB('Steel - Satin',0.627450980392157,0.627450980392157,0.627450980392157);
ENDSEC;
END-ISO-10303-21;
