ISO-10303-21;
HEADER;
/* Generated by software containing ST-Developer
 * from STEP Tools, Inc. (www.steptools.com) 
 */

FILE_DESCRIPTION(
/* description */ (''),
/* implementation_level */ '2;1');

FILE_NAME(
/* name */ 'Top_Case.step',
/* time_stamp */ '2026-09-18T22:34:59+06:00',
/* author */ (''),
/* organization */ (''),
/* preprocessor_version */ 'ST-DEVELOPER v20.1',
/* originating_system */ 'Autodesk Translation Framework v15.8.0.0',
/* authorisation */ '');

FILE_SCHEMA (('AUTOMOTIVE_DESIGN { 1 0 10303 214 3 1 1 }'));
ENDSEC;

DATA;
#10=MECHANICAL_DESIGN_GEOMETRIC_PRESENTATION_REPRESENTATION('',(#13),#1357);
#11=SHAPE_REPRESENTATION_RELATIONSHIP('SRR','None',#1364,#12);
#12=ADVANCED_BREP_SHAPE_REPRESENTATION('',(#14),#1356);
#13=STYLED_ITEM('',(#1373),#14);
#14=MANIFOLD_SOLID_BREP('Body1',#801);
#15=FACE_BOUND('',#90,.T.);
#16=FACE_BOUND('',#91,.T.);
#17=FACE_BOUND('',#92,.T.);
#18=FACE_BOUND('',#93,.T.);
#19=FACE_BOUND('',#97,.T.);
#20=FACE_BOUND('',#98,.T.);
#21=FACE_BOUND('',#99,.T.);
#22=FACE_BOUND('',#100,.T.);
#23=PLANE('',#824);
#24=PLANE('',#825);
#25=PLANE('',#843);
#26=PLANE('',#844);
#27=PLANE('',#859);
#28=PLANE('',#861);
#29=PLANE('',#863);
#30=PLANE('',#864);
#31=PLANE('',#866);
#32=PLANE('',#868);
#33=PLANE('',#869);
#34=PLANE('',#871);
#35=PLANE('',#873);
#36=PLANE('',#874);
#37=PLANE('',#876);
#38=PLANE('',#878);
#39=PLANE('',#879);
#40=PLANE('',#881);
#41=PLANE('',#883);
#42=PLANE('',#885);
#43=PLANE('',#887);
#44=PLANE('',#889);
#45=FACE_OUTER_BOUND('',#85,.T.);
#46=FACE_OUTER_BOUND('',#86,.T.);
#47=FACE_OUTER_BOUND('',#87,.T.);
#48=FACE_OUTER_BOUND('',#88,.T.);
#49=FACE_OUTER_BOUND('',#89,.T.);
#50=FACE_OUTER_BOUND('',#94,.T.);
#51=FACE_OUTER_BOUND('',#95,.T.);
#52=FACE_OUTER_BOUND('',#96,.T.);
#53=FACE_OUTER_BOUND('',#101,.T.);
#54=FACE_OUTER_BOUND('',#102,.T.);
#55=FACE_OUTER_BOUND('',#103,.T.);
#56=FACE_OUTER_BOUND('',#104,.T.);
#57=FACE_OUTER_BOUND('',#105,.T.);
#58=FACE_OUTER_BOUND('',#106,.T.);
#59=FACE_OUTER_BOUND('',#107,.T.);
#60=FACE_OUTER_BOUND('',#108,.T.);
#61=FACE_OUTER_BOUND('',#109,.T.);
#62=FACE_OUTER_BOUND('',#110,.T.);
#63=FACE_OUTER_BOUND('',#111,.T.);
#64=FACE_OUTER_BOUND('',#112,.T.);
#65=FACE_OUTER_BOUND('',#113,.T.);
#66=FACE_OUTER_BOUND('',#114,.T.);
#67=FACE_OUTER_BOUND('',#115,.T.);
#68=FACE_OUTER_BOUND('',#116,.T.);
#69=FACE_OUTER_BOUND('',#117,.T.);
#70=FACE_OUTER_BOUND('',#118,.T.);
#71=FACE_OUTER_BOUND('',#119,.T.);
#72=FACE_OUTER_BOUND('',#120,.T.);
#73=FACE_OUTER_BOUND('',#121,.T.);
#74=FACE_OUTER_BOUND('',#122,.T.);
#75=FACE_OUTER_BOUND('',#123,.T.);
#76=FACE_OUTER_BOUND('',#124,.T.);
#77=FACE_OUTER_BOUND('',#125,.T.);
#78=FACE_OUTER_BOUND('',#126,.T.);
#79=FACE_OUTER_BOUND('',#127,.T.);
#80=FACE_OUTER_BOUND('',#128,.T.);
#81=FACE_OUTER_BOUND('',#129,.T.);
#82=FACE_OUTER_BOUND('',#130,.T.);
#83=FACE_OUTER_BOUND('',#131,.T.);
#84=FACE_OUTER_BOUND('',#132,.T.);
#85=EDGE_LOOP('',(#515,#516,#517,#518));
#86=EDGE_LOOP('',(#519,#520,#521,#522));
#87=EDGE_LOOP('',(#523,#524,#525,#526));
#88=EDGE_LOOP('',(#527,#528,#529,#530));
#89=EDGE_LOOP('',(#531,#532,#533,#534,#535,#536,#537,#538));
#90=EDGE_LOOP('',(#539));
#91=EDGE_LOOP('',(#540));
#92=EDGE_LOOP('',(#541,#542,#543,#544,#545,#546,#547,#548));
#93=EDGE_LOOP('',(#549,#550,#551,#552,#553,#554,#555,#556,#557,#558,#559,
#560,#561,#562,#563,#564,#565,#566,#567,#568));
#94=EDGE_LOOP('',(#569,#570,#571,#572));
#95=EDGE_LOOP('',(#573,#574,#575,#576));
#96=EDGE_LOOP('',(#577,#578,#579,#580,#581,#582,#583,#584));
#97=EDGE_LOOP('',(#585));
#98=EDGE_LOOP('',(#586));
#99=EDGE_LOOP('',(#587,#588,#589,#590,#591,#592,#593,#594));
#100=EDGE_LOOP('',(#595,#596,#597,#598,#599,#600,#601,#602,#603,#604,#605,
#606,#607,#608,#609,#610,#611,#612,#613,#614));
#101=EDGE_LOOP('',(#615,#616,#617,#618));
#102=EDGE_LOOP('',(#619,#620,#621,#622));
#103=EDGE_LOOP('',(#623,#624,#625,#626));
#104=EDGE_LOOP('',(#627,#628,#629,#630));
#105=EDGE_LOOP('',(#631,#632,#633,#634));
#106=EDGE_LOOP('',(#635,#636,#637,#638));
#107=EDGE_LOOP('',(#639,#640,#641,#642));
#108=EDGE_LOOP('',(#643,#644,#645,#646));
#109=EDGE_LOOP('',(#647,#648,#649,#650));
#110=EDGE_LOOP('',(#651,#652,#653,#654));
#111=EDGE_LOOP('',(#655,#656,#657,#658));
#112=EDGE_LOOP('',(#659,#660,#661,#662));
#113=EDGE_LOOP('',(#663,#664,#665,#666));
#114=EDGE_LOOP('',(#667,#668,#669,#670));
#115=EDGE_LOOP('',(#671,#672,#673,#674));
#116=EDGE_LOOP('',(#675,#676,#677,#678));
#117=EDGE_LOOP('',(#679,#680,#681,#682));
#118=EDGE_LOOP('',(#683,#684,#685,#686));
#119=EDGE_LOOP('',(#687,#688,#689,#690));
#120=EDGE_LOOP('',(#691,#692,#693,#694));
#121=EDGE_LOOP('',(#695,#696,#697,#698));
#122=EDGE_LOOP('',(#699,#700,#701,#702));
#123=EDGE_LOOP('',(#703,#704,#705,#706));
#124=EDGE_LOOP('',(#707,#708,#709,#710));
#125=EDGE_LOOP('',(#711,#712,#713,#714));
#126=EDGE_LOOP('',(#715,#716,#717,#718));
#127=EDGE_LOOP('',(#719,#720,#721,#722));
#128=EDGE_LOOP('',(#723,#724,#725,#726));
#129=EDGE_LOOP('',(#727,#728,#729,#730));
#130=EDGE_LOOP('',(#731,#732,#733,#734));
#131=EDGE_LOOP('',(#735,#736,#737,#738));
#132=EDGE_LOOP('',(#739,#740,#741,#742));
#133=LINE('',#1128,#211);
#134=LINE('',#1134,#212);
#135=LINE('',#1141,#213);
#136=LINE('',#1144,#214);
#137=LINE('',#1147,#215);
#138=LINE('',#1149,#216);
#139=LINE('',#1150,#217);
#140=LINE('',#1153,#218);
#141=LINE('',#1157,#219);
#142=LINE('',#1161,#220);
#143=LINE('',#1167,#221);
#144=LINE('',#1171,#222);
#145=LINE('',#1175,#223);
#146=LINE('',#1178,#224);
#147=LINE('',#1183,#225);
#148=LINE('',#1185,#226);
#149=LINE('',#1189,#227);
#150=LINE('',#1193,#228);
#151=LINE('',#1195,#229);
#152=LINE('',#1199,#230);
#153=LINE('',#1203,#231);
#154=LINE('',#1205,#232);
#155=LINE('',#1209,#233);
#156=LINE('',#1213,#234);
#157=LINE('',#1215,#235);
#158=LINE('',#1218,#236);
#159=LINE('',#1221,#237);
#160=LINE('',#1225,#238);
#161=LINE('',#1226,#239);
#162=LINE('',#1229,#240);
#163=LINE('',#1233,#241);
#164=LINE('',#1239,#242);
#165=LINE('',#1243,#243);
#166=LINE('',#1247,#244);
#167=LINE('',#1250,#245);
#168=LINE('',#1255,#246);
#169=LINE('',#1259,#247);
#170=LINE('',#1261,#248);
#171=LINE('',#1265,#249);
#172=LINE('',#1269,#250);
#173=LINE('',#1271,#251);
#174=LINE('',#1275,#252);
#175=LINE('',#1279,#253);
#176=LINE('',#1281,#254);
#177=LINE('',#1285,#255);
#178=LINE('',#1289,#256);
#179=LINE('',#1290,#257);
#180=LINE('',#1292,#258);
#181=LINE('',#1294,#259);
#182=LINE('',#1296,#260);
#183=LINE('',#1299,#261);
#184=LINE('',#1300,#262);
#185=LINE('',#1302,#263);
#186=LINE('',#1304,#264);
#187=LINE('',#1306,#265);
#188=LINE('',#1308,#266);
#189=LINE('',#1310,#267);
#190=LINE('',#1312,#268);
#191=LINE('',#1314,#269);
#192=LINE('',#1316,#270);
#193=LINE('',#1318,#271);
#194=LINE('',#1320,#272);
#195=LINE('',#1322,#273);
#196=LINE('',#1324,#274);
#197=LINE('',#1326,#275);
#198=LINE('',#1328,#276);
#199=LINE('',#1330,#277);
#200=LINE('',#1332,#278);
#201=LINE('',#1334,#279);
#202=LINE('',#1336,#280);
#203=LINE('',#1339,#281);
#204=LINE('',#1340,#282);
#205=LINE('',#1342,#283);
#206=LINE('',#1344,#284);
#207=LINE('',#1346,#285);
#208=LINE('',#1348,#286);
#209=LINE('',#1350,#287);
#210=LINE('',#1352,#288);
#211=VECTOR('',#897,2.);
#212=VECTOR('',#904,2.);
#213=VECTOR('',#911,10.);
#214=VECTOR('',#914,10.);
#215=VECTOR('',#917,10.);
#216=VECTOR('',#918,10.);
#217=VECTOR('',#919,10.);
#218=VECTOR('',#922,10.);
#219=VECTOR('',#925,10.);
#220=VECTOR('',#928,10.);
#221=VECTOR('',#933,10.);
#222=VECTOR('',#936,10.);
#223=VECTOR('',#939,10.);
#224=VECTOR('',#942,10.);
#225=VECTOR('',#945,10.);
#226=VECTOR('',#946,10.);
#227=VECTOR('',#949,10.);
#228=VECTOR('',#952,10.);
#229=VECTOR('',#953,10.);
#230=VECTOR('',#956,10.);
#231=VECTOR('',#959,10.);
#232=VECTOR('',#960,10.);
#233=VECTOR('',#963,10.);
#234=VECTOR('',#966,10.);
#235=VECTOR('',#967,10.);
#236=VECTOR('',#970,10.);
#237=VECTOR('',#973,10.);
#238=VECTOR('',#978,10.);
#239=VECTOR('',#979,10.);
#240=VECTOR('',#982,10.);
#241=VECTOR('',#985,10.);
#242=VECTOR('',#990,10.);
#243=VECTOR('',#993,10.);
#244=VECTOR('',#996,10.);
#245=VECTOR('',#999,10.);
#246=VECTOR('',#1002,10.);
#247=VECTOR('',#1005,10.);
#248=VECTOR('',#1006,10.);
#249=VECTOR('',#1009,10.);
#250=VECTOR('',#1012,10.);
#251=VECTOR('',#1013,10.);
#252=VECTOR('',#1016,10.);
#253=VECTOR('',#1019,10.);
#254=VECTOR('',#1020,10.);
#255=VECTOR('',#1023,10.);
#256=VECTOR('',#1026,10.);
#257=VECTOR('',#1027,10.);
#258=VECTOR('',#1030,10.);
#259=VECTOR('',#1033,10.);
#260=VECTOR('',#1036,10.);
#261=VECTOR('',#1041,10.);
#262=VECTOR('',#1042,10.);
#263=VECTOR('',#1045,10.);
#264=VECTOR('',#1048,10.);
#265=VECTOR('',#1051,10.);
#266=VECTOR('',#1054,10.);
#267=VECTOR('',#1057,10.);
#268=VECTOR('',#1060,10.);
#269=VECTOR('',#1063,10.);
#270=VECTOR('',#1066,10.);
#271=VECTOR('',#1069,10.);
#272=VECTOR('',#1072,10.);
#273=VECTOR('',#1075,10.);
#274=VECTOR('',#1078,10.);
#275=VECTOR('',#1081,10.);
#276=VECTOR('',#1084,10.);
#277=VECTOR('',#1087,10.);
#278=VECTOR('',#1090,10.);
#279=VECTOR('',#1093,10.);
#280=VECTOR('',#1096,10.);
#281=VECTOR('',#1101,10.);
#282=VECTOR('',#1102,10.);
#283=VECTOR('',#1105,10.);
#284=VECTOR('',#1108,10.);
#285=VECTOR('',#1111,10.);
#286=VECTOR('',#1114,10.);
#287=VECTOR('',#1117,10.);
#288=VECTOR('',#1120,10.);
#289=CIRCLE('',#816,2.);
#290=CIRCLE('',#817,2.);
#291=CIRCLE('',#819,2.);
#292=CIRCLE('',#820,2.);
#293=CIRCLE('',#822,7.50000000000001);
#294=CIRCLE('',#823,7.50000000000001);
#295=CIRCLE('',#826,7.50000000000001);
#296=CIRCLE('',#827,7.5);
#297=CIRCLE('',#828,7.50000000000001);
#298=CIRCLE('',#829,1.);
#299=CIRCLE('',#830,1.00000000000001);
#300=CIRCLE('',#831,1.00000000000001);
#301=CIRCLE('',#832,1.00000000000001);
#302=CIRCLE('',#833,1.);
#303=CIRCLE('',#834,0.999999999999994);
#304=CIRCLE('',#835,0.999999999999996);
#305=CIRCLE('',#836,1.);
#306=CIRCLE('',#837,1.);
#307=CIRCLE('',#838,1.);
#308=CIRCLE('',#839,1.);
#309=CIRCLE('',#840,0.999999999999998);
#310=CIRCLE('',#842,7.50000000000001);
#311=CIRCLE('',#845,7.5);
#312=CIRCLE('',#846,7.50000000000001);
#313=CIRCLE('',#847,1.);
#314=CIRCLE('',#848,1.00000000000001);
#315=CIRCLE('',#849,1.00000000000001);
#316=CIRCLE('',#850,1.00000000000001);
#317=CIRCLE('',#851,1.);
#318=CIRCLE('',#852,0.999999999999998);
#319=CIRCLE('',#853,1.);
#320=CIRCLE('',#854,1.);
#321=CIRCLE('',#855,1.);
#322=CIRCLE('',#856,1.);
#323=CIRCLE('',#857,0.999999999999996);
#324=CIRCLE('',#858,0.999999999999994);
#325=VERTEX_POINT('',#1125);
#326=VERTEX_POINT('',#1127);
#327=VERTEX_POINT('',#1131);
#328=VERTEX_POINT('',#1133);
#329=VERTEX_POINT('',#1137);
#330=VERTEX_POINT('',#1138);
#331=VERTEX_POINT('',#1140);
#332=VERTEX_POINT('',#1142);
#333=VERTEX_POINT('',#1146);
#334=VERTEX_POINT('',#1148);
#335=VERTEX_POINT('',#1152);
#336=VERTEX_POINT('',#1154);
#337=VERTEX_POINT('',#1156);
#338=VERTEX_POINT('',#1158);
#339=VERTEX_POINT('',#1160);
#340=VERTEX_POINT('',#1163);
#341=VERTEX_POINT('',#1164);
#342=VERTEX_POINT('',#1166);
#343=VERTEX_POINT('',#1168);
#344=VERTEX_POINT('',#1170);
#345=VERTEX_POINT('',#1172);
#346=VERTEX_POINT('',#1174);
#347=VERTEX_POINT('',#1176);
#348=VERTEX_POINT('',#1179);
#349=VERTEX_POINT('',#1180);
#350=VERTEX_POINT('',#1182);
#351=VERTEX_POINT('',#1184);
#352=VERTEX_POINT('',#1186);
#353=VERTEX_POINT('',#1188);
#354=VERTEX_POINT('',#1190);
#355=VERTEX_POINT('',#1192);
#356=VERTEX_POINT('',#1194);
#357=VERTEX_POINT('',#1196);
#358=VERTEX_POINT('',#1198);
#359=VERTEX_POINT('',#1200);
#360=VERTEX_POINT('',#1202);
#361=VERTEX_POINT('',#1204);
#362=VERTEX_POINT('',#1206);
#363=VERTEX_POINT('',#1208);
#364=VERTEX_POINT('',#1210);
#365=VERTEX_POINT('',#1212);
#366=VERTEX_POINT('',#1214);
#367=VERTEX_POINT('',#1216);
#368=VERTEX_POINT('',#1220);
#369=VERTEX_POINT('',#1224);
#370=VERTEX_POINT('',#1228);
#371=VERTEX_POINT('',#1230);
#372=VERTEX_POINT('',#1232);
#373=VERTEX_POINT('',#1235);
#374=VERTEX_POINT('',#1236);
#375=VERTEX_POINT('',#1238);
#376=VERTEX_POINT('',#1240);
#377=VERTEX_POINT('',#1242);
#378=VERTEX_POINT('',#1244);
#379=VERTEX_POINT('',#1246);
#380=VERTEX_POINT('',#1248);
#381=VERTEX_POINT('',#1251);
#382=VERTEX_POINT('',#1252);
#383=VERTEX_POINT('',#1254);
#384=VERTEX_POINT('',#1256);
#385=VERTEX_POINT('',#1258);
#386=VERTEX_POINT('',#1260);
#387=VERTEX_POINT('',#1262);
#388=VERTEX_POINT('',#1264);
#389=VERTEX_POINT('',#1266);
#390=VERTEX_POINT('',#1268);
#391=VERTEX_POINT('',#1270);
#392=VERTEX_POINT('',#1272);
#393=VERTEX_POINT('',#1274);
#394=VERTEX_POINT('',#1276);
#395=VERTEX_POINT('',#1278);
#396=VERTEX_POINT('',#1280);
#397=VERTEX_POINT('',#1282);
#398=VERTEX_POINT('',#1284);
#399=VERTEX_POINT('',#1286);
#400=VERTEX_POINT('',#1288);
#401=EDGE_CURVE('',#325,#325,#289,.T.);
#402=EDGE_CURVE('',#325,#326,#133,.T.);
#403=EDGE_CURVE('',#326,#326,#290,.T.);
#404=EDGE_CURVE('',#327,#327,#291,.T.);
#405=EDGE_CURVE('',#327,#328,#134,.T.);
#406=EDGE_CURVE('',#328,#328,#292,.T.);
#407=EDGE_CURVE('',#329,#330,#293,.T.);
#408=EDGE_CURVE('',#330,#331,#135,.T.);
#409=EDGE_CURVE('',#331,#332,#294,.T.);
#410=EDGE_CURVE('',#332,#329,#136,.T.);
#411=EDGE_CURVE('',#333,#330,#137,.T.);
#412=EDGE_CURVE('',#334,#333,#138,.T.);
#413=EDGE_CURVE('',#331,#334,#139,.T.);
#414=EDGE_CURVE('',#329,#335,#140,.T.);
#415=EDGE_CURVE('',#336,#335,#295,.T.);
#416=EDGE_CURVE('',#336,#337,#141,.T.);
#417=EDGE_CURVE('',#338,#337,#296,.T.);
#418=EDGE_CURVE('',#338,#339,#142,.T.);
#419=EDGE_CURVE('',#333,#339,#297,.T.);
#420=EDGE_CURVE('',#340,#341,#298,.T.);
#421=EDGE_CURVE('',#342,#340,#143,.T.);
#422=EDGE_CURVE('',#343,#342,#299,.T.);
#423=EDGE_CURVE('',#344,#343,#144,.T.);
#424=EDGE_CURVE('',#345,#344,#300,.T.);
#425=EDGE_CURVE('',#346,#345,#145,.T.);
#426=EDGE_CURVE('',#347,#346,#301,.T.);
#427=EDGE_CURVE('',#341,#347,#146,.T.);
#428=EDGE_CURVE('',#348,#349,#302,.T.);
#429=EDGE_CURVE('',#350,#348,#147,.T.);
#430=EDGE_CURVE('',#351,#350,#148,.T.);
#431=EDGE_CURVE('',#352,#351,#303,.T.);
#432=EDGE_CURVE('',#353,#352,#149,.T.);
#433=EDGE_CURVE('',#354,#353,#304,.T.);
#434=EDGE_CURVE('',#355,#354,#150,.T.);
#435=EDGE_CURVE('',#356,#355,#151,.T.);
#436=EDGE_CURVE('',#357,#356,#305,.T.);
#437=EDGE_CURVE('',#358,#357,#152,.T.);
#438=EDGE_CURVE('',#359,#358,#306,.T.);
#439=EDGE_CURVE('',#360,#359,#153,.T.);
#440=EDGE_CURVE('',#361,#360,#154,.T.);
#441=EDGE_CURVE('',#362,#361,#307,.T.);
#442=EDGE_CURVE('',#363,#362,#155,.T.);
#443=EDGE_CURVE('',#364,#363,#308,.T.);
#444=EDGE_CURVE('',#365,#364,#156,.T.);
#445=EDGE_CURVE('',#366,#365,#157,.T.);
#446=EDGE_CURVE('',#367,#366,#309,.T.);
#447=EDGE_CURVE('',#349,#367,#158,.T.);
#448=EDGE_CURVE('',#339,#368,#159,.T.);
#449=EDGE_CURVE('',#368,#334,#310,.T.);
#450=EDGE_CURVE('',#369,#332,#160,.T.);
#451=EDGE_CURVE('',#335,#369,#161,.T.);
#452=EDGE_CURVE('',#368,#370,#162,.T.);
#453=EDGE_CURVE('',#371,#370,#311,.T.);
#454=EDGE_CURVE('',#371,#372,#163,.T.);
#455=EDGE_CURVE('',#369,#372,#312,.T.);
#456=EDGE_CURVE('',#373,#374,#313,.T.);
#457=EDGE_CURVE('',#374,#375,#164,.T.);
#458=EDGE_CURVE('',#375,#376,#314,.T.);
#459=EDGE_CURVE('',#376,#377,#165,.T.);
#460=EDGE_CURVE('',#377,#378,#315,.T.);
#461=EDGE_CURVE('',#378,#379,#166,.T.);
#462=EDGE_CURVE('',#379,#380,#316,.T.);
#463=EDGE_CURVE('',#380,#373,#167,.T.);
#464=EDGE_CURVE('',#381,#382,#317,.T.);
#465=EDGE_CURVE('',#382,#383,#168,.T.);
#466=EDGE_CURVE('',#383,#384,#318,.T.);
#467=EDGE_CURVE('',#384,#385,#169,.T.);
#468=EDGE_CURVE('',#385,#386,#170,.T.);
#469=EDGE_CURVE('',#386,#387,#319,.T.);
#470=EDGE_CURVE('',#387,#388,#171,.T.);
#471=EDGE_CURVE('',#388,#389,#320,.T.);
#472=EDGE_CURVE('',#389,#390,#172,.T.);
#473=EDGE_CURVE('',#390,#391,#173,.T.);
#474=EDGE_CURVE('',#391,#392,#321,.T.);
#475=EDGE_CURVE('',#392,#393,#174,.T.);
#476=EDGE_CURVE('',#393,#394,#322,.T.);
#477=EDGE_CURVE('',#394,#395,#175,.T.);
#478=EDGE_CURVE('',#395,#396,#176,.T.);
#479=EDGE_CURVE('',#396,#397,#323,.T.);
#480=EDGE_CURVE('',#397,#398,#177,.T.);
#481=EDGE_CURVE('',#398,#399,#324,.T.);
#482=EDGE_CURVE('',#399,#400,#178,.T.);
#483=EDGE_CURVE('',#400,#381,#179,.T.);
#484=EDGE_CURVE('',#370,#338,#180,.T.);
#485=EDGE_CURVE('',#337,#371,#181,.T.);
#486=EDGE_CURVE('',#372,#336,#182,.T.);
#487=EDGE_CURVE('',#348,#381,#183,.T.);
#488=EDGE_CURVE('',#350,#400,#184,.T.);
#489=EDGE_CURVE('',#351,#399,#185,.T.);
#490=EDGE_CURVE('',#352,#398,#186,.T.);
#491=EDGE_CURVE('',#353,#397,#187,.T.);
#492=EDGE_CURVE('',#354,#396,#188,.T.);
#493=EDGE_CURVE('',#355,#395,#189,.T.);
#494=EDGE_CURVE('',#356,#394,#190,.T.);
#495=EDGE_CURVE('',#357,#393,#191,.T.);
#496=EDGE_CURVE('',#358,#392,#192,.T.);
#497=EDGE_CURVE('',#359,#391,#193,.T.);
#498=EDGE_CURVE('',#360,#390,#194,.T.);
#499=EDGE_CURVE('',#361,#389,#195,.T.);
#500=EDGE_CURVE('',#362,#388,#196,.T.);
#501=EDGE_CURVE('',#363,#387,#197,.T.);
#502=EDGE_CURVE('',#364,#386,#198,.T.);
#503=EDGE_CURVE('',#365,#385,#199,.T.);
#504=EDGE_CURVE('',#366,#384,#200,.T.);
#505=EDGE_CURVE('',#367,#383,#201,.T.);
#506=EDGE_CURVE('',#349,#382,#202,.T.);
#507=EDGE_CURVE('',#340,#373,#203,.T.);
#508=EDGE_CURVE('',#342,#380,#204,.T.);
#509=EDGE_CURVE('',#343,#379,#205,.T.);
#510=EDGE_CURVE('',#344,#378,#206,.T.);
#511=EDGE_CURVE('',#345,#377,#207,.T.);
#512=EDGE_CURVE('',#346,#376,#208,.T.);
#513=EDGE_CURVE('',#347,#375,#209,.T.);
#514=EDGE_CURVE('',#341,#374,#210,.T.);
#515=ORIENTED_EDGE('',*,*,#401,.F.);
#516=ORIENTED_EDGE('',*,*,#402,.T.);
#517=ORIENTED_EDGE('',*,*,#403,.F.);
#518=ORIENTED_EDGE('',*,*,#402,.F.);
#519=ORIENTED_EDGE('',*,*,#404,.F.);
#520=ORIENTED_EDGE('',*,*,#405,.T.);
#521=ORIENTED_EDGE('',*,*,#406,.F.);
#522=ORIENTED_EDGE('',*,*,#405,.F.);
#523=ORIENTED_EDGE('',*,*,#407,.T.);
#524=ORIENTED_EDGE('',*,*,#408,.T.);
#525=ORIENTED_EDGE('',*,*,#409,.T.);
#526=ORIENTED_EDGE('',*,*,#410,.T.);
#527=ORIENTED_EDGE('',*,*,#408,.F.);
#528=ORIENTED_EDGE('',*,*,#411,.F.);
#529=ORIENTED_EDGE('',*,*,#412,.F.);
#530=ORIENTED_EDGE('',*,*,#413,.F.);
#531=ORIENTED_EDGE('',*,*,#407,.F.);
#532=ORIENTED_EDGE('',*,*,#414,.T.);
#533=ORIENTED_EDGE('',*,*,#415,.F.);
#534=ORIENTED_EDGE('',*,*,#416,.T.);
#535=ORIENTED_EDGE('',*,*,#417,.F.);
#536=ORIENTED_EDGE('',*,*,#418,.T.);
#537=ORIENTED_EDGE('',*,*,#419,.F.);
#538=ORIENTED_EDGE('',*,*,#411,.T.);
#539=ORIENTED_EDGE('',*,*,#403,.T.);
#540=ORIENTED_EDGE('',*,*,#406,.T.);
#541=ORIENTED_EDGE('',*,*,#420,.F.);
#542=ORIENTED_EDGE('',*,*,#421,.F.);
#543=ORIENTED_EDGE('',*,*,#422,.F.);
#544=ORIENTED_EDGE('',*,*,#423,.F.);
#545=ORIENTED_EDGE('',*,*,#424,.F.);
#546=ORIENTED_EDGE('',*,*,#425,.F.);
#547=ORIENTED_EDGE('',*,*,#426,.F.);
#548=ORIENTED_EDGE('',*,*,#427,.F.);
#549=ORIENTED_EDGE('',*,*,#428,.F.);
#550=ORIENTED_EDGE('',*,*,#429,.F.);
#551=ORIENTED_EDGE('',*,*,#430,.F.);
#552=ORIENTED_EDGE('',*,*,#431,.F.);
#553=ORIENTED_EDGE('',*,*,#432,.F.);
#554=ORIENTED_EDGE('',*,*,#433,.F.);
#555=ORIENTED_EDGE('',*,*,#434,.F.);
#556=ORIENTED_EDGE('',*,*,#435,.F.);
#557=ORIENTED_EDGE('',*,*,#436,.F.);
#558=ORIENTED_EDGE('',*,*,#437,.F.);
#559=ORIENTED_EDGE('',*,*,#438,.F.);
#560=ORIENTED_EDGE('',*,*,#439,.F.);
#561=ORIENTED_EDGE('',*,*,#440,.F.);
#562=ORIENTED_EDGE('',*,*,#441,.F.);
#563=ORIENTED_EDGE('',*,*,#442,.F.);
#564=ORIENTED_EDGE('',*,*,#443,.F.);
#565=ORIENTED_EDGE('',*,*,#444,.F.);
#566=ORIENTED_EDGE('',*,*,#445,.F.);
#567=ORIENTED_EDGE('',*,*,#446,.F.);
#568=ORIENTED_EDGE('',*,*,#447,.F.);
#569=ORIENTED_EDGE('',*,*,#419,.T.);
#570=ORIENTED_EDGE('',*,*,#448,.T.);
#571=ORIENTED_EDGE('',*,*,#449,.T.);
#572=ORIENTED_EDGE('',*,*,#412,.T.);
#573=ORIENTED_EDGE('',*,*,#410,.F.);
#574=ORIENTED_EDGE('',*,*,#450,.F.);
#575=ORIENTED_EDGE('',*,*,#451,.F.);
#576=ORIENTED_EDGE('',*,*,#414,.F.);
#577=ORIENTED_EDGE('',*,*,#409,.F.);
#578=ORIENTED_EDGE('',*,*,#413,.T.);
#579=ORIENTED_EDGE('',*,*,#449,.F.);
#580=ORIENTED_EDGE('',*,*,#452,.T.);
#581=ORIENTED_EDGE('',*,*,#453,.F.);
#582=ORIENTED_EDGE('',*,*,#454,.T.);
#583=ORIENTED_EDGE('',*,*,#455,.F.);
#584=ORIENTED_EDGE('',*,*,#450,.T.);
#585=ORIENTED_EDGE('',*,*,#401,.T.);
#586=ORIENTED_EDGE('',*,*,#404,.T.);
#587=ORIENTED_EDGE('',*,*,#456,.T.);
#588=ORIENTED_EDGE('',*,*,#457,.T.);
#589=ORIENTED_EDGE('',*,*,#458,.T.);
#590=ORIENTED_EDGE('',*,*,#459,.T.);
#591=ORIENTED_EDGE('',*,*,#460,.T.);
#592=ORIENTED_EDGE('',*,*,#461,.T.);
#593=ORIENTED_EDGE('',*,*,#462,.T.);
#594=ORIENTED_EDGE('',*,*,#463,.T.);
#595=ORIENTED_EDGE('',*,*,#464,.T.);
#596=ORIENTED_EDGE('',*,*,#465,.T.);
#597=ORIENTED_EDGE('',*,*,#466,.T.);
#598=ORIENTED_EDGE('',*,*,#467,.T.);
#599=ORIENTED_EDGE('',*,*,#468,.T.);
#600=ORIENTED_EDGE('',*,*,#469,.T.);
#601=ORIENTED_EDGE('',*,*,#470,.T.);
#602=ORIENTED_EDGE('',*,*,#471,.T.);
#603=ORIENTED_EDGE('',*,*,#472,.T.);
#604=ORIENTED_EDGE('',*,*,#473,.T.);
#605=ORIENTED_EDGE('',*,*,#474,.T.);
#606=ORIENTED_EDGE('',*,*,#475,.T.);
#607=ORIENTED_EDGE('',*,*,#476,.T.);
#608=ORIENTED_EDGE('',*,*,#477,.T.);
#609=ORIENTED_EDGE('',*,*,#478,.T.);
#610=ORIENTED_EDGE('',*,*,#479,.T.);
#611=ORIENTED_EDGE('',*,*,#480,.T.);
#612=ORIENTED_EDGE('',*,*,#481,.T.);
#613=ORIENTED_EDGE('',*,*,#482,.T.);
#614=ORIENTED_EDGE('',*,*,#483,.T.);
#615=ORIENTED_EDGE('',*,*,#448,.F.);
#616=ORIENTED_EDGE('',*,*,#418,.F.);
#617=ORIENTED_EDGE('',*,*,#484,.F.);
#618=ORIENTED_EDGE('',*,*,#452,.F.);
#619=ORIENTED_EDGE('',*,*,#417,.T.);
#620=ORIENTED_EDGE('',*,*,#485,.T.);
#621=ORIENTED_EDGE('',*,*,#453,.T.);
#622=ORIENTED_EDGE('',*,*,#484,.T.);
#623=ORIENTED_EDGE('',*,*,#485,.F.);
#624=ORIENTED_EDGE('',*,*,#416,.F.);
#625=ORIENTED_EDGE('',*,*,#486,.F.);
#626=ORIENTED_EDGE('',*,*,#454,.F.);
#627=ORIENTED_EDGE('',*,*,#415,.T.);
#628=ORIENTED_EDGE('',*,*,#451,.T.);
#629=ORIENTED_EDGE('',*,*,#455,.T.);
#630=ORIENTED_EDGE('',*,*,#486,.T.);
#631=ORIENTED_EDGE('',*,*,#429,.T.);
#632=ORIENTED_EDGE('',*,*,#487,.T.);
#633=ORIENTED_EDGE('',*,*,#483,.F.);
#634=ORIENTED_EDGE('',*,*,#488,.F.);
#635=ORIENTED_EDGE('',*,*,#430,.T.);
#636=ORIENTED_EDGE('',*,*,#488,.T.);
#637=ORIENTED_EDGE('',*,*,#482,.F.);
#638=ORIENTED_EDGE('',*,*,#489,.F.);
#639=ORIENTED_EDGE('',*,*,#431,.T.);
#640=ORIENTED_EDGE('',*,*,#489,.T.);
#641=ORIENTED_EDGE('',*,*,#481,.F.);
#642=ORIENTED_EDGE('',*,*,#490,.F.);
#643=ORIENTED_EDGE('',*,*,#432,.T.);
#644=ORIENTED_EDGE('',*,*,#490,.T.);
#645=ORIENTED_EDGE('',*,*,#480,.F.);
#646=ORIENTED_EDGE('',*,*,#491,.F.);
#647=ORIENTED_EDGE('',*,*,#433,.T.);
#648=ORIENTED_EDGE('',*,*,#491,.T.);
#649=ORIENTED_EDGE('',*,*,#479,.F.);
#650=ORIENTED_EDGE('',*,*,#492,.F.);
#651=ORIENTED_EDGE('',*,*,#434,.T.);
#652=ORIENTED_EDGE('',*,*,#492,.T.);
#653=ORIENTED_EDGE('',*,*,#478,.F.);
#654=ORIENTED_EDGE('',*,*,#493,.F.);
#655=ORIENTED_EDGE('',*,*,#435,.T.);
#656=ORIENTED_EDGE('',*,*,#493,.T.);
#657=ORIENTED_EDGE('',*,*,#477,.F.);
#658=ORIENTED_EDGE('',*,*,#494,.F.);
#659=ORIENTED_EDGE('',*,*,#436,.T.);
#660=ORIENTED_EDGE('',*,*,#494,.T.);
#661=ORIENTED_EDGE('',*,*,#476,.F.);
#662=ORIENTED_EDGE('',*,*,#495,.F.);
#663=ORIENTED_EDGE('',*,*,#437,.T.);
#664=ORIENTED_EDGE('',*,*,#495,.T.);
#665=ORIENTED_EDGE('',*,*,#475,.F.);
#666=ORIENTED_EDGE('',*,*,#496,.F.);
#667=ORIENTED_EDGE('',*,*,#438,.T.);
#668=ORIENTED_EDGE('',*,*,#496,.T.);
#669=ORIENTED_EDGE('',*,*,#474,.F.);
#670=ORIENTED_EDGE('',*,*,#497,.F.);
#671=ORIENTED_EDGE('',*,*,#439,.T.);
#672=ORIENTED_EDGE('',*,*,#497,.T.);
#673=ORIENTED_EDGE('',*,*,#473,.F.);
#674=ORIENTED_EDGE('',*,*,#498,.F.);
#675=ORIENTED_EDGE('',*,*,#440,.T.);
#676=ORIENTED_EDGE('',*,*,#498,.T.);
#677=ORIENTED_EDGE('',*,*,#472,.F.);
#678=ORIENTED_EDGE('',*,*,#499,.F.);
#679=ORIENTED_EDGE('',*,*,#441,.T.);
#680=ORIENTED_EDGE('',*,*,#499,.T.);
#681=ORIENTED_EDGE('',*,*,#471,.F.);
#682=ORIENTED_EDGE('',*,*,#500,.F.);
#683=ORIENTED_EDGE('',*,*,#442,.T.);
#684=ORIENTED_EDGE('',*,*,#500,.T.);
#685=ORIENTED_EDGE('',*,*,#470,.F.);
#686=ORIENTED_EDGE('',*,*,#501,.F.);
#687=ORIENTED_EDGE('',*,*,#443,.T.);
#688=ORIENTED_EDGE('',*,*,#501,.T.);
#689=ORIENTED_EDGE('',*,*,#469,.F.);
#690=ORIENTED_EDGE('',*,*,#502,.F.);
#691=ORIENTED_EDGE('',*,*,#444,.T.);
#692=ORIENTED_EDGE('',*,*,#502,.T.);
#693=ORIENTED_EDGE('',*,*,#468,.F.);
#694=ORIENTED_EDGE('',*,*,#503,.F.);
#695=ORIENTED_EDGE('',*,*,#445,.T.);
#696=ORIENTED_EDGE('',*,*,#503,.T.);
#697=ORIENTED_EDGE('',*,*,#467,.F.);
#698=ORIENTED_EDGE('',*,*,#504,.F.);
#699=ORIENTED_EDGE('',*,*,#446,.T.);
#700=ORIENTED_EDGE('',*,*,#504,.T.);
#701=ORIENTED_EDGE('',*,*,#466,.F.);
#702=ORIENTED_EDGE('',*,*,#505,.F.);
#703=ORIENTED_EDGE('',*,*,#447,.T.);
#704=ORIENTED_EDGE('',*,*,#505,.T.);
#705=ORIENTED_EDGE('',*,*,#465,.F.);
#706=ORIENTED_EDGE('',*,*,#506,.F.);
#707=ORIENTED_EDGE('',*,*,#428,.T.);
#708=ORIENTED_EDGE('',*,*,#506,.T.);
#709=ORIENTED_EDGE('',*,*,#464,.F.);
#710=ORIENTED_EDGE('',*,*,#487,.F.);
#711=ORIENTED_EDGE('',*,*,#421,.T.);
#712=ORIENTED_EDGE('',*,*,#507,.T.);
#713=ORIENTED_EDGE('',*,*,#463,.F.);
#714=ORIENTED_EDGE('',*,*,#508,.F.);
#715=ORIENTED_EDGE('',*,*,#422,.T.);
#716=ORIENTED_EDGE('',*,*,#508,.T.);
#717=ORIENTED_EDGE('',*,*,#462,.F.);
#718=ORIENTED_EDGE('',*,*,#509,.F.);
#719=ORIENTED_EDGE('',*,*,#423,.T.);
#720=ORIENTED_EDGE('',*,*,#509,.T.);
#721=ORIENTED_EDGE('',*,*,#461,.F.);
#722=ORIENTED_EDGE('',*,*,#510,.F.);
#723=ORIENTED_EDGE('',*,*,#424,.T.);
#724=ORIENTED_EDGE('',*,*,#510,.T.);
#725=ORIENTED_EDGE('',*,*,#460,.F.);
#726=ORIENTED_EDGE('',*,*,#511,.F.);
#727=ORIENTED_EDGE('',*,*,#425,.T.);
#728=ORIENTED_EDGE('',*,*,#511,.T.);
#729=ORIENTED_EDGE('',*,*,#459,.F.);
#730=ORIENTED_EDGE('',*,*,#512,.F.);
#731=ORIENTED_EDGE('',*,*,#426,.T.);
#732=ORIENTED_EDGE('',*,*,#512,.T.);
#733=ORIENTED_EDGE('',*,*,#458,.F.);
#734=ORIENTED_EDGE('',*,*,#513,.F.);
#735=ORIENTED_EDGE('',*,*,#427,.T.);
#736=ORIENTED_EDGE('',*,*,#513,.T.);
#737=ORIENTED_EDGE('',*,*,#457,.F.);
#738=ORIENTED_EDGE('',*,*,#514,.F.);
#739=ORIENTED_EDGE('',*,*,#420,.T.);
#740=ORIENTED_EDGE('',*,*,#514,.T.);
#741=ORIENTED_EDGE('',*,*,#456,.F.);
#742=ORIENTED_EDGE('',*,*,#507,.F.);
#743=CYLINDRICAL_SURFACE('',#815,2.);
#744=CYLINDRICAL_SURFACE('',#818,2.);
#745=CYLINDRICAL_SURFACE('',#821,7.50000000000001);
#746=CYLINDRICAL_SURFACE('',#841,7.50000000000001);
#747=CYLINDRICAL_SURFACE('',#860,7.5);
#748=CYLINDRICAL_SURFACE('',#862,7.50000000000001);
#749=CYLINDRICAL_SURFACE('',#865,0.999999999999994);
#750=CYLINDRICAL_SURFACE('',#867,0.999999999999996);
#751=CYLINDRICAL_SURFACE('',#870,1.);
#752=CYLINDRICAL_SURFACE('',#872,1.);
#753=CYLINDRICAL_SURFACE('',#875,1.);
#754=CYLINDRICAL_SURFACE('',#877,1.);
#755=CYLINDRICAL_SURFACE('',#880,0.999999999999998);
#756=CYLINDRICAL_SURFACE('',#882,1.);
#757=CYLINDRICAL_SURFACE('',#884,1.00000000000001);
#758=CYLINDRICAL_SURFACE('',#886,1.00000000000001);
#759=CYLINDRICAL_SURFACE('',#888,1.00000000000001);
#760=CYLINDRICAL_SURFACE('',#890,1.);
#761=ADVANCED_FACE('',(#45),#743,.F.);
#762=ADVANCED_FACE('',(#46),#744,.F.);
#763=ADVANCED_FACE('',(#47),#745,.T.);
#764=ADVANCED_FACE('',(#48),#23,.T.);
#765=ADVANCED_FACE('',(#49,#15,#16,#17,#18),#24,.F.);
#766=ADVANCED_FACE('',(#50),#746,.T.);
#767=ADVANCED_FACE('',(#51),#25,.T.);
#768=ADVANCED_FACE('',(#52,#19,#20,#21,#22),#26,.T.);
#769=ADVANCED_FACE('',(#53),#27,.T.);
#770=ADVANCED_FACE('',(#54),#747,.T.);
#771=ADVANCED_FACE('',(#55),#28,.T.);
#772=ADVANCED_FACE('',(#56),#748,.T.);
#773=ADVANCED_FACE('',(#57),#29,.T.);
#774=ADVANCED_FACE('',(#58),#30,.T.);
#775=ADVANCED_FACE('',(#59),#749,.F.);
#776=ADVANCED_FACE('',(#60),#31,.T.);
#777=ADVANCED_FACE('',(#61),#750,.F.);
#778=ADVANCED_FACE('',(#62),#32,.T.);
#779=ADVANCED_FACE('',(#63),#33,.T.);
#780=ADVANCED_FACE('',(#64),#751,.F.);
#781=ADVANCED_FACE('',(#65),#34,.T.);
#782=ADVANCED_FACE('',(#66),#752,.F.);
#783=ADVANCED_FACE('',(#67),#35,.T.);
#784=ADVANCED_FACE('',(#68),#36,.T.);
#785=ADVANCED_FACE('',(#69),#753,.F.);
#786=ADVANCED_FACE('',(#70),#37,.T.);
#787=ADVANCED_FACE('',(#71),#754,.F.);
#788=ADVANCED_FACE('',(#72),#38,.T.);
#789=ADVANCED_FACE('',(#73),#39,.T.);
#790=ADVANCED_FACE('',(#74),#755,.F.);
#791=ADVANCED_FACE('',(#75),#40,.T.);
#792=ADVANCED_FACE('',(#76),#756,.F.);
#793=ADVANCED_FACE('',(#77),#41,.T.);
#794=ADVANCED_FACE('',(#78),#757,.F.);
#795=ADVANCED_FACE('',(#79),#42,.T.);
#796=ADVANCED_FACE('',(#80),#758,.F.);
#797=ADVANCED_FACE('',(#81),#43,.T.);
#798=ADVANCED_FACE('',(#82),#759,.F.);
#799=ADVANCED_FACE('',(#83),#44,.T.);
#800=ADVANCED_FACE('',(#84),#760,.F.);
#801=CLOSED_SHELL('',(#761,#762,#763,#764,#765,#766,#767,#768,#769,#770,
#771,#772,#773,#774,#775,#776,#777,#778,#779,#780,#781,#782,#783,#784,#785,
#786,#787,#788,#789,#790,#791,#792,#793,#794,#795,#796,#797,#798,#799,#800));
#802=DERIVED_UNIT_ELEMENT(#804,1.);
#803=DERIVED_UNIT_ELEMENT(#1359,-3.);
#804=(
MASS_UNIT()
NAMED_UNIT(*)
SI_UNIT(.KILO.,.GRAM.)
);
#805=DERIVED_UNIT((#802,#803));
#806=MEASURE_REPRESENTATION_ITEM('density measure',
POSITIVE_RATIO_MEASURE(7850.),#805);
#807=PROPERTY_DEFINITION_REPRESENTATION(#812,#809);
#808=PROPERTY_DEFINITION_REPRESENTATION(#813,#810);
#809=REPRESENTATION('material name',(#811),#1356);
#810=REPRESENTATION('density',(#806),#1356);
#811=DESCRIPTIVE_REPRESENTATION_ITEM('Steel','Steel');
#812=PROPERTY_DEFINITION('material property','material name',#1366);
#813=PROPERTY_DEFINITION('material property','density of part',#1366);
#814=AXIS2_PLACEMENT_3D('',#1123,#891,#892);
#815=AXIS2_PLACEMENT_3D('',#1124,#893,#894);
#816=AXIS2_PLACEMENT_3D('',#1126,#895,#896);
#817=AXIS2_PLACEMENT_3D('',#1129,#898,#899);
#818=AXIS2_PLACEMENT_3D('',#1130,#900,#901);
#819=AXIS2_PLACEMENT_3D('',#1132,#902,#903);
#820=AXIS2_PLACEMENT_3D('',#1135,#905,#906);
#821=AXIS2_PLACEMENT_3D('',#1136,#907,#908);
#822=AXIS2_PLACEMENT_3D('',#1139,#909,#910);
#823=AXIS2_PLACEMENT_3D('',#1143,#912,#913);
#824=AXIS2_PLACEMENT_3D('',#1145,#915,#916);
#825=AXIS2_PLACEMENT_3D('',#1151,#920,#921);
#826=AXIS2_PLACEMENT_3D('',#1155,#923,#924);
#827=AXIS2_PLACEMENT_3D('',#1159,#926,#927);
#828=AXIS2_PLACEMENT_3D('',#1162,#929,#930);
#829=AXIS2_PLACEMENT_3D('',#1165,#931,#932);
#830=AXIS2_PLACEMENT_3D('',#1169,#934,#935);
#831=AXIS2_PLACEMENT_3D('',#1173,#937,#938);
#832=AXIS2_PLACEMENT_3D('',#1177,#940,#941);
#833=AXIS2_PLACEMENT_3D('',#1181,#943,#944);
#834=AXIS2_PLACEMENT_3D('',#1187,#947,#948);
#835=AXIS2_PLACEMENT_3D('',#1191,#950,#951);
#836=AXIS2_PLACEMENT_3D('',#1197,#954,#955);
#837=AXIS2_PLACEMENT_3D('',#1201,#957,#958);
#838=AXIS2_PLACEMENT_3D('',#1207,#961,#962);
#839=AXIS2_PLACEMENT_3D('',#1211,#964,#965);
#840=AXIS2_PLACEMENT_3D('',#1217,#968,#969);
#841=AXIS2_PLACEMENT_3D('',#1219,#971,#972);
#842=AXIS2_PLACEMENT_3D('',#1222,#974,#975);
#843=AXIS2_PLACEMENT_3D('',#1223,#976,#977);
#844=AXIS2_PLACEMENT_3D('',#1227,#980,#981);
#845=AXIS2_PLACEMENT_3D('',#1231,#983,#984);
#846=AXIS2_PLACEMENT_3D('',#1234,#986,#987);
#847=AXIS2_PLACEMENT_3D('',#1237,#988,#989);
#848=AXIS2_PLACEMENT_3D('',#1241,#991,#992);
#849=AXIS2_PLACEMENT_3D('',#1245,#994,#995);
#850=AXIS2_PLACEMENT_3D('',#1249,#997,#998);
#851=AXIS2_PLACEMENT_3D('',#1253,#1000,#1001);
#852=AXIS2_PLACEMENT_3D('',#1257,#1003,#1004);
#853=AXIS2_PLACEMENT_3D('',#1263,#1007,#1008);
#854=AXIS2_PLACEMENT_3D('',#1267,#1010,#1011);
#855=AXIS2_PLACEMENT_3D('',#1273,#1014,#1015);
#856=AXIS2_PLACEMENT_3D('',#1277,#1017,#1018);
#857=AXIS2_PLACEMENT_3D('',#1283,#1021,#1022);
#858=AXIS2_PLACEMENT_3D('',#1287,#1024,#1025);
#859=AXIS2_PLACEMENT_3D('',#1291,#1028,#1029);
#860=AXIS2_PLACEMENT_3D('',#1293,#1031,#1032);
#861=AXIS2_PLACEMENT_3D('',#1295,#1034,#1035);
#862=AXIS2_PLACEMENT_3D('',#1297,#1037,#1038);
#863=AXIS2_PLACEMENT_3D('',#1298,#1039,#1040);
#864=AXIS2_PLACEMENT_3D('',#1301,#1043,#1044);
#865=AXIS2_PLACEMENT_3D('',#1303,#1046,#1047);
#866=AXIS2_PLACEMENT_3D('',#1305,#1049,#1050);
#867=AXIS2_PLACEMENT_3D('',#1307,#1052,#1053);
#868=AXIS2_PLACEMENT_3D('',#1309,#1055,#1056);
#869=AXIS2_PLACEMENT_3D('',#1311,#1058,#1059);
#870=AXIS2_PLACEMENT_3D('',#1313,#1061,#1062);
#871=AXIS2_PLACEMENT_3D('',#1315,#1064,#1065);
#872=AXIS2_PLACEMENT_3D('',#1317,#1067,#1068);
#873=AXIS2_PLACEMENT_3D('',#1319,#1070,#1071);
#874=AXIS2_PLACEMENT_3D('',#1321,#1073,#1074);
#875=AXIS2_PLACEMENT_3D('',#1323,#1076,#1077);
#876=AXIS2_PLACEMENT_3D('',#1325,#1079,#1080);
#877=AXIS2_PLACEMENT_3D('',#1327,#1082,#1083);
#878=AXIS2_PLACEMENT_3D('',#1329,#1085,#1086);
#879=AXIS2_PLACEMENT_3D('',#1331,#1088,#1089);
#880=AXIS2_PLACEMENT_3D('',#1333,#1091,#1092);
#881=AXIS2_PLACEMENT_3D('',#1335,#1094,#1095);
#882=AXIS2_PLACEMENT_3D('',#1337,#1097,#1098);
#883=AXIS2_PLACEMENT_3D('',#1338,#1099,#1100);
#884=AXIS2_PLACEMENT_3D('',#1341,#1103,#1104);
#885=AXIS2_PLACEMENT_3D('',#1343,#1106,#1107);
#886=AXIS2_PLACEMENT_3D('',#1345,#1109,#1110);
#887=AXIS2_PLACEMENT_3D('',#1347,#1112,#1113);
#888=AXIS2_PLACEMENT_3D('',#1349,#1115,#1116);
#889=AXIS2_PLACEMENT_3D('',#1351,#1118,#1119);
#890=AXIS2_PLACEMENT_3D('',#1353,#1121,#1122);
#891=DIRECTION('axis',(0.,0.,1.));
#892=DIRECTION('refdir',(1.,0.,0.));
#893=DIRECTION('center_axis',(-7.298429501692E-48,-1.,-4.93038065763132E-32));
#894=DIRECTION('ref_axis',(0.,-4.93038065763132E-32,1.));
#895=DIRECTION('center_axis',(-7.298429501692E-48,-1.,-4.93038065763132E-32));
#896=DIRECTION('ref_axis',(0.,-4.93038065763132E-32,1.));
#897=DIRECTION('',(-7.298429501692E-48,-1.,-4.93038065763132E-32));
#898=DIRECTION('center_axis',(7.298429501692E-48,1.,4.93038065763132E-32));
#899=DIRECTION('ref_axis',(0.,-4.93038065763132E-32,1.));
#900=DIRECTION('center_axis',(-7.298429501692E-48,-1.,-4.93038065763132E-32));
#901=DIRECTION('ref_axis',(0.,-4.93038065763132E-32,1.));
#902=DIRECTION('center_axis',(-7.298429501692E-48,-1.,-4.93038065763132E-32));
#903=DIRECTION('ref_axis',(0.,-4.93038065763132E-32,1.));
#904=DIRECTION('',(-7.298429501692E-48,-1.,-4.93038065763132E-32));
#905=DIRECTION('center_axis',(7.298429501692E-48,1.,4.93038065763132E-32));
#906=DIRECTION('ref_axis',(0.,-4.93038065763132E-32,1.));
#907=DIRECTION('center_axis',(0.,-1.,0.));
#908=DIRECTION('ref_axis',(0.707106781186547,0.,0.707106781186548));
#909=DIRECTION('center_axis',(7.298429501692E-48,1.,4.93038065763132E-32));
#910=DIRECTION('ref_axis',(0.707106781186547,0.,0.707106781186548));
#911=DIRECTION('',(0.,1.,0.));
#912=DIRECTION('center_axis',(-7.298429501692E-48,-1.,-4.93038065763132E-32));
#913=DIRECTION('ref_axis',(0.707106781186547,0.,0.707106781186548));
#914=DIRECTION('',(0.,-1.,0.));
#915=DIRECTION('center_axis',(1.,0.,1.45603019622971E-16));
#916=DIRECTION('ref_axis',(1.45603019622971E-16,0.,-1.));
#917=DIRECTION('',(-1.45603019622971E-16,0.,1.));
#918=DIRECTION('',(0.,-1.,0.));
#919=DIRECTION('',(1.45603019622971E-16,0.,-1.));
#920=DIRECTION('center_axis',(7.298429501692E-48,1.,4.93038065763132E-32));
#921=DIRECTION('ref_axis',(-1.,7.298429501692E-48,0.));
#922=DIRECTION('',(-1.,0.,-9.34924652315921E-17));
#923=DIRECTION('center_axis',(7.298429501692E-48,1.,4.93038065763132E-32));
#924=DIRECTION('ref_axis',(-0.707106781186548,0.,0.707106781186547));
#925=DIRECTION('',(1.45603019622971E-16,4.17388314181629E-33,-1.));
#926=DIRECTION('center_axis',(7.298429501692E-48,1.,4.93038065763132E-32));
#927=DIRECTION('ref_axis',(-0.707106781186547,0.,-0.707106781186547));
#928=DIRECTION('',(1.,-2.67253698452567E-33,0.));
#929=DIRECTION('center_axis',(7.298429501692E-48,1.,4.93038065763132E-32));
#930=DIRECTION('ref_axis',(0.707106781186548,0.,-0.707106781186547));
#931=DIRECTION('center_axis',(0.,-1.,0.));
#932=DIRECTION('ref_axis',(-4.44089209850061E-15,0.,-1.));
#933=DIRECTION('',(0.,0.,-1.));
#934=DIRECTION('center_axis',(0.,-1.,0.));
#935=DIRECTION('ref_axis',(-1.,0.,0.));
#936=DIRECTION('',(-1.,0.,4.93432447219274E-16));
#937=DIRECTION('center_axis',(0.,-1.,0.));
#938=DIRECTION('ref_axis',(0.,0.,1.));
#939=DIRECTION('',(2.33731159412806E-16,0.,1.));
#940=DIRECTION('center_axis',(0.,-1.,0.));
#941=DIRECTION('ref_axis',(1.,0.,-1.11022302462515E-15));
#942=DIRECTION('',(1.,0.,0.));
#943=DIRECTION('center_axis',(0.,-1.,0.));
#944=DIRECTION('ref_axis',(-4.44089209850061E-15,0.,-1.));
#945=DIRECTION('',(0.,0.,-1.));
#946=DIRECTION('',(1.,0.,0.));
#947=DIRECTION('center_axis',(0.,-1.,0.));
#948=DIRECTION('ref_axis',(0.,0.,-1.));
#949=DIRECTION('',(0.,0.,-1.));
#950=DIRECTION('center_axis',(0.,-1.,0.));
#951=DIRECTION('ref_axis',(-1.,0.,0.));
#952=DIRECTION('',(-1.,0.,7.79103864913029E-17));
#953=DIRECTION('',(0.,0.,-1.));
#954=DIRECTION('center_axis',(0.,-1.,0.));
#955=DIRECTION('ref_axis',(-1.,0.,0.));
#956=DIRECTION('',(-1.,0.,2.46716223609637E-16));
#957=DIRECTION('center_axis',(0.,-1.,0.));
#958=DIRECTION('ref_axis',(0.,0.,1.));
#959=DIRECTION('',(5.69345131914438E-17,0.,1.));
#960=DIRECTION('',(-1.,0.,7.79103864913029E-17));
#961=DIRECTION('center_axis',(0.,-1.,0.));
#962=DIRECTION('ref_axis',(0.,0.,1.));
#963=DIRECTION('',(1.16865579614749E-16,0.,1.));
#964=DIRECTION('center_axis',(0.,-1.,0.));
#965=DIRECTION('ref_axis',(1.,0.,0.));
#966=DIRECTION('',(1.,0.,0.));
#967=DIRECTION('',(5.69345131914438E-17,0.,1.));
#968=DIRECTION('center_axis',(0.,-1.,0.));
#969=DIRECTION('ref_axis',(1.,0.,0.));
#970=DIRECTION('',(1.,0.,0.));
#971=DIRECTION('center_axis',(0.,-1.,0.));
#972=DIRECTION('ref_axis',(0.707106781186548,0.,-0.707106781186547));
#973=DIRECTION('',(0.,1.,0.));
#974=DIRECTION('center_axis',(-7.298429501692E-48,-1.,-4.93038065763132E-32));
#975=DIRECTION('ref_axis',(0.707106781186548,0.,-0.707106781186547));
#976=DIRECTION('center_axis',(-9.34924652315921E-17,0.,1.));
#977=DIRECTION('ref_axis',(1.,0.,9.34924652315921E-17));
#978=DIRECTION('',(1.,0.,9.34924652315921E-17));
#979=DIRECTION('',(0.,1.,0.));
#980=DIRECTION('center_axis',(7.298429501692E-48,1.,4.93038065763132E-32));
#981=DIRECTION('ref_axis',(-1.,7.298429501692E-48,0.));
#982=DIRECTION('',(-1.,2.67253698452567E-33,0.));
#983=DIRECTION('center_axis',(-7.298429501692E-48,-1.,-4.93038065763132E-32));
#984=DIRECTION('ref_axis',(-0.707106781186547,0.,-0.707106781186547));
#985=DIRECTION('',(-1.45603019622971E-16,-4.17388314181629E-33,1.));
#986=DIRECTION('center_axis',(-7.298429501692E-48,-1.,-4.93038065763132E-32));
#987=DIRECTION('ref_axis',(-0.707106781186548,0.,0.707106781186547));
#988=DIRECTION('center_axis',(0.,-1.,0.));
#989=DIRECTION('ref_axis',(-4.44089209850061E-15,0.,-1.));
#990=DIRECTION('',(1.,0.,0.));
#991=DIRECTION('center_axis',(0.,-1.,0.));
#992=DIRECTION('ref_axis',(1.,0.,-1.11022302462515E-15));
#993=DIRECTION('',(2.33731159412806E-16,0.,1.));
#994=DIRECTION('center_axis',(0.,-1.,0.));
#995=DIRECTION('ref_axis',(0.,0.,1.));
#996=DIRECTION('',(-1.,0.,4.93432447219274E-16));
#997=DIRECTION('center_axis',(0.,-1.,0.));
#998=DIRECTION('ref_axis',(-1.,0.,0.));
#999=DIRECTION('',(0.,0.,-1.));
#1000=DIRECTION('center_axis',(0.,-1.,0.));
#1001=DIRECTION('ref_axis',(-4.44089209850061E-15,0.,-1.));
#1002=DIRECTION('',(1.,0.,0.));
#1003=DIRECTION('center_axis',(0.,-1.,0.));
#1004=DIRECTION('ref_axis',(1.,0.,0.));
#1005=DIRECTION('',(5.69345131914438E-17,0.,1.));
#1006=DIRECTION('',(1.,0.,0.));
#1007=DIRECTION('center_axis',(0.,-1.,0.));
#1008=DIRECTION('ref_axis',(1.,0.,0.));
#1009=DIRECTION('',(1.16865579614749E-16,0.,1.));
#1010=DIRECTION('center_axis',(0.,-1.,0.));
#1011=DIRECTION('ref_axis',(0.,0.,1.));
#1012=DIRECTION('',(-1.,0.,7.79103864913029E-17));
#1013=DIRECTION('',(5.69345131914438E-17,0.,1.));
#1014=DIRECTION('center_axis',(0.,-1.,0.));
#1015=DIRECTION('ref_axis',(0.,0.,1.));
#1016=DIRECTION('',(-1.,0.,2.46716223609637E-16));
#1017=DIRECTION('center_axis',(0.,-1.,0.));
#1018=DIRECTION('ref_axis',(-1.,0.,0.));
#1019=DIRECTION('',(0.,0.,-1.));
#1020=DIRECTION('',(-1.,0.,7.79103864913029E-17));
#1021=DIRECTION('center_axis',(0.,-1.,0.));
#1022=DIRECTION('ref_axis',(-1.,0.,0.));
#1023=DIRECTION('',(0.,0.,-1.));
#1024=DIRECTION('center_axis',(0.,-1.,0.));
#1025=DIRECTION('ref_axis',(0.,0.,-1.));
#1026=DIRECTION('',(1.,0.,0.));
#1027=DIRECTION('',(0.,0.,-1.));
#1028=DIRECTION('center_axis',(0.,0.,-1.));
#1029=DIRECTION('ref_axis',(-1.,2.67253698452567E-33,0.));
#1030=DIRECTION('',(0.,-1.,0.));
#1031=DIRECTION('center_axis',(0.,-1.,0.));
#1032=DIRECTION('ref_axis',(-0.707106781186547,0.,-0.707106781186547));
#1033=DIRECTION('',(0.,1.,0.));
#1034=DIRECTION('center_axis',(-1.,0.,-1.45603019622971E-16));
#1035=DIRECTION('ref_axis',(-1.45603019622971E-16,-4.17388314181629E-33,
1.));
#1036=DIRECTION('',(0.,-1.,0.));
#1037=DIRECTION('center_axis',(0.,-1.,0.));
#1038=DIRECTION('ref_axis',(-0.707106781186548,0.,0.707106781186547));
#1039=DIRECTION('center_axis',(1.,0.,0.));
#1040=DIRECTION('ref_axis',(0.,0.,-1.));
#1041=DIRECTION('',(0.,1.,0.));
#1042=DIRECTION('',(0.,1.,0.));
#1043=DIRECTION('center_axis',(0.,0.,1.));
#1044=DIRECTION('ref_axis',(1.,0.,0.));
#1045=DIRECTION('',(0.,1.,0.));
#1046=DIRECTION('center_axis',(0.,1.,0.));
#1047=DIRECTION('ref_axis',(0.,0.,-1.));
#1048=DIRECTION('',(0.,1.,0.));
#1049=DIRECTION('center_axis',(1.,0.,0.));
#1050=DIRECTION('ref_axis',(0.,0.,-1.));
#1051=DIRECTION('',(0.,1.,0.));
#1052=DIRECTION('center_axis',(0.,1.,0.));
#1053=DIRECTION('ref_axis',(-1.,0.,0.));
#1054=DIRECTION('',(0.,1.,0.));
#1055=DIRECTION('center_axis',(-7.79103864913029E-17,0.,-1.));
#1056=DIRECTION('ref_axis',(-1.,0.,7.79103864913029E-17));
#1057=DIRECTION('',(0.,1.,0.));
#1058=DIRECTION('center_axis',(1.,0.,0.));
#1059=DIRECTION('ref_axis',(0.,0.,-1.));
#1060=DIRECTION('',(0.,1.,0.));
#1061=DIRECTION('center_axis',(0.,1.,0.));
#1062=DIRECTION('ref_axis',(-1.,0.,0.));
#1063=DIRECTION('',(0.,1.,0.));
#1064=DIRECTION('center_axis',(-2.46716223609637E-16,0.,-1.));
#1065=DIRECTION('ref_axis',(-1.,0.,2.46716223609637E-16));
#1066=DIRECTION('',(0.,1.,0.));
#1067=DIRECTION('center_axis',(0.,1.,0.));
#1068=DIRECTION('ref_axis',(0.,0.,1.));
#1069=DIRECTION('',(0.,1.,0.));
#1070=DIRECTION('center_axis',(-1.,0.,5.69345131914438E-17));
#1071=DIRECTION('ref_axis',(5.69345131914438E-17,0.,1.));
#1072=DIRECTION('',(0.,1.,0.));
#1073=DIRECTION('center_axis',(-7.79103864913029E-17,0.,-1.));
#1074=DIRECTION('ref_axis',(-1.,0.,7.79103864913029E-17));
#1075=DIRECTION('',(0.,1.,0.));
#1076=DIRECTION('center_axis',(0.,1.,0.));
#1077=DIRECTION('ref_axis',(0.,0.,1.));
#1078=DIRECTION('',(0.,1.,0.));
#1079=DIRECTION('center_axis',(-1.,0.,1.16865579614749E-16));
#1080=DIRECTION('ref_axis',(1.16865579614749E-16,0.,1.));
#1081=DIRECTION('',(0.,1.,0.));
#1082=DIRECTION('center_axis',(0.,1.,0.));
#1083=DIRECTION('ref_axis',(1.,0.,0.));
#1084=DIRECTION('',(0.,1.,0.));
#1085=DIRECTION('center_axis',(0.,0.,1.));
#1086=DIRECTION('ref_axis',(1.,0.,0.));
#1087=DIRECTION('',(0.,1.,0.));
#1088=DIRECTION('center_axis',(-1.,0.,5.69345131914438E-17));
#1089=DIRECTION('ref_axis',(5.69345131914438E-17,0.,1.));
#1090=DIRECTION('',(0.,1.,0.));
#1091=DIRECTION('center_axis',(0.,1.,0.));
#1092=DIRECTION('ref_axis',(1.,0.,0.));
#1093=DIRECTION('',(0.,1.,0.));
#1094=DIRECTION('center_axis',(0.,0.,1.));
#1095=DIRECTION('ref_axis',(1.,0.,0.));
#1096=DIRECTION('',(0.,1.,0.));
#1097=DIRECTION('center_axis',(0.,1.,0.));
#1098=DIRECTION('ref_axis',(-4.44089209850061E-15,0.,-1.));
#1099=DIRECTION('center_axis',(1.,0.,0.));
#1100=DIRECTION('ref_axis',(0.,0.,-1.));
#1101=DIRECTION('',(0.,1.,0.));
#1102=DIRECTION('',(0.,1.,0.));
#1103=DIRECTION('center_axis',(0.,1.,0.));
#1104=DIRECTION('ref_axis',(-1.,0.,0.));
#1105=DIRECTION('',(0.,1.,0.));
#1106=DIRECTION('center_axis',(-4.93432447219274E-16,0.,-1.));
#1107=DIRECTION('ref_axis',(-1.,0.,4.93432447219274E-16));
#1108=DIRECTION('',(0.,1.,0.));
#1109=DIRECTION('center_axis',(0.,1.,0.));
#1110=DIRECTION('ref_axis',(0.,0.,1.));
#1111=DIRECTION('',(0.,1.,0.));
#1112=DIRECTION('center_axis',(-1.,0.,2.33731159412806E-16));
#1113=DIRECTION('ref_axis',(2.33731159412806E-16,0.,1.));
#1114=DIRECTION('',(0.,1.,0.));
#1115=DIRECTION('center_axis',(0.,1.,0.));
#1116=DIRECTION('ref_axis',(1.,0.,-1.11022302462515E-15));
#1117=DIRECTION('',(0.,1.,0.));
#1118=DIRECTION('center_axis',(0.,0.,1.));
#1119=DIRECTION('ref_axis',(1.,0.,0.));
#1120=DIRECTION('',(0.,1.,0.));
#1121=DIRECTION('center_axis',(0.,1.,0.));
#1122=DIRECTION('ref_axis',(-4.44089209850061E-15,0.,-1.));
#1123=CARTESIAN_POINT('',(0.,0.,0.));
#1124=CARTESIAN_POINT('Origin',(54.4657395427139,1.01019799999999,5.07899313041878));
#1125=CARTESIAN_POINT('',(54.4657395427139,6.51019799999999,3.07899313041878));
#1126=CARTESIAN_POINT('Origin',(54.4657395427139,6.51019799999999,5.07899313041878));
#1127=CARTESIAN_POINT('',(54.4657395427139,4.51019799999999,3.07899313041878));
#1128=CARTESIAN_POINT('',(54.4657395427139,1.01019799999999,3.07899313041878));
#1129=CARTESIAN_POINT('Origin',(54.4657395427139,4.51019799999999,5.07899313041878));
#1130=CARTESIAN_POINT('Origin',(-54.3393319709801,1.01019799999999,5.12257543111726));
#1131=CARTESIAN_POINT('',(-54.3393319709801,6.51019799999999,3.12257543111726));
#1132=CARTESIAN_POINT('Origin',(-54.3393319709801,6.51019799999999,5.12257543111726));
#1133=CARTESIAN_POINT('',(-54.3393319709801,4.51019799999999,3.12257543111726));
#1134=CARTESIAN_POINT('',(-54.3393319709801,1.01019799999999,3.12257543111726));
#1135=CARTESIAN_POINT('Origin',(-54.3393319709801,4.51019799999999,5.12257543111726));
#1136=CARTESIAN_POINT('Origin',(50.8002693898915,4.51019799999999,35.7007242366784));
#1137=CARTESIAN_POINT('',(50.8002693898915,4.51019799999999,43.2007242366784));
#1138=CARTESIAN_POINT('',(58.3002693898915,4.51019799999999,35.7007242366784));
#1139=CARTESIAN_POINT('Origin',(50.8002693898915,4.51019799999999,35.7007242366784));
#1140=CARTESIAN_POINT('',(58.3002693898915,6.51019799999999,35.7007242366784));
#1141=CARTESIAN_POINT('',(58.3002693898915,4.51019799999999,35.7007242366784));
#1142=CARTESIAN_POINT('',(50.8002693898915,6.51019799999999,43.2007242366784));
#1143=CARTESIAN_POINT('Origin',(50.8002693898915,6.51019799999999,35.7007242366784));
#1144=CARTESIAN_POINT('',(50.8002693898915,4.51019799999999,43.2007242366784));
#1145=CARTESIAN_POINT('Origin',(58.3002693898915,4.51019799999999,35.7007242366784));
#1146=CARTESIAN_POINT('',(58.3002693898916,4.51019799999999,-25.2992757633216));
#1147=CARTESIAN_POINT('',(58.3002693898916,4.51019799999999,-25.2992757633216));
#1148=CARTESIAN_POINT('',(58.3002693898916,6.51019799999999,-25.2992757633216));
#1149=CARTESIAN_POINT('',(58.3002693898916,4.51019799999999,-25.2992757633216));
#1150=CARTESIAN_POINT('',(58.3002693898916,6.51019799999999,-25.2992757633216));
#1151=CARTESIAN_POINT('Origin',(-1.19973061010846,4.51019799999999,5.20072423667838));
#1152=CARTESIAN_POINT('',(-50.1997306101085,4.51019799999999,43.2007242366784));
#1153=CARTESIAN_POINT('',(47.8002693898916,4.51019799999999,43.2007242366784));
#1154=CARTESIAN_POINT('',(-57.6997306101085,4.51019799999999,35.7007242366784));
#1155=CARTESIAN_POINT('Origin',(-50.1997306101085,4.51019799999999,35.7007242366784));
#1156=CARTESIAN_POINT('',(-57.6997306101085,4.51019799999999,-25.2992757633216));
#1157=CARTESIAN_POINT('',(-57.6997306101085,4.51019799999999,35.7007242366784));
#1158=CARTESIAN_POINT('',(-50.1997306101085,4.51019799999999,-32.7992757633216));
#1159=CARTESIAN_POINT('Origin',(-50.1997306101085,4.51019799999999,-25.2992757633216));
#1160=CARTESIAN_POINT('',(50.8002693898916,4.51019799999999,-32.7992757633216));
#1161=CARTESIAN_POINT('',(-47.1997306101085,4.51019799999999,-32.7992757633216));
#1162=CARTESIAN_POINT('Origin',(50.8002693898915,4.51019799999999,-25.2992757633216));
#1163=CARTESIAN_POINT('',(25.000000372529,4.51019799999999,-5.00000008940697));
#1164=CARTESIAN_POINT('',(26.000000372529,4.51019799999999,-6.00000008940697));
#1165=CARTESIAN_POINT('Origin',(26.000000372529,4.51019799999999,-5.00000008940696));
#1166=CARTESIAN_POINT('',(25.000000372529,4.51019799999999,33.0000005066395));
#1167=CARTESIAN_POINT('',(25.000000372529,4.51019799999999,-5.00000008940697));
#1168=CARTESIAN_POINT('',(26.000000372529,4.51019799999999,34.0000005066395));
#1169=CARTESIAN_POINT('Origin',(26.000000372529,4.51019799999999,33.0000005066395));
#1170=CARTESIAN_POINT('',(44.0000006705522,4.51019799999999,34.0000005066395));
#1171=CARTESIAN_POINT('',(26.000000372529,4.51019799999999,34.0000005066395));
#1172=CARTESIAN_POINT('',(45.0000006705523,4.51019799999999,33.0000005066395));
#1173=CARTESIAN_POINT('Origin',(44.0000006705522,4.51019799999999,33.0000005066395));
#1174=CARTESIAN_POINT('',(45.0000006705522,4.51019799999999,-5.00000008940696));
#1175=CARTESIAN_POINT('',(45.0000006705523,4.51019799999999,33.0000005066395));
#1176=CARTESIAN_POINT('',(44.0000006705522,4.51019799999999,-6.00000008940696));
#1177=CARTESIAN_POINT('Origin',(44.0000006705522,4.51019799999999,-5.00000008940696));
#1178=CARTESIAN_POINT('',(44.0000006705522,4.51019799999999,-6.00000008940697));
#1179=CARTESIAN_POINT('',(-27.0000004023314,4.51019799999999,-5.00000008940697));
#1180=CARTESIAN_POINT('',(-26.0000004023314,4.51019799999999,-6.00000008940697));
#1181=CARTESIAN_POINT('Origin',(-26.0000004023313,4.51019799999999,-5.00000008940696));
#1182=CARTESIAN_POINT('',(-27.0000004023314,4.51019799999999,4.00000005960464));
#1183=CARTESIAN_POINT('',(-27.0000004023314,4.51019799999999,-5.00000008940697));
#1184=CARTESIAN_POINT('',(-46.0000007003546,4.51019799999999,4.00000005960464));
#1185=CARTESIAN_POINT('',(11.0000001788139,4.51019799999999,4.00000005960464));
#1186=CARTESIAN_POINT('',(-47.0000007003546,4.51019799999999,5.00000005960464));
#1187=CARTESIAN_POINT('Origin',(-46.0000007003546,4.51019799999999,5.00000005960464));
#1188=CARTESIAN_POINT('',(-47.0000007003546,4.51019799999999,24.000000372529));
#1189=CARTESIAN_POINT('',(-47.0000007003546,4.51019799999999,5.00000005960464));
#1190=CARTESIAN_POINT('',(-46.0000007003546,4.51019799999999,25.000000372529));
#1191=CARTESIAN_POINT('Origin',(-46.0000007003546,4.51019799999999,24.000000372529));
#1192=CARTESIAN_POINT('',(-27.0000004023314,4.51019799999999,25.000000372529));
#1193=CARTESIAN_POINT('',(-46.0000007003546,4.51019799999999,25.000000372529));
#1194=CARTESIAN_POINT('',(-27.0000004023314,4.51019799999999,34.0000005215406));
#1195=CARTESIAN_POINT('',(-27.0000004023314,4.51019799999999,-5.00000008940697));
#1196=CARTESIAN_POINT('',(-26.0000004023314,4.51019799999999,35.0000005215406));
#1197=CARTESIAN_POINT('Origin',(-26.0000004023314,4.51019799999999,34.0000005215406));
#1198=CARTESIAN_POINT('',(-8.00000010430813,4.51019799999999,35.0000005215406));
#1199=CARTESIAN_POINT('',(-26.0000004023314,4.51019799999999,35.0000005215406));
#1200=CARTESIAN_POINT('',(-7.00000010430813,4.51019799999999,34.0000005215406));
#1201=CARTESIAN_POINT('Origin',(-8.00000010430813,4.51019799999999,34.0000005215406));
#1202=CARTESIAN_POINT('',(-7.00000010430813,4.51019799999999,25.000000372529));
#1203=CARTESIAN_POINT('',(-7.00000010430813,4.51019799999999,34.0000005215406));
#1204=CARTESIAN_POINT('',(11.0000001788139,4.51019799999999,25.000000372529));
#1205=CARTESIAN_POINT('',(-46.0000007003546,4.51019799999999,25.000000372529));
#1206=CARTESIAN_POINT('',(12.0000001788139,4.51019799999999,24.000000372529));
#1207=CARTESIAN_POINT('Origin',(11.0000001788139,4.51019799999999,24.000000372529));
#1208=CARTESIAN_POINT('',(12.0000001788139,4.51019799999999,5.00000005960464));
#1209=CARTESIAN_POINT('',(12.0000001788139,4.51019799999999,24.000000372529));
#1210=CARTESIAN_POINT('',(11.0000001788139,4.51019799999999,4.00000005960464));
#1211=CARTESIAN_POINT('Origin',(11.0000001788139,4.51019799999999,5.00000005960464));
#1212=CARTESIAN_POINT('',(-7.00000010430813,4.51019799999999,4.00000005960464));
#1213=CARTESIAN_POINT('',(11.0000001788139,4.51019799999999,4.00000005960464));
#1214=CARTESIAN_POINT('',(-7.00000010430813,4.51019799999999,-5.00000008940697));
#1215=CARTESIAN_POINT('',(-7.00000010430813,4.51019799999999,34.0000005215406));
#1216=CARTESIAN_POINT('',(-8.00000010430813,4.51019799999999,-6.00000008940697));
#1217=CARTESIAN_POINT('Origin',(-8.00000010430813,4.51019799999999,-5.00000008940697));
#1218=CARTESIAN_POINT('',(-8.00000010430813,4.51019799999999,-6.00000008940697));
#1219=CARTESIAN_POINT('Origin',(50.8002693898915,4.51019799999999,-25.2992757633216));
#1220=CARTESIAN_POINT('',(50.8002693898916,6.51019799999999,-32.7992757633216));
#1221=CARTESIAN_POINT('',(50.8002693898915,4.51019799999999,-32.7992757633216));
#1222=CARTESIAN_POINT('Origin',(50.8002693898915,6.51019799999999,-25.2992757633216));
#1223=CARTESIAN_POINT('Origin',(-47.1997306101084,4.51019799999999,43.2007242366784));
#1224=CARTESIAN_POINT('',(-50.1997306101085,6.51019799999999,43.2007242366784));
#1225=CARTESIAN_POINT('',(47.8002693898916,6.51019799999999,43.2007242366784));
#1226=CARTESIAN_POINT('',(-50.1997306101085,4.51019799999999,43.2007242366784));
#1227=CARTESIAN_POINT('Origin',(-1.19973061010846,6.51019799999999,5.20072423667838));
#1228=CARTESIAN_POINT('',(-50.1997306101085,6.51019799999999,-32.7992757633216));
#1229=CARTESIAN_POINT('',(-47.1997306101085,6.51019799999999,-32.7992757633216));
#1230=CARTESIAN_POINT('',(-57.6997306101085,6.51019799999999,-25.2992757633216));
#1231=CARTESIAN_POINT('Origin',(-50.1997306101085,6.51019799999999,-25.2992757633216));
#1232=CARTESIAN_POINT('',(-57.6997306101085,6.51019799999999,35.7007242366784));
#1233=CARTESIAN_POINT('',(-57.6997306101085,6.51019799999999,35.7007242366784));
#1234=CARTESIAN_POINT('Origin',(-50.1997306101085,6.51019799999999,35.7007242366784));
#1235=CARTESIAN_POINT('',(25.000000372529,6.51019799999999,-5.00000008940697));
#1236=CARTESIAN_POINT('',(26.000000372529,6.51019799999999,-6.00000008940697));
#1237=CARTESIAN_POINT('Origin',(26.000000372529,6.51019799999999,-5.00000008940696));
#1238=CARTESIAN_POINT('',(44.0000006705522,6.51019799999999,-6.00000008940696));
#1239=CARTESIAN_POINT('',(44.0000006705522,6.51019799999999,-6.00000008940697));
#1240=CARTESIAN_POINT('',(45.0000006705522,6.51019799999999,-5.00000008940696));
#1241=CARTESIAN_POINT('Origin',(44.0000006705522,6.51019799999999,-5.00000008940696));
#1242=CARTESIAN_POINT('',(45.0000006705523,6.51019799999999,33.0000005066395));
#1243=CARTESIAN_POINT('',(45.0000006705523,6.51019799999999,33.0000005066395));
#1244=CARTESIAN_POINT('',(44.0000006705522,6.51019799999999,34.0000005066395));
#1245=CARTESIAN_POINT('Origin',(44.0000006705522,6.51019799999999,33.0000005066395));
#1246=CARTESIAN_POINT('',(26.000000372529,6.51019799999999,34.0000005066395));
#1247=CARTESIAN_POINT('',(26.000000372529,6.51019799999999,34.0000005066395));
#1248=CARTESIAN_POINT('',(25.000000372529,6.51019799999999,33.0000005066395));
#1249=CARTESIAN_POINT('Origin',(26.000000372529,6.51019799999999,33.0000005066395));
#1250=CARTESIAN_POINT('',(25.000000372529,6.51019799999999,-5.00000008940697));
#1251=CARTESIAN_POINT('',(-27.0000004023314,6.51019799999999,-5.00000008940697));
#1252=CARTESIAN_POINT('',(-26.0000004023314,6.51019799999999,-6.00000008940697));
#1253=CARTESIAN_POINT('Origin',(-26.0000004023313,6.51019799999999,-5.00000008940696));
#1254=CARTESIAN_POINT('',(-8.00000010430813,6.51019799999999,-6.00000008940697));
#1255=CARTESIAN_POINT('',(-8.00000010430813,6.51019799999999,-6.00000008940697));
#1256=CARTESIAN_POINT('',(-7.00000010430813,6.51019799999999,-5.00000008940697));
#1257=CARTESIAN_POINT('Origin',(-8.00000010430813,6.51019799999999,-5.00000008940697));
#1258=CARTESIAN_POINT('',(-7.00000010430813,6.51019799999999,4.00000005960464));
#1259=CARTESIAN_POINT('',(-7.00000010430813,6.51019799999999,34.0000005215406));
#1260=CARTESIAN_POINT('',(11.0000001788139,6.51019799999999,4.00000005960464));
#1261=CARTESIAN_POINT('',(11.0000001788139,6.51019799999999,4.00000005960464));
#1262=CARTESIAN_POINT('',(12.0000001788139,6.51019799999999,5.00000005960464));
#1263=CARTESIAN_POINT('Origin',(11.0000001788139,6.51019799999999,5.00000005960464));
#1264=CARTESIAN_POINT('',(12.0000001788139,6.51019799999999,24.000000372529));
#1265=CARTESIAN_POINT('',(12.0000001788139,6.51019799999999,24.000000372529));
#1266=CARTESIAN_POINT('',(11.0000001788139,6.51019799999999,25.000000372529));
#1267=CARTESIAN_POINT('Origin',(11.0000001788139,6.51019799999999,24.000000372529));
#1268=CARTESIAN_POINT('',(-7.00000010430813,6.51019799999999,25.000000372529));
#1269=CARTESIAN_POINT('',(-46.0000007003546,6.51019799999999,25.000000372529));
#1270=CARTESIAN_POINT('',(-7.00000010430813,6.51019799999999,34.0000005215406));
#1271=CARTESIAN_POINT('',(-7.00000010430813,6.51019799999999,34.0000005215406));
#1272=CARTESIAN_POINT('',(-8.00000010430813,6.51019799999999,35.0000005215406));
#1273=CARTESIAN_POINT('Origin',(-8.00000010430813,6.51019799999999,34.0000005215406));
#1274=CARTESIAN_POINT('',(-26.0000004023314,6.51019799999999,35.0000005215406));
#1275=CARTESIAN_POINT('',(-26.0000004023314,6.51019799999999,35.0000005215406));
#1276=CARTESIAN_POINT('',(-27.0000004023314,6.51019799999999,34.0000005215406));
#1277=CARTESIAN_POINT('Origin',(-26.0000004023314,6.51019799999999,34.0000005215406));
#1278=CARTESIAN_POINT('',(-27.0000004023314,6.51019799999999,25.000000372529));
#1279=CARTESIAN_POINT('',(-27.0000004023314,6.51019799999999,-5.00000008940697));
#1280=CARTESIAN_POINT('',(-46.0000007003546,6.51019799999999,25.000000372529));
#1281=CARTESIAN_POINT('',(-46.0000007003546,6.51019799999999,25.000000372529));
#1282=CARTESIAN_POINT('',(-47.0000007003546,6.51019799999999,24.000000372529));
#1283=CARTESIAN_POINT('Origin',(-46.0000007003546,6.51019799999999,24.000000372529));
#1284=CARTESIAN_POINT('',(-47.0000007003546,6.51019799999999,5.00000005960464));
#1285=CARTESIAN_POINT('',(-47.0000007003546,6.51019799999999,5.00000005960464));
#1286=CARTESIAN_POINT('',(-46.0000007003546,6.51019799999999,4.00000005960464));
#1287=CARTESIAN_POINT('Origin',(-46.0000007003546,6.51019799999999,5.00000005960464));
#1288=CARTESIAN_POINT('',(-27.0000004023314,6.51019799999999,4.00000005960464));
#1289=CARTESIAN_POINT('',(11.0000001788139,6.51019799999999,4.00000005960464));
#1290=CARTESIAN_POINT('',(-27.0000004023314,6.51019799999999,-5.00000008940697));
#1291=CARTESIAN_POINT('Origin',(47.8002693898915,4.51019799999999,-32.7992757633216));
#1292=CARTESIAN_POINT('',(-50.1997306101085,4.51019799999999,-32.7992757633216));
#1293=CARTESIAN_POINT('Origin',(-50.1997306101085,4.51019799999999,-25.2992757633216));
#1294=CARTESIAN_POINT('',(-57.6997306101085,4.51019799999999,-25.2992757633216));
#1295=CARTESIAN_POINT('Origin',(-57.6997306101085,4.51019799999999,-25.2992757633216));
#1296=CARTESIAN_POINT('',(-57.6997306101085,4.51019799999999,35.7007242366784));
#1297=CARTESIAN_POINT('Origin',(-50.1997306101085,4.51019799999999,35.7007242366784));
#1298=CARTESIAN_POINT('Origin',(-27.0000004023314,4.51019799999999,4.00000005960464));
#1299=CARTESIAN_POINT('',(-27.0000004023314,4.51019799999999,-5.00000008940697));
#1300=CARTESIAN_POINT('',(-27.0000004023314,4.51019799999999,4.00000005960464));
#1301=CARTESIAN_POINT('Origin',(-46.0000007003546,4.51019799999999,4.00000005960464));
#1302=CARTESIAN_POINT('',(-46.0000007003546,4.51019799999999,4.00000005960464));
#1303=CARTESIAN_POINT('Origin',(-46.0000007003546,4.51019799999999,5.00000005960464));
#1304=CARTESIAN_POINT('',(-47.0000007003546,4.51019799999999,5.00000005960464));
#1305=CARTESIAN_POINT('Origin',(-47.0000007003546,4.51019799999999,24.000000372529));
#1306=CARTESIAN_POINT('',(-47.0000007003546,4.51019799999999,24.000000372529));
#1307=CARTESIAN_POINT('Origin',(-46.0000007003546,4.51019799999999,24.000000372529));
#1308=CARTESIAN_POINT('',(-46.0000007003546,4.51019799999999,25.000000372529));
#1309=CARTESIAN_POINT('Origin',(-27.0000004023314,4.51019799999999,25.000000372529));
#1310=CARTESIAN_POINT('',(-27.0000004023314,4.51019799999999,25.000000372529));
#1311=CARTESIAN_POINT('Origin',(-27.0000004023314,4.51019799999999,34.0000005215406));
#1312=CARTESIAN_POINT('',(-27.0000004023314,4.51019799999999,34.0000005215406));
#1313=CARTESIAN_POINT('Origin',(-26.0000004023314,4.51019799999999,34.0000005215406));
#1314=CARTESIAN_POINT('',(-26.0000004023314,4.51019799999999,35.0000005215406));
#1315=CARTESIAN_POINT('Origin',(-8.00000010430813,4.51019799999999,35.0000005215406));
#1316=CARTESIAN_POINT('',(-8.00000010430813,4.51019799999999,35.0000005215406));
#1317=CARTESIAN_POINT('Origin',(-8.00000010430813,4.51019799999999,34.0000005215406));
#1318=CARTESIAN_POINT('',(-7.00000010430813,4.51019799999999,34.0000005215406));
#1319=CARTESIAN_POINT('Origin',(-7.00000010430813,4.51019799999999,25.000000372529));
#1320=CARTESIAN_POINT('',(-7.00000010430813,4.51019799999999,25.000000372529));
#1321=CARTESIAN_POINT('Origin',(11.0000001788139,4.51019799999999,25.000000372529));
#1322=CARTESIAN_POINT('',(11.0000001788139,4.51019799999999,25.000000372529));
#1323=CARTESIAN_POINT('Origin',(11.0000001788139,4.51019799999999,24.000000372529));
#1324=CARTESIAN_POINT('',(12.0000001788139,4.51019799999999,24.000000372529));
#1325=CARTESIAN_POINT('Origin',(12.0000001788139,4.51019799999999,5.00000005960465));
#1326=CARTESIAN_POINT('',(12.0000001788139,4.51019799999999,5.00000005960464));
#1327=CARTESIAN_POINT('Origin',(11.0000001788139,4.51019799999999,5.00000005960464));
#1328=CARTESIAN_POINT('',(11.0000001788139,4.51019799999999,4.00000005960464));
#1329=CARTESIAN_POINT('Origin',(-7.00000010430813,4.51019799999999,4.00000005960464));
#1330=CARTESIAN_POINT('',(-7.00000010430813,4.51019799999999,4.00000005960464));
#1331=CARTESIAN_POINT('Origin',(-7.00000010430813,4.51019799999999,-5.00000008940697));
#1332=CARTESIAN_POINT('',(-7.00000010430813,4.51019799999999,-5.00000008940697));
#1333=CARTESIAN_POINT('Origin',(-8.00000010430813,4.51019799999999,-5.00000008940697));
#1334=CARTESIAN_POINT('',(-8.00000010430813,4.51019799999999,-6.00000008940697));
#1335=CARTESIAN_POINT('Origin',(-26.0000004023314,4.51019799999999,-6.00000008940697));
#1336=CARTESIAN_POINT('',(-26.0000004023314,4.51019799999999,-6.00000008940697));
#1337=CARTESIAN_POINT('Origin',(-26.0000004023313,4.51019799999999,-5.00000008940696));
#1338=CARTESIAN_POINT('Origin',(25.000000372529,4.51019799999999,33.0000005066395));
#1339=CARTESIAN_POINT('',(25.000000372529,4.51019799999999,-5.00000008940697));
#1340=CARTESIAN_POINT('',(25.000000372529,4.51019799999999,33.0000005066395));
#1341=CARTESIAN_POINT('Origin',(26.000000372529,4.51019799999999,33.0000005066395));
#1342=CARTESIAN_POINT('',(26.000000372529,4.51019799999999,34.0000005066395));
#1343=CARTESIAN_POINT('Origin',(44.0000006705522,4.51019799999999,34.0000005066395));
#1344=CARTESIAN_POINT('',(44.0000006705522,4.51019799999999,34.0000005066395));
#1345=CARTESIAN_POINT('Origin',(44.0000006705522,4.51019799999999,33.0000005066395));
#1346=CARTESIAN_POINT('',(45.0000006705523,4.51019799999999,33.0000005066395));
#1347=CARTESIAN_POINT('Origin',(45.0000006705522,4.51019799999999,-5.00000008940696));
#1348=CARTESIAN_POINT('',(45.0000006705522,4.51019799999999,-5.00000008940696));
#1349=CARTESIAN_POINT('Origin',(44.0000006705522,4.51019799999999,-5.00000008940696));
#1350=CARTESIAN_POINT('',(44.0000006705522,4.51019799999999,-6.00000008940696));
#1351=CARTESIAN_POINT('Origin',(26.000000372529,4.51019799999999,-6.00000008940697));
#1352=CARTESIAN_POINT('',(26.000000372529,4.51019799999999,-6.00000008940697));
#1353=CARTESIAN_POINT('Origin',(26.000000372529,4.51019799999999,-5.00000008940696));
#1354=UNCERTAINTY_MEASURE_WITH_UNIT(LENGTH_MEASURE(0.01),#1358,
'DISTANCE_ACCURACY_VALUE',
'Maximum model space distance between geometric entities at asserted c
onnectivities');
#1355=UNCERTAINTY_MEASURE_WITH_UNIT(LENGTH_MEASURE(0.01),#1358,
'DISTANCE_ACCURACY_VALUE',
'Maximum model space distance between geometric entities at asserted c
onnectivities');
#1356=(
GEOMETRIC_REPRESENTATION_CONTEXT(3)
GLOBAL_UNCERTAINTY_ASSIGNED_CONTEXT((#1354))
GLOBAL_UNIT_ASSIGNED_CONTEXT((#1358,#1360,#1361))
REPRESENTATION_CONTEXT('','3D')
);
#1357=(
GEOMETRIC_REPRESENTATION_CONTEXT(3)
GLOBAL_UNCERTAINTY_ASSIGNED_CONTEXT((#1355))
GLOBAL_UNIT_ASSIGNED_CONTEXT((#1358,#1360,#1361))
REPRESENTATION_CONTEXT('','3D')
);
#1358=(
LENGTH_UNIT()
NAMED_UNIT(*)
SI_UNIT(.MILLI.,.METRE.)
);
#1359=(
LENGTH_UNIT()
NAMED_UNIT(*)
SI_UNIT($,.METRE.)
);
#1360=(
NAMED_UNIT(*)
PLANE_ANGLE_UNIT()
SI_UNIT($,.RADIAN.)
);
#1361=(
NAMED_UNIT(*)
SI_UNIT($,.STERADIAN.)
SOLID_ANGLE_UNIT()
);
#1362=SHAPE_DEFINITION_REPRESENTATION(#1363,#1364);
#1363=PRODUCT_DEFINITION_SHAPE('',$,#1366);
#1364=SHAPE_REPRESENTATION('',(#814),#1356);
#1365=PRODUCT_DEFINITION_CONTEXT('part definition',#1370,'design');
#1366=PRODUCT_DEFINITION('2026-09-14-03-50-59-529','Top_Case',#1367,#1365);
#1367=PRODUCT_DEFINITION_FORMATION('',$,#1372);
#1368=PRODUCT_RELATED_PRODUCT_CATEGORY('Top_Case','Top_Case',(#1372));
#1369=APPLICATION_PROTOCOL_DEFINITION('international standard',
'automotive_design',2009,#1370);
#1370=APPLICATION_CONTEXT(
'Core Data for Automotive Mechanical Design Process');
#1371=PRODUCT_CONTEXT('part definition',#1370,'mechanical');
#1372=PRODUCT('2026-09-14-03-50-59-529','Top_Case',$,(#1371));
#1373=PRESENTATION_STYLE_ASSIGNMENT((#1374));
#1374=SURFACE_STYLE_USAGE(.BOTH.,#1375);
#1375=SURFACE_SIDE_STYLE('',(#1376));
#1376=SURFACE_STYLE_FILL_AREA(#1377);
#1377=FILL_AREA_STYLE('Steel - Satin',(#1378));
#1378=FILL_AREA_STYLE_COLOUR('Steel - Satin',#1379);
#1379=COLOUR_RGB('Steel - Satin',0.627450980392157,0.627450980392157,0.627450980392157);
ENDSEC;
END-ISO-10303-21;
